<svg width="16" height="13" viewBox="0 0 16 13" fill="none" xmlns="http://www.w3.org/2000/svg">
<path d="M7.93285 11.7355L8.08093 11.864C8.46786 12.1999 9.04603 12.189 9.41999 11.8387L14.641 6.94901C15.0634 6.55346 15.0629 5.88309 14.6399 5.48819L9.43275 0.626381C9.0533 0.272098 8.46585 0.267086 8.08041 0.614845L7.9094 0.769137C7.47115 1.16454 7.46894 1.85152 7.90464 2.24974L11.4452 5.48577C11.8767 5.88011 11.8794 6.55884 11.4511 6.95663L7.90781 10.2476C7.47204 10.6523 7.4837 11.3457 7.93285 11.7355Z" fill="white"/>
<path d="M1.26878 11.7355L1.41687 11.864C1.8038 12.1999 2.38197 12.189 2.75593 11.8387L7.97697 6.94901C8.39932 6.55346 8.3988 5.88309 7.97585 5.48819L2.76869 0.626381C2.38924 0.272098 1.80179 0.267086 1.41635 0.614845L1.24534 0.769137C0.807092 1.16454 0.804882 1.85152 1.24058 2.24974L4.78115 5.48577C5.2126 5.88011 5.21532 6.55884 4.78704 6.95663L1.24374 10.2476C0.807974 10.6523 0.819641 11.3457 1.26878 11.7355Z" fill="white"/>
</svg>
