<svg width="51" height="52" viewBox="0 0 51 52" fill="none" xmlns="http://www.w3.org/2000/svg">
<g clip-path="url(#clip0_1_1002)">
<path d="M20.6116 9.05028C20.6116 7.29146 20.6116 5.39031 20.6116 3.50746C20.6116 3.06623 20.5996 2.62297 20.6376 2.18581C20.6797 1.69389 20.8748 1.22836 21.1946 0.856595C21.5144 0.484832 21.9423 0.226134 22.4164 0.11793C22.7447 0.0424113 23.0803 0.00489749 23.4169 0.00609994C28.9862 -0.00203331 34.5554 -0.00203331 40.1247 0.00609994C41.0312 0.00609994 41.9256 0.185032 42.3938 1.02276C42.7118 1.60694 42.8817 2.2624 42.888 2.93C42.918 11.6387 42.908 20.3494 42.908 29.0601V30.3696C44.4027 30.3696 45.7954 30.3696 47.1881 30.3696C47.8544 30.3696 48.5247 30.3391 49.189 30.4021C49.5397 30.4292 49.8768 30.5509 50.1658 30.7546C50.4547 30.9583 50.685 31.2366 50.8328 31.5608C50.9806 31.8851 51.0407 32.2435 51.0067 32.5992C50.9728 32.9549 50.8461 33.2949 50.6397 33.5843C50.4412 33.8569 50.2174 34.1095 49.9714 34.3386C44.5261 39.876 39.0796 45.4114 33.6317 50.9447C32.231 52.368 31.2906 52.368 29.9019 50.9447C27.3287 48.3339 24.7495 45.7313 22.1983 43.1002C21.7061 42.5898 21.2899 42.4251 20.5515 42.5939C11.2231 44.739 2.12486 38.6371 0.304001 29.0601C-1.51686 19.4832 5.38438 10.0019 14.8909 9.07875C16.7137 8.89778 18.5806 9.05028 20.6116 9.05028ZM22.2683 9.75176C29.1856 12.7082 33.3075 17.7996 33.5376 25.4612C33.7677 33.1227 29.962 38.4378 23.5589 41.6606L31.9369 50.1822C32.006 50.1525 32.0681 50.1082 32.119 50.0521C37.7336 44.3588 43.3442 38.6547 48.9509 32.9397C49.131 32.7567 49.205 32.4659 49.4191 32.0532C47.3041 32.0532 45.4172 32.0532 43.5123 32.0532C41.7755 32.0532 41.2533 31.5123 41.2533 29.7454C41.2533 20.9004 41.2533 12.0555 41.2533 3.21059C41.2533 1.83404 41.1392 1.71611 39.7566 1.71408H23.759C23.5269 1.71408 23.2928 1.71408 23.0607 1.73035C22.5425 1.76288 22.2723 2.03534 22.2723 2.5762C22.2703 4.97551 22.2683 7.37075 22.2683 9.75176ZM31.9249 25.9878C31.9276 21.9118 30.3404 18.0008 27.5111 15.1116C24.6817 12.2224 20.8409 10.5904 16.8298 10.5732C8.53587 10.5529 1.67864 17.5109 1.67264 25.9532C1.66664 34.3955 8.49985 41.3678 16.7938 41.3698C20.8051 41.3607 24.6494 39.737 27.4853 36.8541C30.3211 33.9712 31.9175 30.064 31.9249 25.9878Z" fill="black"/>
<path d="M29.3758 25.9573C29.3878 33.0048 23.7192 38.7815 16.8019 38.7672C9.93867 38.7672 4.254 32.9926 4.24199 26.0305C4.22999 18.981 9.86663 13.1942 16.7759 13.1658C23.6851 13.1373 29.3618 18.8936 29.3758 25.9573ZM27.703 25.9899C27.7072 24.5317 27.4287 23.087 26.8832 21.7382C26.3378 20.3895 25.5362 19.1632 24.5242 18.1294C23.5123 17.0956 22.3098 16.2745 20.9854 15.7131C19.6611 15.1517 18.2409 14.8609 16.8059 14.8575C10.8471 14.8697 5.91077 19.8594 5.88276 25.9004C5.88258 28.8454 7.02556 31.6715 9.06354 33.7653C11.1015 35.8591 13.87 37.0515 16.7679 37.0836C22.7587 37.1304 27.693 32.1284 27.703 25.9899Z" fill="black"/>
<path d="M17.7303 32.6834C17.6143 33.3483 17.7303 34.1535 16.8159 34.1718C15.8375 34.1922 16.1036 33.3097 15.9275 32.6977C15.6534 32.6245 15.3652 32.5594 15.0831 32.4679C13.7325 32.0287 12.768 30.6908 12.806 29.3407C12.82 28.8507 12.9541 28.4643 13.4964 28.3952C13.6039 28.3699 13.7157 28.3691 13.8235 28.393C13.9314 28.4168 14.0327 28.4647 14.1202 28.5332C14.2077 28.6017 14.2791 28.689 14.3294 28.7889C14.3796 28.8888 14.4074 28.9988 14.4108 29.1109C14.4828 29.8815 14.7209 30.6461 15.4693 30.7721C16.4097 30.9306 17.3711 30.9065 18.3026 30.701C19.073 30.5261 19.3851 29.422 19.201 28.3444C19.1517 27.9373 18.9628 27.5608 18.6675 27.2812C18.3722 27.0016 17.9894 26.8366 17.5863 26.8153C17.056 26.7767 16.5198 26.8153 15.9855 26.799C15.1612 26.7773 14.3756 26.4391 13.7868 25.8524C13.198 25.2658 12.8497 24.4743 12.812 23.6372C12.658 21.0753 13.2883 20.1806 15.9335 19.1883C16.1196 18.6658 15.8214 17.765 16.7879 17.765C17.7003 17.765 17.6303 18.5438 17.7143 19.2188C18.0785 19.3388 18.4607 19.4364 18.8189 19.5909C19.9954 20.0952 20.6197 21.0427 20.8418 22.2891C20.9398 22.8483 20.7818 23.3546 20.1895 23.4786C19.5972 23.6027 19.3311 23.2123 19.207 22.6226C18.9489 21.3904 18.4467 21.0102 17.1861 20.9695C16.954 20.9695 16.7199 20.9695 16.4858 20.9695C14.9751 21.0102 14.4308 21.61 14.4548 23.2062C14.4768 24.5726 15.0831 25.1276 16.5538 25.15C17.1541 25.15 17.7664 25.1236 18.3366 25.2618C19.9374 25.6543 20.8618 26.9942 20.8738 28.814C20.8858 30.7396 20.0074 32.0409 18.3786 32.5106L17.7303 32.6834Z" fill="black"/>
</g>
<defs>
<clipPath id="clip0_1_1002">
<rect width="51" height="52" fill="white"/>
</clipPath>
</defs>
</svg>
