<svg width="51" height="46" viewBox="0 0 51 46" fill="none" xmlns="http://www.w3.org/2000/svg">
<g clip-path="url(#clip0_1_1006)">
<path d="M29.4968 43.773C29.006 45.1084 28.0264 45.4208 26.7806 45.3353C25.7871 45.2696 24.7936 45.3353 23.8001 45.3193C22.4768 45.2974 21.7197 44.5392 21.688 43.2158C21.6681 42.4535 21.6681 41.6913 21.6562 40.9291C21.6356 40.8536 21.6076 40.7803 21.5727 40.7102L19.7467 39.8923C19.1764 40.4575 18.6439 40.9948 18.1015 41.5222C16.951 42.6446 15.9714 42.6466 14.8289 41.5222C14.1911 40.8953 13.5672 40.2544 12.9313 39.6256C12.2955 38.9967 11.6596 38.4315 11.7391 37.3767H10.5469C7.89828 37.3767 5.24962 37.3767 2.59898 37.3767C0.810695 37.3767 0.00397887 36.5389 0.00397887 34.7438C0.00397887 24.0349 0.0258328 13.3239 -0.0238419 2.61302C-0.0238419 1.21992 0.969655 -0.0597397 2.53739 -0.0020258C4.81845 0.0815599 7.10745 0.0158845 9.38852 0.0218549C9.71239 0.0218549 10.0363 0.0676309 10.4674 0.0994731C10.533 0.509441 10.5906 0.869657 10.6483 1.21992C9.65478 1.99209 8.55199 1.45675 7.4353 1.79706C7.37967 3.05085 7.39954 4.34841 7.4353 5.71364H49.2574V1.98413C48.7944 1.53436 48.2639 1.67368 47.793 1.67368C39.8808 1.66572 31.968 1.66572 24.0545 1.67368H14.046C13.4022 1.67368 12.7565 1.66174 12.5578 0.732347L13.0247 0.0298232H48.101C48.399 0.0298232 48.6971 0.0298164 48.9951 0.0477276C49.5076 0.102006 49.9855 0.332256 50.3477 0.69938C50.7099 1.0665 50.934 1.54787 50.9821 2.06174C51.002 2.2926 50.9821 2.52545 50.9821 2.75829C50.9821 13.4015 50.9821 24.0455 50.9821 34.69C51.0001 35.0228 50.9814 35.3565 50.9265 35.6851C50.8082 36.1721 50.5292 36.6047 50.1346 36.9128C49.74 37.221 49.2531 37.3865 48.7527 37.3827C47.3956 37.4105 46.0365 37.3946 44.6794 37.3946H43.4872C43.3064 40.9391 41.84 43.7153 38.5813 45.2039C35.3763 46.6607 32.3462 46.0915 29.4968 43.773ZM49.1442 35.707C49.4343 34.5129 49.4005 8.24311 49.1442 7.49084C48.9867 7.45988 48.8274 7.43928 48.6673 7.42916C33.2045 7.42916 17.7412 7.42916 2.27709 7.42916C2.14643 7.43933 2.01722 7.46334 1.89162 7.5008C1.86165 7.51465 1.83517 7.53503 1.81412 7.56049C1.79077 7.58365 1.76886 7.60825 1.74855 7.63412C1.52799 9.42525 1.63132 34.8114 1.86181 35.5339C2.57712 35.7747 11.294 35.8662 12.5915 35.6811L14.1811 34.3438C13.8652 33.6392 13.585 33.0203 13.3029 32.3854C12.4544 32.3854 11.6954 32.3854 10.9364 32.3854C9.49978 32.3675 8.76261 31.6173 8.75069 30.1565C8.74075 29.0958 8.75069 28.033 8.75069 26.9723C8.75069 25.3105 9.50774 24.5583 11.1788 24.5423C11.9001 24.5423 12.6213 24.5423 13.3645 24.5423L14.1593 22.6159L12.6671 21.0914C11.3994 19.8078 11.3854 18.8645 12.6313 17.6027C13.3069 16.9181 13.9857 16.2382 14.6679 15.5628C15.9555 14.2852 16.9232 14.2951 18.2445 15.5907L19.7308 17.0594L21.6721 16.2295C21.6721 15.4215 21.6721 14.6633 21.6721 13.905C21.686 12.4403 22.4669 11.6383 23.9353 11.6104C25.0281 11.5905 26.1209 11.5925 27.2138 11.6104C28.6762 11.6363 29.479 12.4443 29.5048 13.9031C29.5207 14.6613 29.5048 15.4215 29.5048 16.2474L31.5037 17.0853C32.0819 16.4763 32.5886 15.9091 33.133 15.3797C34.1841 14.3548 35.2015 14.3469 36.2665 15.3618C37.0811 16.1393 37.8759 16.9354 38.6509 17.75C39.704 18.8545 39.6801 19.8536 38.6072 20.9601C38.0826 21.5034 37.5501 22.0427 36.9878 22.6179L37.7826 24.5384C38.2555 24.5384 38.6827 24.5642 39.1059 24.5384C41.689 24.3393 42.6089 25.2826 42.4261 27.8101C42.3943 28.3071 42.3943 28.8057 42.4261 29.3027C42.4838 30.4252 42.4142 31.4919 41.4744 32.1506L43.3441 35.7169C45.2 35.7508 47.1651 35.7627 49.1442 35.707ZM31.9289 30.065C32.2 29.1705 32.2437 28.2223 32.0561 27.3066C31.892 26.3916 31.5358 25.5218 31.0111 24.755C30.4864 23.9881 29.8051 23.3415 29.0123 22.858C28.2194 22.3745 27.3331 22.0651 26.412 21.9503C25.4909 21.8355 24.556 21.9179 23.669 22.192C21.4833 22.8666 20.0487 24.3055 19.3235 26.4688C19.1546 26.9683 19.0552 27.5255 18.2087 27.5852L17.5391 26.9524C17.8925 24.9872 18.9531 23.2201 20.52 21.9855C22.0869 20.751 24.0514 20.1348 26.0415 20.2536C30.2777 20.4964 34.1066 23.9632 33.8285 29.3963C33.8543 29.4181 33.8761 29.454 33.9039 29.458C33.9994 29.4818 34.0976 29.4932 34.1961 29.4918C36.0261 29.3286 37.7528 29.6291 39.3622 30.5724C39.7835 30.8192 40.2405 30.7715 40.6935 30.6043V26.212C40.1292 26.212 39.6424 26.1941 39.1556 26.212C36.8328 26.3195 36.4513 25.7583 35.7777 23.9473C35.2333 22.5024 35.2869 22.0188 36.3599 20.9302L37.9495 19.3123L34.7544 16.128C34.2715 16.5957 33.892 16.9559 33.5205 17.3221C31.9547 18.8884 31.756 18.9301 29.7094 18.0863C28.1516 17.4475 27.8755 17.0276 27.8675 15.316C27.8675 14.6673 27.8496 14.0185 27.8397 13.3418H23.365C23.365 14.1379 23.365 14.8623 23.365 15.5847C23.3511 16.9082 22.9338 17.5191 21.7257 18.0127C21.5429 18.0863 21.3561 18.154 21.1733 18.2336C19.6553 18.8804 19.1864 18.7869 18.0061 17.6167C17.5213 17.137 17.0265 16.6654 16.5536 16.2057C15.5184 16.9301 13.7917 18.7192 13.432 19.4516C13.9387 19.969 14.4593 20.5143 14.9938 21.0437C15.7886 21.8278 16.0489 22.6995 15.5144 23.7403C15.3793 24.005 15.2918 24.2936 15.1786 24.5682C14.6739 25.7961 14.0997 26.1842 12.7525 26.1921C12.0332 26.1921 11.3159 26.1921 10.6344 26.1921C10.378 27.2409 10.3959 29.8699 10.6602 30.7058H11.908C14.3282 30.7058 14.5328 30.8431 15.4488 33.0482C16.0191 34.4194 15.9217 34.9288 14.8885 35.9796C14.3858 36.4931 13.8791 37.0026 13.285 37.6036C14.3699 38.7221 15.3713 39.743 16.49 40.7878C17.1278 40.1569 17.6444 39.6077 18.2068 39.1061C18.5143 38.8116 18.8724 38.5749 19.2638 38.4076C20.2772 38.0275 22.7133 39.0644 23.1166 40.0614C23.2722 40.5301 23.354 41.0203 23.359 41.5142C23.4047 42.1908 23.3908 42.8735 23.4027 43.6317C24.2412 43.6317 24.9327 43.6317 25.6222 43.6317C26.3117 43.6317 27.0548 43.6317 27.7979 43.6178C27.8973 42.555 27.9668 41.6635 27.5337 40.7719C27.295 40.2269 27.1351 39.6506 27.0588 39.0604C26.9316 38.2862 26.8919 37.5001 26.8144 36.718C21.6323 36.6224 18.5088 34.4054 17.5987 30.1724C17.714 29.7047 17.9842 29.4162 18.5068 29.46C18.9857 29.4998 19.1625 29.8421 19.2678 30.256C19.3195 30.455 19.389 30.6341 19.4665 30.8192C20.0503 32.3589 21.1946 33.62 22.6692 34.3489C24.1438 35.0777 25.8392 35.2202 27.4145 34.7477C28.2507 32.656 29.8711 30.9752 31.9289 30.065ZM35.1081 44.2924C38.9171 44.4079 41.7168 41.1082 41.7685 37.8086C41.8241 34.3676 38.9668 31.1237 35.2213 31.0859C33.4661 31.0783 31.7785 31.7631 30.5235 32.9921C29.2685 34.2211 28.5471 35.8956 28.5152 37.6534C28.4993 41.2794 31.5315 44.3939 35.122 44.2924H35.1081ZM1.72669 5.70171H5.70067V1.70154C4.34952 1.70154 3.05599 1.50253 1.72669 1.85279V5.70171Z" fill="black"/>
<path d="M40.2146 14.6454C41.2081 14.5598 41.2081 14.5598 41.6055 15.5967H45.7901C46.0504 14.8524 46.1021 12.3965 45.8755 11.093H41.5459L41.3889 12.2115L40.8385 12.6473C40.2603 12.6473 40.006 12.3806 39.8729 11.9647C39.4079 10.5059 40.1669 9.44916 41.7029 9.43523C43.0938 9.42328 44.4846 9.42328 45.8755 9.43523C47.177 9.44717 47.6499 9.84718 47.6956 11.1248C47.7513 12.6473 47.7493 14.1757 47.6956 15.7022C47.6539 16.9122 47.2227 17.2943 46.0265 17.2943C44.5045 17.3082 42.9805 17.2943 41.4565 17.2943C40.8604 17.2943 40.302 17.2226 40.0239 16.6236C39.7179 15.9629 39.6443 15.2902 40.2146 14.6454Z" fill="black"/>
<path d="M7.82476 11.091C6.73589 11.091 5.63907 11.1029 4.55616 11.091C3.87065 11.091 3.5269 10.7905 3.5269 10.2949C3.5269 9.7994 3.90046 9.46507 4.56014 9.4591C6.80543 9.43522 9.05072 9.4591 11.296 9.4591C11.3626 9.45827 11.4291 9.46359 11.4947 9.47501C11.9577 9.56457 12.3054 9.78747 12.3233 10.3069C12.3392 10.7865 12.0034 11.093 11.3914 11.103C10.2012 11.1049 9.01297 11.089 7.82476 11.091Z" fill="black"/>
<path d="M7.92211 15.5768C9.04277 15.5768 10.1654 15.5649 11.2881 15.5768C11.9756 15.5768 12.3193 15.8733 12.3253 16.3729C12.3312 16.8724 11.9557 17.2067 11.298 17.2127C9.05271 17.2366 6.80742 17.2127 4.56411 17.2127C4.49754 17.2133 4.43104 17.208 4.36541 17.1968C3.90046 17.1132 3.55472 16.8903 3.53088 16.3709C3.50902 15.8952 3.84879 15.5748 4.45482 15.5748C5.60926 15.5509 6.76569 15.5748 7.92211 15.5748V15.5768Z" fill="black"/>
<path d="M3.95013 12.6035H11.8981C12.5637 13.4871 12.3889 14.0145 11.4232 14.1498C11.0271 14.1897 10.6288 14.2023 10.231 14.1877C8.54802 14.1877 6.86702 14.1877 5.18603 14.1877C4.733 14.1877 4.28195 14.1041 3.93423 14.0722C3.40371 13.5309 3.40172 13.109 3.95013 12.6035Z" fill="black"/>
<path d="M8.98318 19.9551C8.70897 20.0407 8.38707 20.2238 8.05723 20.2338C6.90478 20.2716 5.74836 20.2616 4.59392 20.2437C3.91238 20.2337 3.55274 19.9492 3.52492 19.4636C3.4971 18.978 3.90046 18.5999 4.61577 18.5859C5.77021 18.564 6.92664 18.5561 8.07909 18.5859C8.9017 18.6058 9.08849 18.8964 8.98318 19.9551Z" fill="black"/>
<path d="M25.6341 32.7815C24.4964 32.7916 23.4011 32.3497 22.5881 31.5526C21.7751 30.7554 21.3107 29.6681 21.2965 28.5286C21.2965 26.4012 22.8325 24.2419 25.5507 24.1862C26.6746 24.1968 27.7496 24.6487 28.5445 25.4446C29.3394 26.2406 29.7908 27.3171 29.8017 28.4429C29.8126 29.5686 29.3822 30.6537 28.6029 31.465C27.8236 32.2763 26.7577 32.749 25.6341 32.7815ZM25.6162 31.1118C25.9637 31.1156 26.3085 31.0495 26.6301 30.9175C26.9517 30.7855 27.2435 30.5903 27.4884 30.3433C27.7334 30.0963 27.9263 29.8027 28.0559 29.4797C28.1855 29.1567 28.2492 28.811 28.243 28.463C28.2275 27.7609 27.9396 27.0925 27.4403 26.5994C26.9411 26.1064 26.2697 25.8276 25.5685 25.822C25.2205 25.8233 24.8762 25.8941 24.5558 26.0304C24.2355 26.1667 23.9456 26.3658 23.7031 26.6159C23.4607 26.866 23.2705 27.1621 23.1438 27.4868C23.0172 27.8115 22.9566 28.1582 22.9656 28.5067C22.9588 28.8549 23.0232 29.2008 23.1546 29.5233C23.2861 29.8457 23.4819 30.1378 23.7301 30.3817C23.9783 30.6256 24.2736 30.8162 24.5979 30.9418C24.9223 31.0673 25.2688 31.1252 25.6162 31.1118Z" fill="black"/>
<path d="M34.3133 39.4585C35.6386 37.6494 36.8646 35.9717 38.1005 34.302C38.17 34.2085 38.331 34.1846 38.4323 34.1368C39.3483 34.4772 39.551 34.8732 39.0701 35.5817C37.8289 37.4153 36.5599 39.2303 35.2631 41.0267C34.7902 41.6834 34.357 41.7093 33.7788 41.1541C32.823 40.2386 31.8931 39.2973 30.9712 38.35C30.5082 37.8723 30.4684 37.3827 30.8102 37.0385C31.152 36.6942 31.6507 36.736 32.1176 37.1977C32.8389 37.9221 33.5383 38.6624 34.3133 39.4585Z" fill="black"/>
</g>
<defs>
<clipPath id="clip0_1_1006">
<rect width="51" height="46" fill="white"/>
</clipPath>
</defs>
</svg>
