<svg width="50" height="54" viewBox="0 0 50 54" fill="none" xmlns="http://www.w3.org/2000/svg">
<g clip-path="url(#clip0_1_989)">
<path d="M17.9175 53.1147C15.4195 53.1147 13.0134 53.0973 10.6073 53.1147C9.91551 53.1147 9.38569 52.9734 9.15581 52.2447H4.31081C2.22657 52.2447 2.22656 52.2447 2.22656 50.1197V47.9446C2.22656 45.539 2.52213 44.9909 4.53194 43.662C3.21834 41.948 3.21834 40.3428 4.53194 39.1183C5.0806 38.6034 5.8036 38.3115 6.55827 38.3002C7.31295 38.2889 8.04447 38.5591 8.60847 39.0574C9.98557 40.2689 10.0118 41.8436 8.67852 43.6989L9.8958 44.4211L12.2099 42.7441C11.3692 41.8893 10.8109 40.8344 11.0124 39.5337C11.1053 38.9033 11.3707 38.3104 11.7796 37.8195C12.1884 37.3287 12.7251 36.9588 13.331 36.7501C13.937 36.5415 14.5889 36.5021 15.2159 36.6362C15.8428 36.7704 16.4206 37.0729 16.8863 37.5109C18.3948 38.9399 18.351 40.7452 16.7375 42.8376L18.1868 43.6098C18.9531 41.8197 20.2338 40.5647 22.3268 40.0818C21.0855 38.8312 20.3564 37.4718 20.6805 35.7731C20.8644 34.6876 21.4637 33.715 22.3531 33.0586C23.2221 32.4127 24.3002 32.1076 25.3813 32.2015C26.4625 32.2954 27.4709 32.7817 28.214 33.5675C29.9041 35.3837 29.7465 37.7001 27.7126 40.0535C29.6326 40.5756 31.0294 41.6936 31.7738 43.6098L33.2626 42.8398C31.6206 40.7126 31.6031 38.8638 33.1925 37.437C33.8489 36.8489 34.7067 36.5323 35.5903 36.5521C36.474 36.5719 37.3166 36.9266 37.9455 37.5436C39.4277 38.9834 39.3642 40.9105 37.7835 42.7506L40.1064 44.4189L41.3215 43.6989C39.986 41.848 40.0079 40.2667 41.3872 39.0574C41.952 38.5599 42.6837 38.2903 43.4384 38.3015C44.1932 38.3128 44.9164 38.6041 45.4659 39.1183C46.7795 40.3428 46.7795 41.9458 45.4352 43.7033C47.2962 44.5255 47.9267 46.0197 47.78 47.9446C47.7384 48.484 47.78 49.0322 47.78 49.5759C47.7954 52.4709 47.9815 52.2534 45.039 52.2447C43.7626 52.2447 42.484 52.2447 41.2077 52.2447C41.1354 52.2447 41.0632 52.2578 40.8858 52.273C40.6209 53.0386 39.9707 53.143 39.1803 53.1278C36.8487 53.0864 34.5149 53.1126 32.0935 53.1126C31.8745 53.8695 31.3162 54.0022 30.5872 53.9956C26.8653 53.9674 23.1435 53.9739 19.4216 53.9956C18.7429 53.9978 18.1781 53.913 17.9175 53.1147ZM30.2522 52.2077C30.2522 49.7434 30.3092 47.39 30.2347 45.0301C30.18 43.253 28.6737 41.861 26.8675 41.7979C25.6634 41.7566 24.4593 41.7675 23.2551 41.7979C21.2344 41.8436 19.785 43.3205 19.7522 45.3498C19.7347 46.2916 19.7522 47.2356 19.7522 48.1774V52.2034L30.2522 52.2077ZM17.992 51.3377C17.992 49.7782 18.0423 48.2926 17.9766 46.8223C17.936 46.201 17.6692 45.6157 17.2261 45.1754C16.7829 44.7352 16.1937 44.4701 15.5684 44.4297C14.8396 44.3773 14.1079 44.3773 13.379 44.4297C12.1443 44.5276 11.0802 45.5173 11.0189 46.7527C10.9445 48.26 11.0014 49.7739 11.0014 51.3312L17.992 51.3377ZM39.0227 51.3377C39.0227 49.8152 39.0555 48.397 39.0227 46.9876C38.9811 45.5434 37.893 44.4928 36.4415 44.4124C33.7092 44.2623 32.2533 44.9148 32.0847 46.5874C31.9293 48.1491 32.0518 49.7412 32.0518 51.3399L39.0227 51.3377ZM9.24777 50.4677C9.24777 49.7564 9.21712 49.1431 9.24777 48.5362C9.4667 44.8843 8.03926 45.2737 5.74484 45.2737C5.63549 45.2714 5.52621 45.2802 5.41863 45.2998C4.67644 45.452 4.05247 46.0175 4.01307 46.7701C3.94958 47.9816 3.99556 49.2018 3.99556 50.4677H9.24777ZM40.7742 50.4394H46.0286C46.0286 49.2518 46.0592 48.1339 46.0286 47.0202C45.9914 46.0045 45.3126 45.3476 44.2946 45.2802C43.7112 45.2485 43.1265 45.2485 42.5431 45.2802C41.4682 45.3367 40.8136 46.0001 40.7917 47.092C40.7698 48.1839 40.7676 49.2627 40.7676 50.4372L40.7742 50.4394ZM24.9453 39.1857C25.4637 39.1958 25.9735 39.0532 26.4105 38.776C26.8476 38.4988 27.1923 38.0993 27.4012 37.6278C27.6101 37.1564 27.6739 36.634 27.5846 36.1266C27.4953 35.6191 27.2569 35.1493 26.8993 34.7763C26.5417 34.4032 26.081 34.1436 25.5752 34.0301C25.0695 33.9167 24.5412 33.9545 24.057 34.1388C23.5728 34.323 23.1543 34.6455 22.8542 35.0656C22.5541 35.4857 22.3858 35.9846 22.3706 36.4995C22.3622 37.1925 22.6267 37.8613 23.1077 38.3632C23.5887 38.865 24.2482 39.1602 24.9453 39.1857ZM14.5328 38.3157C14.1853 38.3058 13.8426 38.3988 13.5485 38.583C13.2544 38.7673 13.0221 39.0343 12.8813 39.35C12.7404 39.6658 12.6974 40.0161 12.7576 40.3563C12.8178 40.6965 12.9785 41.0112 13.2194 41.2603C13.4602 41.5095 13.7702 41.6817 14.11 41.7552C14.4497 41.8287 14.8037 41.8001 15.127 41.673C15.4503 41.5459 15.7282 41.3261 15.9253 41.0416C16.1224 40.7571 16.2299 40.4207 16.2339 40.0753C16.2327 39.6219 16.0557 39.1863 15.7398 38.859C15.4238 38.5318 14.9932 38.338 14.5372 38.3179L14.5328 38.3157ZM37.2581 40.0122C37.2495 39.667 37.1378 39.332 36.937 39.0501C36.7363 38.7682 36.4556 38.552 36.1307 38.429C35.8059 38.306 35.4516 38.2819 35.1129 38.3596C34.7741 38.4374 34.4664 38.6135 34.2288 38.8656C33.9911 39.1177 33.8344 39.4343 33.7785 39.7752C33.7226 40.116 33.77 40.4657 33.9148 40.7797C34.0596 41.0937 34.2951 41.3578 34.5915 41.5383C34.8878 41.7189 35.2315 41.8077 35.5789 41.7936C36.0361 41.7695 36.4664 41.5711 36.7801 41.2396C37.0937 40.9082 37.2665 40.4693 37.2625 40.0144L37.2581 40.0122ZM6.58115 40.0622C6.32192 40.0648 6.06926 40.1436 5.85497 40.2885C5.64069 40.4335 5.47435 40.6382 5.37694 40.8768C5.27952 41.1155 5.2554 41.3775 5.30756 41.6298C5.35972 41.8821 5.48584 42.1134 5.67006 42.2946C5.85428 42.4758 6.08837 42.5988 6.34281 42.6481C6.59726 42.6974 6.8607 42.6708 7.09997 42.5717C7.33923 42.4725 7.54362 42.3053 7.68739 42.091C7.83116 41.8766 7.90789 41.6248 7.9079 41.3673C7.90275 41.0215 7.76143 40.6914 7.51424 40.4478C7.26705 40.2043 6.93366 40.0667 6.58553 40.0644L6.58115 40.0622ZM43.4101 42.6614C43.6699 42.6614 43.9239 42.5849 44.1399 42.4415C44.3559 42.2981 44.5243 42.0943 44.6237 41.8558C44.7232 41.6174 44.7492 41.3549 44.6985 41.1018C44.6478 40.8486 44.5227 40.6161 44.339 40.4336C44.1553 40.2511 43.9212 40.1268 43.6664 40.0765C43.4116 40.0261 43.1475 40.0519 42.9074 40.1507C42.6674 40.2495 42.4622 40.4168 42.3179 40.6314C42.1736 40.846 42.0965 41.0983 42.0965 41.3564C42.1011 41.7021 42.2415 42.0323 42.4877 42.2765C42.734 42.5208 43.0666 42.6597 43.4145 42.6636L43.4101 42.6614Z" fill="black"/>
<path d="M15.5312 5.25497L20.8578 3.51492C20.8578 3.01466 20.8425 2.44046 20.8578 1.86624C20.8994 0.691717 21.5277 0.0457353 22.6925 0.0261598C24.225 5.91921e-05 25.7575 0.00440929 27.2901 0.0261598C28.4679 0.0413852 29.1094 0.678664 29.1576 1.83579C29.1816 2.41218 29.1576 2.99076 29.1576 3.5628L34.5411 5.25714C34.8498 4.82213 35.1651 4.33493 35.5154 3.88034C36.2072 2.9777 37.0479 2.81022 37.9915 3.44533C39.2832 4.3255 40.5538 5.23757 41.8032 6.18154C42.7139 6.86886 42.819 7.79108 42.1731 8.76768C41.8535 9.24619 41.5164 9.71164 41.2099 10.1467C42.3242 11.6453 43.3992 13.0939 44.5311 14.6207C45.0434 14.4598 45.6257 14.2662 46.2103 14.0987C47.2349 13.8029 48.0493 14.1596 48.3996 15.1449C48.9338 16.6443 49.4293 18.1559 49.8862 19.6799C50.2102 20.7479 49.7876 21.5331 48.7411 21.9289C48.1697 22.1464 47.5764 22.3139 47.0357 22.4901V28.0365C47.5808 28.2061 48.1697 28.3693 48.7433 28.5759C49.7001 28.9195 50.1971 29.6634 49.9322 30.6117C49.4943 32.1734 48.9426 33.7003 48.3996 35.3468L46.7576 34.8139C47.2546 33.2609 47.7231 31.7928 48.2288 30.2137C47.6706 30.0484 47.1583 29.9092 46.6525 29.7439C45.5075 29.3698 45.1638 28.6998 45.2251 27.521C45.3017 26.0045 45.3017 24.4851 45.2251 22.9686C45.1682 21.8419 45.49 21.1938 46.5759 20.7935C47.1145 20.5978 47.6706 20.4216 48.2814 20.2084L46.7598 15.7757C46.1621 15.9562 45.652 16.1193 45.1353 16.2629C44.0034 16.5739 43.4036 16.289 42.727 15.3146C41.8513 14.0313 40.9325 12.7741 39.9707 11.543C39.281 10.6556 39.2066 9.9422 39.859 8.98083C40.1633 8.54582 40.4786 8.09777 40.8442 7.57793L36.9297 4.82213C36.5772 5.33109 36.2729 5.80961 35.9226 6.27072C35.2658 7.14074 34.6484 7.30388 33.6457 6.95587C32.0694 6.41211 30.4865 5.88573 28.8949 5.39199C27.8308 5.05921 27.4214 4.572 27.4039 3.43445C27.4039 2.92984 27.4039 2.42305 27.4039 1.82708H22.5874C22.5874 2.38172 22.5874 2.94506 22.5874 3.51057C22.5699 4.55024 22.1955 5.03312 21.23 5.3485C19.5734 5.87922 17.9183 6.41646 16.2646 6.96022C15.3494 7.26038 14.778 7.11464 14.1365 6.34467C13.7666 5.90966 13.4338 5.42245 12.9828 4.82213L9.14266 7.66927C9.53455 8.18475 9.87609 8.60673 10.187 9.04827C10.7496 9.84651 10.7212 10.5904 10.1695 11.3451C9.14779 12.7473 8.13339 14.1582 7.1263 15.5778C6.60961 16.3086 6.05352 16.5696 5.1559 16.3673C4.52975 16.2238 3.91673 16.0258 3.23366 15.8322L1.75586 20.3216C2.37544 20.5238 2.95343 20.6935 3.52047 20.8979C4.48597 21.2481 4.82094 21.9006 4.78372 22.9164C4.7268 24.5042 4.72899 26.0941 4.78372 27.6819C4.81437 28.6455 4.50786 29.2828 3.59928 29.6395C3.00378 29.8787 2.38858 30.0745 1.73397 30.3094C2.24408 31.8319 2.72354 33.2631 3.23804 34.7943L1.60261 35.3729C1.06404 33.7155 0.507946 32.156 0.0700789 30.5617C-0.179505 29.6634 0.299957 28.9521 1.21729 28.6041C1.82154 28.3736 2.44331 28.1952 2.96875 28.0212V22.4922C2.53089 22.3443 2.03611 22.1638 1.52599 22.0007C0.133575 21.5526 -0.238612 20.8479 0.212391 19.432C0.626175 18.1269 1.04871 16.8219 1.48876 15.5169C1.98355 14.0618 2.67102 13.7268 4.15977 14.1879C4.59763 14.3271 5.05519 14.4772 5.51933 14.6229C6.614 13.1004 7.67802 11.6235 8.80333 10.0771C8.5231 9.6899 8.19907 9.25706 7.89256 8.81552C7.18322 7.7976 7.28393 6.87756 8.24504 6.15544C9.46669 5.23757 10.7073 4.34581 11.9669 3.48014C12.9718 2.79283 13.7731 2.94289 14.5241 3.90209C14.8744 4.35668 15.2006 4.82648 15.5312 5.25497Z" fill="black"/>
<path d="M31.1739 19.2122H18.8677V34.7508H17.1294V28.789H8.39172V36.5082H6.70375C6.65758 36.2866 6.62685 36.062 6.61179 35.8361C6.61179 33.3334 6.61179 30.8306 6.61179 28.3279C6.61179 27.1947 6.80881 27.0054 7.96478 27.0033C10.6292 27.0033 13.2936 27.0033 15.9558 27.0033H17.1228V24.3105C17.1228 22.4248 17.1228 20.539 17.1228 18.6554C17.1228 17.6636 17.3548 17.4352 18.3532 17.433C22.7683 17.4229 27.1842 17.4229 31.6008 17.433C32.6473 17.433 32.8728 17.6679 32.8772 18.725C32.8772 21.0806 32.8772 23.4384 32.8772 25.7961V26.9532C33.2954 26.9728 33.6479 27.0033 33.9981 27.0054C36.6626 27.0054 39.327 27.0054 41.9914 27.0054C43.1912 27.0054 43.3838 27.199 43.386 28.3975C43.386 31.075 43.386 33.7546 43.386 36.5039H41.6696V28.8216H32.8947V34.7791H31.1652L31.1739 19.2122Z" fill="black"/>
<path d="M9.13609 25.2328H7.47656C7.61449 19.5776 9.83011 15.01 14.2482 11.53C16.9388 9.41575 20.2019 8.14489 23.6219 7.87918C27.042 7.61346 30.4643 8.36491 33.453 10.0379C39.3182 13.344 42.2103 18.4727 42.565 25.198H40.877C40.3757 14.9948 32.146 9.42234 24.676 9.58112C17.6022 9.7225 9.66372 15.0492 9.13609 25.2328Z" fill="black"/>
<path d="M23.601 24.341H21.1249V21.8311H23.601V24.341Z" fill="black"/>
<path d="M26.3705 21.8201H28.8686V24.3214H26.3705V21.8201Z" fill="black"/>
<path d="M21.1139 29.548V27.0793H23.6142V29.548H21.1139Z" fill="black"/>
<path d="M28.8861 27.0642V29.5264H26.3902V27.0642H28.8861Z" fill="black"/>
<path d="M11.8093 31.4055V33.0172H10.1673V31.4055H11.8093Z" fill="black"/>
<path d="M15.2969 33.0717H13.7009V31.4296H15.2969V33.0717Z" fill="black"/>
<path d="M36.3145 33.039H34.6944V31.4447H36.3145V33.039Z" fill="black"/>
<path d="M39.8481 31.4316V33.0303H38.1951V31.4316H39.8481Z" fill="black"/>
</g>
<defs>
<clipPath id="clip0_1_989">
<rect width="50" height="54" fill="white"/>
</clipPath>
</defs>
</svg>
