<svg width="25" height="17" viewBox="0 0 25 17" fill="none" xmlns="http://www.w3.org/2000/svg">
<g clip-path="url(#clip0_1_748)">
<path d="M16.0143 3.03436C13.281 3.03436 10.547 3.03664 7.81376 3.02981C7.5552 3.02905 7.41303 3.06851 7.30367 3.34472C6.93106 4.28719 5.98977 4.87072 4.95553 4.85934C3.95565 4.84872 3.04014 4.24014 2.67378 3.30223C2.58629 3.07762 2.47381 3.02374 2.25196 3.02981C1.74499 3.04271 1.23646 3.0374 0.729492 3.03285C0.272518 3.02981 -0.00557199 2.79154 -0.000103928 2.42123C0.00536414 2.05396 0.283454 1.82935 0.746678 1.82631C1.24115 1.82252 1.7364 1.81569 2.23009 1.82935C2.46599 1.83618 2.58629 1.78382 2.68003 1.54099C3.04014 0.612188 3.96893 0.00664377 4.97271 -0.000185668C6.00305 -0.00701511 6.94512 0.58487 7.31148 1.52809C7.41381 1.79216 7.54505 1.82935 7.79033 1.82935C13.192 1.82403 18.5937 1.82555 23.9961 1.82555C24.1 1.82555 24.2047 1.82328 24.3086 1.82631C24.7343 1.83921 25.0054 2.07976 24.9999 2.43793C24.9944 2.79609 24.7257 3.03209 24.2922 3.0336C22.6393 3.0374 20.9863 3.03512 19.3326 3.03512C18.2273 3.03436 17.1204 3.03436 16.0143 3.03436ZM4.9899 3.64067C5.6859 3.64446 6.25536 3.09128 6.24833 2.4182C6.2413 1.75878 5.68512 1.22228 5.00552 1.21925C4.31029 1.21621 3.74005 1.7694 3.7463 2.44096C3.75255 3.09735 4.31186 3.63687 4.9899 3.64067Z" fill="black"/>
<path d="M10.0472 15.1786C9.91048 15.1786 9.76831 15.1786 9.62614 15.1786C6.72182 15.1786 3.81749 15.1786 0.913167 15.1786C0.782715 15.1786 0.6507 15.1877 0.523372 15.168C0.207787 15.1202 -0.0203096 14.8546 0.00234377 14.5541C0.0257783 14.24 0.204662 14.0389 0.526497 13.9804C0.653044 13.9577 0.785839 13.9698 0.916292 13.9698C3.82062 13.9691 6.72494 13.9698 9.62926 13.9698C9.77065 13.9698 9.91204 13.9698 10.0612 13.9698C10.2729 13.359 10.6088 12.8612 11.1627 12.5212C12.4664 11.7207 14.1842 12.2314 14.7833 13.6223C14.9059 13.9076 15.0544 13.9774 15.3535 13.9767C18.2704 13.9653 21.188 13.9698 24.1056 13.9706C24.236 13.9706 24.3704 13.9569 24.4946 13.9842C24.8117 14.0541 24.9961 14.2582 24.9961 14.5754C24.9953 14.8918 24.811 15.0959 24.4938 15.1657C24.3696 15.1931 24.2345 15.1794 24.1048 15.1794C21.1614 15.1802 18.218 15.1809 15.2747 15.1779C15.07 15.1779 14.9309 15.1893 14.8317 15.4253C14.4052 16.4451 13.5163 17.0416 12.4508 16.9991C11.3455 16.955 10.5729 16.411 10.1526 15.4093C10.123 15.338 10.0894 15.2697 10.0472 15.1786ZM13.7467 14.5868C13.7522 13.9243 13.2085 13.3757 12.5328 13.3635C11.8313 13.3506 11.2595 13.8864 11.2541 14.561C11.2486 15.2242 11.7923 15.772 12.468 15.7849C13.1687 15.7978 13.7413 15.2613 13.7467 14.5868Z" fill="black"/>
<path d="M9.01137 7.89782C11.7446 7.89782 14.4779 7.89554 17.2119 7.90161C17.4595 7.90237 17.5869 7.85988 17.6892 7.59808C18.0548 6.65865 19.0023 6.06525 20.0303 6.07208C21.0349 6.07891 21.9644 6.68445 22.3206 7.61478C22.4152 7.86215 22.5402 7.90692 22.7729 7.90161C23.2799 7.88947 23.7884 7.89326 24.2954 7.89934C24.7289 7.90465 24.9977 8.13761 25.0008 8.49653C25.0047 8.8547 24.7336 9.0998 24.3071 9.10587C23.7736 9.1127 23.2401 9.11422 22.7065 9.10435C22.5112 9.10056 22.4144 9.15368 22.3378 9.34414C21.9394 10.3352 21.045 10.9331 20.003 10.9331C18.9633 10.9331 18.0501 10.3344 17.6681 9.3449C17.5595 9.06413 17.3822 9.10815 17.1838 9.10815C11.7688 9.10739 6.35467 9.10739 0.939724 9.10739C0.809272 9.10739 0.677257 9.11953 0.549929 9.0998C0.209347 9.04668 0.021089 8.84028 0.00312246 8.50791C-0.0125006 8.2059 0.220283 7.95018 0.538212 7.90617C0.653041 7.89023 0.771776 7.89858 0.888949 7.89858C3.59642 7.89706 6.3039 7.89782 9.01137 7.89782ZM19.9889 7.29151C19.3109 7.29607 18.7555 7.83711 18.7516 8.49577C18.7477 9.16809 19.3195 9.71824 20.0155 9.71217C20.6912 9.70686 21.2505 9.16278 21.2536 8.50716C21.2567 7.83559 20.6857 7.2862 19.9889 7.29151Z" fill="black"/>
</g>
<defs>
<clipPath id="clip0_1_748">
<rect width="25" height="17" fill="white"/>
</clipPath>
</defs>
</svg>
