<svg width="48" height="50" viewBox="0 0 48 50" fill="none" xmlns="http://www.w3.org/2000/svg">
<g clip-path="url(#clip0_57_1536)">
<path d="M23.4582 24.9873C25.2391 23.7108 27.2676 23.4824 29.4256 23.621C29.5322 22.2937 30.3398 21.5247 31.2922 20.8182C32.7074 19.772 34.0692 18.6516 35.4672 17.5801C37.0005 16.409 38.4576 16.5456 39.6347 18.0641C42.2429 21.4239 44.8237 24.807 47.3772 28.2136C48.3563 29.5194 48.1715 31.0711 46.9049 32.1173C45.2002 33.5246 43.444 34.8674 41.6879 36.2161C41.319 36.5035 40.8825 36.6861 40.4227 36.7454C39.9629 36.8047 39.4959 36.7386 39.069 36.5538C38.8633 36.4757 38.6614 36.3918 38.5205 36.3371L35.7129 39.2649C36.2253 40.2271 36.5491 41.3085 35.9872 42.4288C35.4253 43.5492 34.4025 43.9434 33.155 43.8771C32.6255 45.1145 31.7893 45.9694 30.2979 45.9519C29.7627 47.5485 28.7532 48.4482 26.959 48.1418C26.8181 48.3487 26.6638 48.5907 26.498 48.823C26.2796 49.1444 25.9979 49.4154 25.671 49.6185C25.3442 49.8216 24.9794 49.9522 24.6002 50.0021C24.2211 50.0519 23.836 50.0198 23.4697 49.9078C23.1034 49.7958 22.764 49.6065 22.4735 49.3519C22.0582 49.0065 21.6716 48.62 21.2869 48.2667C19.5936 49.0806 18.1156 49.0982 17.0127 46.7931C15.6528 46.6291 14.8471 45.7489 14.409 44.4314C13.0662 44.2362 12.2701 43.3852 11.8644 42.1497C9.42637 41.5524 8.90257 39.5499 9.51016 37.8849C9.33874 37.6273 9.14827 37.3365 8.93876 37.0086C7.63595 37.3989 6.59027 36.9325 5.59983 36.1088C4.26655 35.0021 2.88186 33.9618 1.52001 32.9019C1.29052 32.7279 1.07171 32.5395 0.86481 32.3378C-0.0875334 31.3775 -0.278026 30.0191 0.459087 28.8675C0.903428 28.1939 1.38484 27.5468 1.90095 26.9293C2.05553 26.7196 2.28273 26.5786 2.53573 26.5354C2.78874 26.4922 3.04827 26.55 3.26087 26.6971C3.678 27.0016 3.78085 27.5656 3.45134 28.0809C3.12183 28.5962 2.67427 29.1095 2.29714 29.6424C1.83239 30.2884 1.85141 30.6495 2.46091 31.1355C4.06212 32.4133 5.67733 33.6742 7.30647 34.9182C7.91407 35.3827 8.26833 35.2793 8.81878 34.559C10.4454 32.4354 12.0669 30.3086 13.6834 28.1785L16.0851 25.0263C16.8013 24.0894 16.7823 23.8084 15.8947 23.1116C14.409 21.9405 12.917 20.7824 11.4187 19.6373C10.6568 19.0517 10.3539 19.0927 9.74634 19.8598C9.22636 20.5176 8.74067 21.2007 8.22259 21.8546C7.75975 22.4284 7.18643 22.528 6.73883 22.1493C6.29123 21.7706 6.27413 21.228 6.68745 20.6659C7.2779 19.8598 7.87595 19.0576 8.51973 18.2964C9.57683 17.0531 11.0511 16.8852 12.352 17.867C13.9843 19.1044 15.5899 20.377 17.2013 21.6477C18.1727 22.4148 18.3936 22.8441 18.5593 24.2221L23.4582 24.9873ZM25.1591 46.9414C24.8848 46.6682 24.6543 46.3988 24.3858 46.1744C24.2713 46.0853 24.176 45.973 24.1058 45.8446C24.0356 45.7161 23.992 45.5742 23.9777 45.4276C23.9634 45.2811 23.9788 45.1332 24.0227 44.993C24.0667 44.8528 24.1384 44.7234 24.2334 44.6129C24.6296 44.2108 25.1286 44.2225 25.6734 44.6793C25.9438 44.9057 26.1876 45.1633 26.4467 45.4014C26.6491 45.6083 26.8661 45.7994 27.0961 45.9733C27.4295 46.1997 27.7894 46.3188 28.1247 45.9558C28.4599 45.5927 28.4446 45.216 28.1247 44.8198C27.9247 44.57 27.6866 44.3514 27.4618 44.121C26.8371 43.475 26.1914 42.8465 25.5877 42.1692C25.5001 42.0855 25.4297 41.9847 25.3806 41.8728C25.3315 41.7609 25.3046 41.6401 25.3016 41.5174C25.2986 41.3948 25.3195 41.2727 25.363 41.1584C25.4066 41.0441 25.4719 40.9398 25.5552 40.8517C25.9 40.4614 26.4676 40.4262 26.9247 40.7873C27.0712 40.9123 27.2093 41.0473 27.338 41.1913C28.079 41.9506 28.8142 42.7138 29.5589 43.4672C30.0884 44.0039 30.5665 44.0781 30.9627 43.7073C31.3588 43.3364 31.3131 42.8543 30.7874 42.2785C30.6369 42.1126 30.4731 41.9565 30.315 41.7984C29.4541 40.9318 28.5875 40.0729 27.7342 39.1985C27.5319 38.9951 27.3547 38.767 27.2066 38.5193C26.9762 38.1289 27.1057 37.7386 27.3971 37.4555C27.6885 37.1725 28.0466 37.0105 28.4313 37.2506C28.7001 37.4195 28.9487 37.62 29.1722 37.8479C30.2846 38.9604 31.3874 40.0847 32.4921 41.207C32.9664 41.691 33.4749 42.0306 34.1397 41.6754C34.4616 41.1347 34.3149 40.6839 34.014 40.2759C33.8169 40.021 33.5955 39.787 33.3531 39.5772C31.3874 37.7789 29.4192 35.9858 27.4485 34.1979C26.7647 33.5734 26.0848 32.9449 25.3534 32.2754C24.6429 32.6345 23.9782 33.0093 23.283 33.3099C22.7344 33.548 22.1573 33.8037 21.5687 33.8583C20.3288 33.9735 19.2374 33.5538 18.5098 32.4628C17.8013 31.401 17.7574 30.2318 18.4088 29.1564C18.8317 28.4557 19.466 27.8838 20.0316 27.2807C20.3167 27.0223 20.6197 26.7855 20.9383 26.5722L17.6699 26.09C15.1938 29.3301 12.8072 32.4764 10.3806 35.654L10.9635 36.345L11.8015 35.5876C12.3977 35.0509 12.9691 34.481 13.5938 33.9832C15.1804 32.7185 17.3289 33.3138 17.9613 35.1836C18.0573 35.5406 18.1299 35.9038 18.1784 36.2708C19.3212 36.6904 19.9879 37.5805 20.245 38.7867C20.63 38.8506 20.998 38.9954 21.3258 39.2121C21.6536 39.4288 21.9341 39.7125 22.1497 40.0456C22.6868 40.8712 22.6239 41.7574 22.3706 42.6337C23.0696 43.1803 23.5134 43.8146 23.6163 44.6812C23.7191 45.5478 23.2011 46.1997 22.7592 46.9297L23.4334 47.5367C24.2486 48.3019 24.7591 48.1438 25.1591 46.9414ZM46.1106 29.9742C45.9881 29.7032 45.8454 29.4422 45.684 29.1935C43.2155 25.9404 40.7394 22.6874 38.2557 19.4343C37.6405 18.6321 37.3548 18.6126 36.5129 19.2586C35.0438 20.3894 33.5835 21.5267 32.1321 22.6704C31.2274 23.3809 31.2046 23.6464 31.915 24.5793L35.8063 29.7283C36.9377 31.2116 38.0633 32.6989 39.2023 34.1765C39.7147 34.842 40.0785 34.9474 40.6442 34.5161C42.2974 33.2591 43.9317 31.9787 45.5602 30.6827C45.7792 30.5148 45.9011 30.2299 46.1011 29.9742H46.1106ZM37.0424 34.6586C37.0249 34.6029 37.0033 34.5488 36.9776 34.4966C34.8387 31.6703 32.7054 28.8363 30.5531 26.0295C30.4016 25.8247 30.1808 25.6855 29.9341 25.6392C28.2199 25.4986 26.4904 25.4069 24.9419 26.3789C23.6442 27.1922 22.3744 28.0471 21.1326 28.9436C20.7221 29.2481 20.3804 29.6395 20.1307 30.0913C19.6679 30.9306 20.1193 31.7816 21.0583 31.8479C21.4968 31.8621 21.9326 31.7733 22.3325 31.5884C23.1759 31.2158 23.9986 30.7962 24.7972 30.3314C25.4333 29.9625 25.94 30.064 26.4219 30.5675C26.5324 30.6846 26.6581 30.7842 26.7762 30.8935C28.9043 32.8453 31.0312 34.7972 33.1569 36.749C33.5264 37.0886 33.9092 37.4126 34.2692 37.7249C35.4253 36.8466 36.4329 35.9643 37.0329 34.6644L37.0424 34.6586ZM16.1651 36.22C16.2166 35.693 15.847 35.2832 15.4032 35.3456C15.1231 35.3855 14.8593 35.5044 14.6414 35.6891C13.5811 36.6195 12.5348 37.5674 11.5025 38.5329C11.1101 38.8979 11.1215 39.3508 11.4396 39.7392C11.7577 40.1276 12.0701 40.1413 12.5043 39.7489C13.6224 38.7379 14.7252 37.7093 15.8261 36.6768C15.952 36.5409 16.0625 36.391 16.1556 36.2298L16.1651 36.22ZM18.3289 39.181C17.8794 38.1504 17.4261 37.9591 16.7785 38.5154C15.7861 39.3664 14.8509 40.2837 13.8986 41.1816C13.8289 41.2767 13.7778 41.3848 13.7481 41.4997C14.2662 42.5674 14.5442 42.6318 15.3633 41.8999C15.8394 41.4744 16.3156 41.0508 16.7861 40.6195C17.2908 40.1569 17.7955 39.6787 18.3193 39.1907L18.3289 39.181ZM17.0585 44.7983C17.2393 44.7476 17.4128 44.6728 17.5746 44.5758C18.527 43.719 19.4793 42.8582 20.4069 41.9818C20.5262 41.87 20.5998 41.7159 20.6125 41.5507C20.6252 41.3854 20.5762 41.2214 20.4755 41.0918C20.3882 40.9525 20.2545 40.8505 20.0992 40.8048C19.9439 40.7592 19.7777 40.7731 19.6317 40.8439C19.3986 40.9437 19.185 41.0859 19.0012 41.2636C18.2794 41.896 17.567 42.5401 16.8527 43.1842C16.7346 43.2896 16.5785 43.3989 16.5385 43.5374C16.4718 43.7658 16.3975 44.0625 16.4871 44.2518C16.5842 44.4899 16.8585 44.6344 17.0489 44.8081L17.0585 44.7983ZM21.7973 44.9642C21.1935 44.2499 21.1097 44.1835 20.704 44.486C20.1445 44.9063 19.6225 45.3766 19.1441 45.8913C18.8412 46.2193 19.1002 46.7053 19.5459 46.7014C19.7351 46.7045 19.9201 46.6449 20.0735 46.5316C20.6373 46.0397 21.1859 45.5264 21.7878 44.974L21.7973 44.9642Z" fill="white"/>
<path d="M12.9235 10.5848C12.8625 4.99865 17.4033 0.00782866 23.2887 2.13413e-05C25.3463 -0.00420002 27.3587 0.617913 29.0706 1.78744C30.7826 2.95696 32.117 4.6212 32.9047 6.56905C33.6923 8.5169 33.8976 10.6606 33.4946 12.7282C33.0915 14.7958 32.0983 16.6942 30.6409 18.1824C29.1834 19.6707 27.3275 20.6819 25.3084 21.0877C23.2894 21.4935 21.1982 21.2756 19.3002 20.4616C17.4021 19.6477 15.7827 18.2744 14.6474 16.516C13.5122 14.7576 12.9121 12.6932 12.9235 10.5848ZM14.8434 10.6238C14.8358 11.7652 15.0495 12.8967 15.4722 13.9527C15.8948 15.0087 16.518 15.9681 17.3055 16.7753C18.093 17.5824 19.0291 18.2212 20.0595 18.6546C21.0899 19.0879 22.194 19.3072 23.3078 19.2997C27.8219 19.2997 31.7113 15.6966 31.7113 10.6629C31.7113 5.54126 27.7514 1.98698 23.2507 1.97527C18.6432 1.96551 14.8548 5.89064 14.8434 10.6238Z" fill="white"/>
<path d="M5.94871 24.3744C5.95749 24.5028 5.94086 24.6317 5.89979 24.7533C5.85872 24.8749 5.79407 24.9868 5.70974 25.0821C5.6254 25.1775 5.52309 25.2544 5.40901 25.3082C5.29493 25.362 5.17142 25.3916 5.04589 25.3952C4.79331 25.4053 4.54719 25.3122 4.36162 25.1363C4.17606 24.9604 4.06624 24.7162 4.05639 24.4574C4.04654 24.1985 4.13744 23.9463 4.30908 23.7561C4.48071 23.566 4.71905 23.4535 4.97162 23.4434C5.09657 23.4337 5.22211 23.4506 5.34038 23.493C5.45865 23.5355 5.56705 23.6025 5.65882 23.6899C5.75058 23.7774 5.82372 23.8833 5.87361 24.0011C5.92349 24.1189 5.94906 24.246 5.94871 24.3744Z" fill="white"/>
<path d="M24.0998 14.8945C24.0998 15.3063 24.1245 15.6635 24.0998 16.0148C24.0426 16.7233 23.7398 17.0473 23.195 17.0219C22.6808 17.0005 22.4465 16.7097 22.4122 16.0168C22.3932 15.6615 22.4122 15.3063 22.4122 14.9296C22.113 14.7971 21.8217 14.6465 21.5399 14.4787C21.2138 14.2823 20.9163 14.0398 20.6561 13.7585C20.0161 12.9895 20.2428 12.3141 21.2999 11.9238C21.5448 12.0922 21.7748 12.2823 21.9875 12.4917C22.3474 12.8958 22.8008 12.9719 23.2865 12.9524C24.0483 12.9211 24.2026 12.6986 24.1188 11.7208C23.4217 11.4827 22.6732 11.2504 21.9437 10.9693C20.8332 10.5438 20.2885 9.6655 20.3799 8.47684C20.4025 8.06911 20.5238 7.67357 20.733 7.32597C20.9421 6.97837 21.2326 6.68967 21.578 6.48597C21.8161 6.33763 22.0827 6.23223 22.3856 6.08389C22.4027 5.71109 22.4046 5.32464 22.4427 4.94403C22.4941 4.45217 22.8065 4.13598 23.2179 4.11646C23.6293 4.09694 23.9665 4.38971 24.0655 4.87766C24.0945 5.10294 24.1111 5.32972 24.115 5.55691C24.1303 5.75209 24.1512 5.93556 24.1721 6.14246C24.4464 6.23883 24.7116 6.36033 24.9645 6.50549C25.2498 6.70208 25.5064 6.93934 25.7264 7.2101C26.0045 7.56338 25.9168 7.95765 25.6444 8.2797C25.3721 8.60175 25.0178 8.70715 24.6312 8.4378C24.176 8.11965 23.6921 7.8991 23.1207 7.96937C22.7798 8.01231 22.5037 8.13331 22.437 8.52368C22.3646 8.95503 22.5874 9.21854 22.9512 9.3376C23.4636 9.50155 23.9893 9.62257 24.5112 9.75334C25.4978 10.0051 26.1454 10.5907 26.2692 11.6622C26.4063 12.8333 26.0273 13.7741 25.0407 14.4163C24.774 14.5802 24.4788 14.7012 24.0998 14.8945Z" fill="white"/>
</g>
<defs>
<clipPath id="clip0_57_1536">
<rect width="48" height="50" fill="white"/>
</clipPath>
</defs>
</svg>
