<svg width="47" height="47" viewBox="0 0 47 47" fill="none" xmlns="http://www.w3.org/2000/svg">
<g clip-path="url(#clip0_57_1542)">
<path d="M22.7852 45.4379C22.7852 43.3245 22.7852 41.3085 22.7852 39.2907C22.7699 39.0158 22.7817 38.74 22.8204 38.4674C22.8947 38.0998 23.1432 37.8021 23.5216 37.8903C23.7979 37.9883 24.0239 38.1904 24.1505 38.4527C24.2618 38.6787 24.2024 38.993 24.2024 39.2668C24.2024 41.2883 24.2024 43.3098 24.2024 45.4967L39.414 42.0638V30.1645C38.5328 30.3483 37.6926 30.5321 36.8522 30.7011C36.7335 30.7269 36.6184 30.7857 36.4979 30.804C36.0118 30.8794 35.6408 30.668 35.5703 30.2729C35.498 29.8172 35.7559 29.5746 36.1603 29.479C37.3605 29.1979 38.5718 28.9277 39.7665 28.6649C41.2098 28.3451 42.6567 28.0364 44.0999 27.7148C44.3092 27.6593 44.5154 27.593 44.7177 27.5163L39.7683 22.6078L25.1133 25.9304L30.0756 30.8224C30.8176 30.6644 31.7768 30.4751 32.7321 30.2435C33.1996 30.1314 33.5353 30.2252 33.6893 30.6846C33.8302 31.1091 33.5854 31.4197 32.9992 31.5704C31.9827 31.8166 30.9587 32.0225 29.9384 32.2742C29.4282 32.3992 29.1276 32.1364 28.8123 31.8221C27.5496 30.5602 26.282 29.3038 25.0094 28.053C24.7979 27.8435 24.5716 27.6487 24.2024 27.3179V28.3856C24.2024 30.5302 24.2024 32.6749 24.2024 34.8177C24.2024 35.6465 23.9798 35.992 23.4901 35.9901C23.0004 35.9883 22.7889 35.6483 22.787 34.8103C22.787 32.6675 22.787 30.5229 22.787 28.3782C22.787 28.0879 22.763 27.7975 22.7426 27.3583C22.4123 27.6615 22.186 27.8563 21.9763 28.064C20.7279 29.2971 19.4721 30.521 18.244 31.7725C17.8173 32.2081 17.4222 32.3624 16.7785 32.2099C13.7511 31.495 10.7087 30.85 7.59404 30.1627V42.0455L10.9091 42.8081C11.2122 42.8622 11.5119 42.9334 11.8069 43.0213C12.1983 43.1555 12.4414 43.4311 12.3189 43.8666C12.2113 44.2526 11.8959 44.3775 11.5212 44.3169C11.0333 44.2379 10.551 44.1331 10.0687 44.0284C9.3489 43.8685 8.63106 43.6884 7.90944 43.5267C6.50701 43.2124 6.12669 42.7475 6.11741 41.2993C6.11741 40.1654 6.11741 39.0334 6.11741 37.8995V29.83L1.69125 28.823C1.33136 28.7421 0.960335 28.6962 0.609727 28.5859C-0.0321263 28.3838 -0.173111 27.9078 0.238714 27.384C0.380533 27.2224 0.531653 27.069 0.691339 26.9246C2.33122 25.3 3.9915 23.6957 5.59984 22.0399C6.13787 21.4558 6.8549 21.0631 7.64042 20.9226C8.87775 20.6947 10.0965 20.3712 11.5138 20.0552C10.9573 19.4928 10.4861 19.0407 10.0297 18.5703C9.36561 17.8756 9.2358 17.1589 9.61795 16.3925C9.72417 16.1523 9.88653 15.9405 10.0917 15.7746C10.2968 15.6088 10.5388 15.4937 10.7977 15.4388C11.5824 15.2807 12.3782 15.1723 13.1722 15.0712C13.6063 15.0106 13.9996 15.0951 14.0756 15.6225C14.1517 16.15 13.8289 16.3429 13.3837 16.4183C12.8068 16.5157 12.2225 16.5745 11.6511 16.6995C11.3765 16.7601 10.9091 16.9273 10.9091 17.056C10.9262 17.3717 11.058 17.6706 11.2801 17.8976C12.1427 18.7761 13.0591 19.6012 13.931 20.4705C14.8029 21.3397 15.6728 22.2843 16.5688 23.1683C16.7789 23.3412 17.0308 23.4571 17.2997 23.5046C19.127 23.9346 20.9561 24.3665 22.7964 24.7469C23.279 24.8391 23.7753 24.8347 24.2562 24.734C26.0649 24.3665 27.8607 23.9199 29.6656 23.5229C30.0513 23.4369 30.3921 23.2148 30.6247 22.8981C31.2165 22.2321 31.8426 21.5966 32.5002 20.9942C33.5836 19.9449 34.6873 18.9157 35.7539 17.8517C35.9394 17.6679 36.1435 17.3004 36.0786 17.0891C36.0136 16.8777 35.6204 16.7454 35.3514 16.705C33.2181 16.3766 31.0817 16.0667 28.9422 15.7751C28.0443 15.6519 27.4117 15.2403 27.011 14.4096C26.1076 12.5333 25.156 10.679 24.2284 8.81558C24.1447 8.61899 24.0436 8.43019 23.9261 8.25139C23.6422 7.87282 23.3139 7.88384 23.0338 8.2716C22.9191 8.45243 22.8198 8.64237 22.7369 8.83947C21.8205 10.6772 20.8819 12.4984 19.997 14.3527C19.5666 15.2532 18.9007 15.7126 17.9157 15.7861C17.5446 15.8137 17.1847 15.9019 16.8193 15.9478C16.35 16.0085 16.0031 15.8155 15.9307 15.3524C15.8584 14.8893 16.1812 14.6761 16.5782 14.6008C17.1811 14.4831 17.7914 14.4078 18.4332 14.3067C18.6373 13.9245 18.8432 13.5533 19.0324 13.1747C19.9389 11.3688 20.8423 9.56047 21.7426 7.74969C22.1025 7.02747 22.6553 6.6103 23.4901 6.61398C24.3249 6.61765 24.8758 7.04584 25.2264 7.76807C25.321 7.96103 25.412 8.15215 25.514 8.34328C26.3636 10.0438 27.2126 11.7425 28.061 13.4393C28.1964 13.7113 28.3375 13.9906 28.5081 14.3122C30.2395 14.5658 31.9709 14.8188 33.7023 15.0712C34.4647 15.1852 35.2327 15.2752 35.9877 15.4388C37.5423 15.7567 38.0636 17.3629 36.9913 18.5335C36.5406 19.026 36.0378 19.4726 35.4441 20.0533C36.4811 20.3032 37.3568 20.6046 38.2565 20.7112C39.8741 20.9079 41.104 21.643 42.1818 22.8485C43.4507 24.2672 44.8735 25.5518 46.2277 26.8915C46.3817 27.0441 46.5449 27.1856 46.6822 27.351C47.1867 27.9574 47.0421 28.4444 46.263 28.6374C45.1258 28.9167 43.9775 29.1446 42.8348 29.4C42.2078 29.5397 41.5845 29.6885 40.8536 29.8576V40.9428C40.8536 41.1578 40.8536 41.3728 40.8536 41.586C40.8035 42.6776 40.375 43.24 39.3231 43.4789C34.1883 44.6501 29.0504 45.8104 23.9094 46.9595C23.5765 47.0173 23.2349 47.0042 22.9076 46.921C20.2901 46.3458 17.6764 45.7521 15.0626 45.1604C14.9142 45.1255 14.7676 45.0722 14.621 45.0244C14.224 44.8939 14.1128 44.5962 14.1944 44.225C14.2816 43.8225 14.5858 43.7012 14.9642 43.7398C15.1159 43.7664 15.2658 43.802 15.4131 43.8464C17.6058 44.3451 19.7992 44.8413 21.9931 45.335C22.2231 45.3846 22.4383 45.3938 22.7852 45.4379ZM17.1885 30.8923C18.808 29.2824 20.4218 27.6781 22.1266 25.98L7.23598 22.6096L2.25701 27.5586L17.1885 30.8923ZM10.3785 21.7036L10.3469 21.9039L14.1962 22.786L12.7419 21.2001L10.3785 21.7036ZM32.8118 22.7897L36.8503 21.858C34.3348 21.0144 34.2681 21.0273 32.8842 22.5618C32.8525 22.6359 32.8283 22.7128 32.8118 22.7915V22.7897Z" fill="white"/>
<path d="M24.1991 2.0987C24.1991 2.52506 24.2177 2.95325 24.1991 3.38512C24.1806 3.81698 23.969 4.1735 23.4793 4.16799C23.0433 4.16799 22.817 3.8372 22.8059 3.4329C22.7818 2.51403 22.7799 1.59516 22.8059 0.692833C22.8207 0.294045 23.0619 -0.0110183 23.5127 0.00368357C23.9635 0.0183854 24.1601 0.334475 24.188 0.738777C24.2195 1.1927 24.188 1.65764 24.188 2.10789L24.1991 2.0987Z" fill="white"/>
<path d="M18.3576 8.86154C18.2036 9.04532 18.0756 9.31914 17.8641 9.41286C17.7538 9.44779 17.6369 9.45668 17.5225 9.43881C17.4082 9.42094 17.2997 9.37681 17.2056 9.30995C16.8704 8.99605 16.5603 8.65689 16.2781 8.29552C15.9367 7.90041 15.536 7.52919 15.3004 7.08078C15.2383 6.9378 15.2114 6.7822 15.222 6.62688C15.2326 6.47155 15.2806 6.32099 15.3617 6.18765C15.6195 5.88258 16.0499 5.92668 16.3356 6.25012C16.9459 6.94111 17.5321 7.65232 18.1183 8.36169C18.2144 8.52011 18.2946 8.68754 18.3576 8.86154Z" fill="white"/>
<path d="M29.4491 9.50293C28.9408 9.51212 28.4974 8.95162 28.7478 8.61347C29.3811 7.74813 30.0689 6.92319 30.807 6.14356C30.935 6.00757 31.4266 6.06086 31.6362 6.19869C31.7902 6.29977 31.8922 6.78125 31.7865 6.91908C31.1335 7.76811 30.4193 8.57304 29.7144 9.37613C29.642 9.45882 29.4992 9.47904 29.4491 9.50293Z" fill="white"/>
<path d="M7.32531 9.06C7.54484 9.16122 7.75584 9.27983 7.9561 9.41468C8.57941 9.91454 9.19898 10.4199 9.79632 10.9492C10.2285 11.3296 10.3027 11.7688 10.0096 12.0518C9.64789 12.4083 9.29172 12.2852 8.94668 11.993C8.26773 11.4178 7.5628 10.8702 6.90611 10.2637C6.82387 10.165 6.76612 10.0486 6.73745 9.92386C6.70878 9.79908 6.70997 9.66939 6.74098 9.54516C6.81889 9.34852 7.1194 9.22356 7.32531 9.06Z" fill="white"/>
<path d="M37.3778 12.2944C37.2461 12.2025 36.9808 12.1107 36.9326 11.9618C36.8565 11.7302 36.825 11.3333 36.9604 11.2083C37.7265 10.5018 38.5316 9.83799 39.372 9.21991C39.5185 9.11332 39.9805 9.26034 40.1604 9.42941C40.2884 9.5507 40.3014 10.0267 40.1772 10.1406C39.3869 10.8647 38.5465 11.5355 37.7155 12.2154C37.6505 12.2742 37.541 12.2577 37.3778 12.2944Z" fill="white"/>
</g>
<defs>
<clipPath id="clip0_57_1542">
<rect width="47" height="47" fill="white"/>
</clipPath>
</defs>
</svg>
