<svg width="57" height="34" viewBox="0 0 57 34" fill="none" xmlns="http://www.w3.org/2000/svg">
<g clip-path="url(#clip0_57_1549)">
<path d="M22.8554 3.16769C29.1235 3.16769 35.3916 3.18605 41.6597 3.16769C44.176 3.16769 46.069 4.16619 47.1004 6.51212C47.4861 7.42332 47.9908 8.27797 48.6011 9.05317C51.0358 12.1627 53.3534 15.3664 55.5539 18.6642C56.1932 19.6214 56.3676 20.9229 56.855 22.0408C57.0124 22.4378 57.0427 22.8749 56.9418 23.2904C56.841 23.7058 56.614 24.0789 56.2928 24.3569C56.0662 24.5703 55.9823 25.0179 55.9528 25.3691C55.8939 26.0578 55.9664 26.7464 55.8961 27.435C55.8009 28.3899 55.2864 28.8467 54.3365 28.9133C54.0345 28.9294 53.7318 28.9294 53.4297 28.9133C52.8267 28.8995 52.1035 29.0763 51.6614 28.7962C51.3055 28.5667 51.2988 27.7931 51.1243 27.2652C50.3626 24.9697 48.1659 23.3836 45.874 23.4892C43.4144 23.6016 41.3628 25.236 40.8323 27.6623C40.6192 28.6401 40.286 28.9592 39.2341 28.95C32.4333 28.8834 25.6325 28.9156 18.843 28.9156C17.5463 28.9156 17.5463 28.9156 17.2561 27.6026C16.7302 25.1786 14.3567 23.3905 11.8155 23.4961C9.11552 23.6085 6.97096 25.3714 6.67853 27.9194C6.57425 28.8238 6.25915 28.9799 5.49746 28.9271C4.73577 28.8743 3.9106 28.9271 3.11944 28.9064C2.13559 28.8674 1.68672 28.406 1.63912 27.419C1.61191 26.8474 1.69128 26.2712 1.60967 25.702C1.54393 25.2429 1.29684 24.8343 1.15629 24.3959C1.02254 24.0125 0.820772 23.6246 0.809437 23.2321C0.764099 21.7814 0.764099 20.3276 0.809437 18.8708C0.820772 18.4851 1.03611 18.1018 1.17892 17.723C1.35831 17.3407 1.50985 16.9456 1.63231 16.5409C1.76153 15.905 1.55072 15.5033 0.798092 15.5952C0.421779 15.6434 0.0250865 15.6526 0.0273534 15.0603C0.0296204 14.4681 0.412709 14.4681 0.795822 14.514C1.55071 14.6081 1.67087 14.2087 1.65727 13.5637C1.62553 12.074 1.84541 10.5452 1.58018 9.10368C1.38522 8.04319 1.20843 7.10894 1.61194 6.08518C1.74343 5.75463 1.62778 5.32768 1.63458 4.93746C1.66632 3.54183 2.0041 3.16998 3.40281 3.16539C7.66919 3.14702 11.9356 3.16539 16.202 3.16539L22.8554 3.16769ZM22.8736 4.21899C16.7196 4.21899 10.5656 4.21899 4.41158 4.21899C2.55269 4.21899 2.69327 3.94354 2.62299 6.00254C2.59125 6.95744 2.97437 7.15026 3.8154 7.12502C6.38158 7.0814 8.94776 7.10895 11.523 7.10895C11.7497 7.10895 11.9764 7.10895 12.2031 7.10895C12.5726 7.10895 12.9807 7.04467 12.958 7.65526C12.9353 8.26585 12.5046 8.13042 12.1464 8.16026C11.9197 8.18092 11.693 8.16026 11.4663 8.16026C8.86162 8.16026 6.25237 8.18092 3.64992 8.16026C2.93584 8.16026 2.62751 8.35306 2.66605 9.12433C2.71819 10.1917 2.66607 11.2637 2.68193 12.3379C2.69554 13.0266 2.56181 13.8185 2.87238 14.3235C3.06053 14.6265 3.98318 14.4635 4.57485 14.5117C4.61112 14.5117 4.66779 14.498 4.68366 14.5117C4.85142 14.7068 5.09398 14.8905 5.13705 15.1154C5.16425 15.2371 4.87408 15.5332 4.68366 15.5745C4.30736 15.617 3.92817 15.627 3.55019 15.6044C3.15574 15.6044 2.61395 15.4942 2.70689 16.1667C2.77037 16.6373 2.2807 17.3879 3.26455 17.4935C3.89703 17.5624 4.17129 18.0031 4.18943 18.6022C4.22797 20.209 4.26426 21.802 4.26652 23.4019C4.26652 23.962 4.09195 24.5221 3.44813 24.607C2.72271 24.7035 2.67514 25.1442 2.69328 25.7295C2.76582 28.1535 2.2852 27.7495 4.81511 27.8138C5.36824 27.8276 5.58135 27.6141 5.74231 27.0769C6.61508 24.148 8.85935 22.4723 11.863 22.4333C14.8667 22.3943 17.247 24.0906 18.1538 27.0241C18.351 27.6623 18.6457 27.8298 19.2714 27.823C22.2184 27.7908 25.1655 27.8092 28.1125 27.8069C29.2868 27.8069 29.2935 27.8069 29.2913 26.6408C29.2807 21.0966 29.2679 15.5538 29.2528 10.0127C29.2528 8.08909 29.2528 8.0891 31.2001 8.0891C35.9561 8.0891 40.7129 8.0891 45.4704 8.0891C46.452 8.0891 46.5223 7.97432 46.1505 7.04467C46.0461 6.76036 45.9124 6.488 45.7516 6.23209C44.7541 4.71251 43.2829 4.21439 41.5577 4.21899C35.3327 4.22664 29.1062 4.22664 22.8781 4.21899H22.8736ZM38.4498 18.5196H38.418C38.418 15.7329 38.3976 12.9462 38.4316 10.1619C38.4316 9.43651 38.2571 9.15647 37.4908 9.17484C35.4189 9.22304 33.3446 9.21845 31.2726 9.17484C30.5381 9.15877 30.2956 9.38373 30.3024 10.1412C30.3522 15.7513 30.3764 21.3605 30.3749 26.9691C30.3749 27.6049 30.5585 27.8321 31.2046 27.8184C33.2449 27.7747 35.2851 27.7495 37.3095 27.7977C38.1845 27.8184 38.4883 27.5682 38.4701 26.65C38.418 23.9368 38.4543 21.2282 38.4543 18.5196H38.4498ZM39.6354 18.0375V25.6125C39.6263 25.8803 39.6308 26.1485 39.649 26.4159C39.6833 26.544 39.7393 26.6652 39.8145 26.7739C39.878 26.6929 39.9363 26.6078 39.989 26.5192C40.1137 26.2896 40.2157 26.0394 40.3517 25.8076C41.7119 23.441 43.7702 22.291 46.4611 22.4723C49.2177 22.6559 51.1492 24.1457 52.0559 26.7579C52.3915 27.7151 52.8471 27.9331 53.67 27.8023C54.0463 27.7426 54.6901 27.6393 54.7287 27.4557C54.877 26.7102 54.9091 25.9457 54.8239 25.1901C54.7853 24.8733 54.3342 24.6116 54.0871 24.3109C53.8782 24.0959 53.7065 23.8468 53.5793 23.5741C53.1984 22.47 53.5476 21.4256 54.468 20.6658C54.6093 20.5106 54.727 20.335 54.8171 20.1447C54.6412 20.0301 54.4505 19.9405 54.2504 19.8785C53.9491 19.8481 53.6459 19.8419 53.3436 19.8601C50.6618 19.8601 47.98 19.8739 45.2982 19.8463C44.1058 19.8463 43.598 19.3872 43.5844 18.3474C43.5572 16.3228 43.5572 14.2967 43.5844 12.2691C43.5957 11.3371 44.0717 10.8689 44.9785 10.8276C45.6949 10.7954 46.4158 10.8459 47.1299 10.8046C47.5383 10.7573 47.9428 10.6806 48.3404 10.575C48.0168 10.1197 47.655 9.69346 47.2591 9.30108C47.0754 9.1427 46.681 9.21156 46.3795 9.20926C44.4911 9.20926 42.6005 9.26435 40.7122 9.18401C39.7555 9.1427 39.5991 9.52834 39.6127 10.3708C39.6671 12.9141 39.6308 15.4758 39.6308 18.0375H39.6354ZM49.5078 18.7904C50.868 18.7904 52.2282 18.7904 53.5883 18.7904C54.1551 18.7904 54.2684 18.6114 53.9148 18.1339C53.1032 17.0321 52.328 15.9073 51.5074 14.8101C50.7865 13.8438 50.2084 12.5331 49.2404 12.0556C48.2724 11.5782 46.8805 11.9225 45.6745 11.9064C45.5997 11.9064 45.5226 11.9064 45.4478 11.9064C44.8652 11.8421 44.6499 12.0923 44.6589 12.6937C44.6884 14.4107 44.7088 16.1369 44.6589 17.847C44.634 18.6596 44.9989 18.8157 45.6767 18.8019C46.9462 18.7766 48.2293 18.7927 49.5124 18.7904H49.5078ZM3.1988 22.4884C3.1784 22.1785 3.34839 21.623 2.54816 21.6C1.74793 21.5771 1.84088 22.105 1.86808 22.594C1.89529 23.0829 1.67313 23.6338 2.50057 23.6453C3.26453 23.6544 3.22601 23.1632 3.20334 22.4884H3.1988ZM3.15801 19.5617C3.13988 19.1026 3.28043 18.5723 2.47793 18.5655C1.76384 18.5655 1.79784 18.9924 1.84545 19.4469C1.88852 19.8601 1.56208 20.4776 2.41672 20.5051C3.16254 20.5281 3.19877 20.1011 3.1625 19.5617H3.15801ZM56.1432 22.5687L55.1685 21.6161C54.9418 21.9535 54.6289 22.2657 54.5473 22.633C54.4452 23.0921 54.6176 23.6499 55.2002 23.5512C55.4995 23.5144 55.7261 23.0301 56.1477 22.5687H56.1432Z" fill="white"/>
<path d="M51.0493 29.0005C51.0493 31.84 48.8413 34.0069 45.9827 34C43.1944 34 40.8934 31.6885 40.9251 28.95C40.9583 27.6007 41.5128 26.3184 42.4695 25.3785C43.4261 24.4386 44.7086 23.916 46.0416 23.923C46.7005 23.9203 47.3535 24.0498 47.9627 24.3041C48.5719 24.5584 49.1253 24.9324 49.591 25.4045C50.0566 25.8767 50.4252 26.4375 50.6755 27.0548C50.9258 27.672 51.0529 28.3333 51.0493 29.0005ZM49.9771 29.0005C49.9832 28.4748 49.8851 27.9531 49.6887 27.4663C49.4923 26.9795 49.2017 26.5376 48.8337 26.1665C48.4658 25.7955 48.0281 25.5028 47.5466 25.306C47.0651 25.1091 46.5495 25.0119 46.0303 25.0203C43.8427 25.0203 42.011 26.7992 41.9929 28.9592C41.9747 31.1192 43.8064 32.9189 45.9918 32.928C48.2451 32.9303 49.9703 31.2317 49.9771 28.9937V29.0005Z" fill="white"/>
<path d="M11.9358 34.0069C11.2754 34.0157 10.6197 33.8916 10.0071 33.6418C9.39436 33.3919 8.83683 33.0214 8.36673 32.5515C7.89663 32.0817 7.52336 31.522 7.26862 30.905C7.01389 30.2879 6.88276 29.6258 6.88281 28.9569C6.88281 26.2024 9.20415 23.907 11.9766 23.907C13.3091 23.9135 14.5857 24.4499 15.5313 25.4005C16.477 26.3511 17.0159 27.6399 17.0319 28.9891C17.0229 31.7849 14.7604 34.0069 11.9358 34.0069ZM11.8021 32.9235C14.069 32.9923 15.8826 31.3304 15.9438 29.1406C15.9713 28.0805 15.5837 27.0524 14.8656 26.2806C14.1475 25.5087 13.1571 25.0556 12.1104 25.0203C9.89333 24.956 8.0299 26.6638 7.97096 28.8261C7.95095 29.351 8.0348 29.8746 8.21763 30.3662C8.40046 30.8578 8.67855 31.3074 9.03552 31.6885C9.3925 32.0697 9.82117 32.3747 10.2963 32.5856C10.7714 32.7965 11.2834 32.909 11.8021 32.9166V32.9235Z" fill="white"/>
<path d="M30.0824 31.9227C27.6318 31.9227 25.1812 31.9227 22.7284 31.9227C22.3748 31.9227 21.8488 32.1522 21.8352 31.4154C21.8216 30.6785 22.3022 30.8484 22.6899 30.8484C27.7074 30.8484 32.7233 30.8484 37.7378 30.8484C38.1413 30.8484 38.6084 30.7543 38.5789 31.436C38.5494 32.1568 38.0144 31.9204 37.6721 31.9227C35.1354 31.941 32.6032 31.9227 30.0824 31.9227Z" fill="white"/>
<path d="M13.9013 1.07886C12.6975 1.07886 11.496 1.07886 10.2923 1.07886C9.87972 1.07886 9.34923 1.12017 9.47618 0.491225C9.51699 0.282341 9.99305 0.032138 10.2719 0.032138C12.7134 -0.004589 15.1572 0.0068865 17.5987 0.0160682C17.9432 0.0160682 18.3853 -0.105583 18.3853 0.525662C18.3853 1.11559 17.9953 1.08116 17.619 1.08345C16.3813 1.08116 15.1481 1.07886 13.9013 1.07886Z" fill="white"/>
<path d="M7.36935 1.37727C7.04291 0.989345 6.72328 0.780471 6.68927 0.527973C6.58499 -0.160657 7.1563 0.0413387 7.51674 0.00920255C7.92252 -0.025229 8.33055 0.0551113 8.17413 0.583062C8.09479 0.837855 7.75247 1.0123 7.36935 1.37727Z" fill="white"/>
<path d="M19.8702 32.2532C19.4984 31.8492 19.1674 31.6541 19.1107 31.397C18.9906 30.8369 19.4372 30.8277 19.8339 30.8369C20.2306 30.8461 20.6863 30.8139 20.5956 31.3786C20.5525 31.6334 20.2261 31.84 19.8702 32.2532Z" fill="white"/>
<path d="M15.0274 14.5095C17.3987 14.5095 19.7722 14.5095 22.1434 14.5209C22.3996 14.5209 22.8235 14.6311 22.8802 14.7941C23.0638 15.3083 22.9119 15.6296 22.2409 15.6182C20.1326 15.5814 18.0243 15.6182 15.9161 15.6182H7.66668C7.24277 15.6182 6.83018 15.6801 6.86872 15.0053C6.90725 14.3304 7.34706 14.5301 7.6803 14.5278C10.1331 14.4957 12.5791 14.5095 15.0274 14.5095Z" fill="white"/>
<path d="M10.7088 11.7182C8.94059 11.7182 7.17013 11.7182 5.40191 11.7182C5.06414 11.7182 4.6198 11.8743 4.59033 11.2362C4.56086 10.598 4.98253 10.6279 5.40418 10.6279C8.90434 10.6279 12.4045 10.6279 15.9047 10.6279C16.2969 10.6279 16.7751 10.5039 16.7797 11.1857C16.7842 11.8674 16.2719 11.7113 15.9024 11.7159C14.1727 11.7274 12.4407 11.7182 10.7088 11.7182Z" fill="white"/>
<path d="M31.0891 19.1944V18.9649C31.0891 16.5753 31.1866 16.4789 33.5306 16.8095C33.7732 16.8439 33.984 17.1033 34.2107 17.2571C34.0129 17.483 33.7926 17.6876 33.5533 17.8677C33.3739 17.9286 33.1808 17.935 32.9979 17.886C32.3745 17.8103 32.1138 18.0536 32.1501 18.7124C32.2044 19.4769 32.1968 20.2446 32.1274 21.0078C32.0956 21.2925 31.7578 21.5404 31.5606 21.8066C31.4042 21.5495 31.148 21.3039 31.1072 21.0331C31.0661 20.4218 31.0594 19.8087 31.0869 19.1967L31.0891 19.1944Z" fill="white"/>
<path d="M48.5373 28.9868C48.5414 29.3193 48.4791 29.6493 48.354 29.9567C48.2289 30.2642 48.0436 30.5429 47.8094 30.776C47.5752 31.0091 47.2967 31.1918 46.991 31.3131C46.6852 31.4344 46.3583 31.4919 46.03 31.4819C45.7012 31.4913 45.3741 31.4322 45.0687 31.3083C44.7634 31.1843 44.4863 30.9983 44.2549 30.7616C44.0235 30.5249 43.8424 30.2426 43.7231 29.9321C43.6038 29.6217 43.5488 29.2898 43.5613 28.957C43.5571 28.6242 43.6187 28.2939 43.7425 27.9856C43.8663 27.6773 44.0498 27.3972 44.2822 27.1619C44.5147 26.9266 44.7912 26.7407 45.0957 26.6154C45.4002 26.49 45.7263 26.4277 46.055 26.432C46.384 26.4335 46.7095 26.5009 47.0126 26.6303C47.3158 26.7597 47.5907 26.9486 47.8215 27.1861C48.0522 27.4236 48.2342 27.705 48.3571 28.014C48.48 28.3231 48.5412 28.6537 48.5373 28.9868ZM46.0573 27.5361C45.871 27.5317 45.6858 27.5655 45.5127 27.6353C45.3396 27.7052 45.1822 27.8096 45.0499 27.9425C44.9176 28.0754 44.8132 28.2339 44.7428 28.4086C44.6725 28.5833 44.6376 28.7706 44.6404 28.9592C44.6314 29.148 44.6608 29.3366 44.7268 29.5133C44.7928 29.69 44.894 29.8511 45.0241 29.9866C45.1542 30.122 45.3105 30.2289 45.4831 30.3005C45.6558 30.3722 45.8413 30.4071 46.0278 30.4031C46.394 30.3926 46.7419 30.239 46.9986 29.9744C47.2553 29.7098 47.4008 29.3548 47.4046 28.9839C47.4084 28.6131 47.2702 28.2551 47.019 27.9851C46.7678 27.7152 46.4231 27.5543 46.0573 27.5361Z" fill="white"/>
<path d="M11.8834 31.4819C11.5536 31.4762 11.2282 31.4034 10.9267 31.2678C10.6252 31.1323 10.3537 30.9367 10.1283 30.6929C9.90289 30.449 9.72817 30.1617 9.61454 29.8481C9.5009 29.5346 9.45067 29.201 9.46682 28.8674C9.50206 28.1948 9.7966 27.563 10.2871 27.108C10.7776 26.653 11.4249 26.4111 12.0897 26.4343C12.7526 26.4738 13.3749 26.7703 13.8275 27.2623C14.28 27.7544 14.528 28.404 14.5198 29.0763C14.4841 29.7489 14.1865 30.3797 13.6924 30.8306C13.1982 31.2815 12.5478 31.5157 11.8834 31.4819ZM11.9627 30.4077C12.341 30.4081 12.705 30.261 12.979 29.9968C13.253 29.7326 13.4159 29.3717 13.434 28.9891C13.4334 28.6049 13.283 28.2364 13.0156 27.9639C12.7481 27.6914 12.3852 27.5368 12.0058 27.5338C11.6272 27.5333 11.263 27.6804 10.9887 27.9445C10.7144 28.2086 10.5509 28.5695 10.5323 28.9524C10.5335 29.339 10.6859 29.7094 10.956 29.9825C11.2262 30.2557 11.5923 30.4094 11.9741 30.41L11.9627 30.4077Z" fill="white"/>
</g>
<defs>
<clipPath id="clip0_57_1549">
<rect width="57" height="34" fill="white"/>
</clipPath>
</defs>
</svg>
