<svg width="55" height="55" viewBox="0 0 55 55" fill="none" xmlns="http://www.w3.org/2000/svg">
<g clip-path="url(#clip0_57_1620)">
<path d="M39.6668 0C40.1157 0.282809 40.5259 0.445633 40.8116 0.730585C45.3507 5.23554 49.8798 9.7512 54.3989 14.2776C55.258 15.1346 55.2001 15.6488 54.2207 16.6343C50.0753 20.7765 45.9263 24.9151 41.7738 29.0501L16.8051 53.9502C15.3961 55.3557 15.1105 55.3535 13.6864 53.933L1.01411 41.2923C-0.3197 39.9597 -0.326186 39.6254 0.971116 38.3314C13.4158 25.9149 25.864 13.5013 38.3158 1.09052C38.7465 0.703399 39.1974 0.339383 39.6668 0ZM37.6113 5.27268C39.5444 7.20092 41.4925 9.12918 43.4406 11.0767C44.5403 12.1715 44.7293 12.8143 44.115 13.4142C43.5007 14.0141 42.8263 13.8148 41.7524 12.7414L35.9252 6.91169L32.7035 10.2368C34.0308 11.4559 35.4506 12.7114 36.8102 14.0248C37.5555 14.7446 37.476 15.5674 36.7264 15.9959C36.0648 16.3729 35.5687 16.0623 35.1112 15.6017L31.3482 11.788L28.1651 14.8239C30.1798 16.8357 32.2245 18.8818 34.28 20.9193C34.8621 21.4956 35.2723 22.0998 34.6215 22.8604C34.0867 23.486 33.4509 23.3768 32.6068 22.5455C31.6145 21.5664 30.6308 20.5787 29.6449 19.5931C28.571 18.5219 27.4971 17.4313 26.5499 16.4844L23.3281 19.4946C24.6748 20.8165 25.9979 22.117 27.321 23.4132C27.873 23.9552 28.1028 24.5744 27.5207 25.1957C26.8892 25.8706 26.232 25.6371 25.6649 25.0522C25.463 24.8508 25.2569 24.6515 25.055 24.448L21.874 21.2214L18.6136 24.2081C20.0398 25.6178 21.438 26.9933 22.8298 28.3795C23.5923 29.1358 24.3634 29.8792 25.0979 30.6612C25.6113 31.2076 25.6435 31.8418 25.0979 32.3752C24.5524 32.9087 23.9918 32.8037 23.4698 32.3174C23.1541 32.0282 22.8492 31.7239 22.5463 31.4218L17.0757 25.9413L13.7444 29.0629C14.1202 29.2951 14.4791 29.5536 14.8183 29.8364C15.8994 30.8776 16.9626 31.9375 18.0079 33.0159C18.5255 33.5515 18.5857 34.1856 18.0358 34.7298C17.5225 35.2398 16.9383 35.1712 16.4056 34.702C16.165 34.4877 15.9352 34.2735 15.7097 34.0335C14.5563 32.8659 13.4072 31.6961 12.4385 30.7084L3.24571 39.8697L15.177 51.797L51.7871 15.2781L39.6969 3.21589L37.6113 5.27268Z" fill="#393939"/>
<path d="M17.2473 41.7722C17.2423 42.7623 16.8471 43.7107 16.1471 44.4126C15.447 45.1145 14.4983 45.5136 13.5058 45.5237C12.5133 45.5002 11.5675 45.0986 10.8625 44.4013C10.1576 43.7041 9.74694 42.7641 9.71484 41.7744C9.71649 41.275 9.81742 40.7809 10.0119 40.3207C10.2063 39.8605 10.4904 39.4434 10.8476 39.0935C11.2047 38.7435 11.628 38.4678 12.0927 38.2822C12.5575 38.0966 13.0546 38.0048 13.5552 38.0122C14.0474 38.0094 14.5351 38.1054 14.9893 38.2943C15.4436 38.4833 15.8552 38.7614 16.1996 39.1122C16.544 39.4629 16.8143 39.8791 16.9943 40.3361C17.1742 40.7931 17.2603 41.2814 17.2473 41.7722ZM13.4521 43.1756C14.1995 43.2013 14.9878 42.52 14.9964 41.8408C14.9858 41.466 14.8348 41.1087 14.5732 40.8394C14.3116 40.5702 13.9583 40.4084 13.5831 40.386C13.3971 40.3662 13.209 40.3848 13.0306 40.4408C12.8522 40.4968 12.6872 40.5889 12.5461 40.7114C12.405 40.8338 12.2907 40.984 12.2105 41.1526C12.1302 41.3211 12.0856 41.5043 12.0796 41.6908C12.0749 42.0664 12.2145 42.4295 12.4697 42.7056C12.7249 42.9817 13.0764 43.1499 13.4521 43.1756Z" fill="#393939"/>
</g>
<defs>
<clipPath id="clip0_57_1620">
<rect width="55" height="55" fill="white"/>
</clipPath>
</defs>
</svg>
