<svg width="50" height="49" viewBox="0 0 50 49" fill="none" xmlns="http://www.w3.org/2000/svg">
<g clip-path="url(#clip0_57_1590)">
<path d="M30.0011 13.2788V5.43328C30.0011 4.45834 30.0677 4.43742 31.0414 4.17799C31.7759 3.97924 32.527 3.89765 33.2573 3.73446C34.075 3.55244 34.9218 3.47713 35.7249 3.17795C36.2721 2.96874 36.9026 2.96874 37.4976 2.94573C37.945 2.91853 38.1052 3.09845 38.1218 3.54199C38.1364 4.10059 38.1218 4.6571 38.1218 5.2157C38.1218 6.54002 38.1405 7.86643 38.1093 9.19076C38.1093 9.58826 38.2259 9.64266 38.5775 9.63848C40.4854 9.62174 42.3913 9.63848 44.2993 9.63848C44.5071 9.62371 44.7156 9.62371 44.9235 9.63848C44.9909 9.63852 45.0576 9.65264 45.1193 9.67994C45.181 9.70725 45.2364 9.74714 45.282 9.7971C45.3276 9.84706 45.3623 9.90599 45.3841 9.97016C45.4058 10.0343 45.414 10.1023 45.4083 10.1699C45.4083 10.4126 45.4083 10.6573 45.4083 10.9021C45.4083 14.4239 45.4083 17.945 45.4083 21.4653C45.4083 21.9612 45.4083 21.9633 45.8972 21.9758C46.0366 21.9758 46.176 21.9758 46.3134 21.9758C46.3884 21.9698 46.4638 21.9805 46.5342 22.0072C46.6046 22.034 46.6682 22.0761 46.7206 22.1305C46.7729 22.1849 46.8126 22.2502 46.8368 22.3219C46.861 22.3935 46.8691 22.4697 46.8605 22.5449C46.8751 22.9989 46.8605 23.4529 46.8605 23.9048C46.8605 24.8128 46.8605 25.7187 46.8605 26.6246C46.8605 27.1999 46.8605 27.1999 47.4847 27.2041C47.6928 27.2041 47.9009 27.2041 48.1089 27.2041C48.3287 27.2073 48.5385 27.2965 48.6939 27.4528C48.8493 27.609 48.938 27.82 48.9412 28.0409C48.9495 28.8778 48.9495 29.7147 48.9412 30.5515C48.9412 30.7713 48.8552 30.9823 48.7018 31.1389C48.5484 31.2954 48.34 31.3851 48.1214 31.3884C47.0811 31.3995 46.0408 31.3995 45.0005 31.3884C44.73 31.3884 44.5636 31.3884 44.5656 31.7566C44.5795 34.6507 44.5795 37.5448 44.5656 40.439C44.5656 40.7967 44.7175 40.8323 44.9963 40.8114C45.2377 40.7925 45.4832 40.8302 45.7245 40.8114C47.1227 40.6628 48.3337 41.3888 49.6424 41.6629C49.917 41.7193 50.0835 42.2194 49.9753 42.5395C49.9539 42.5789 49.9242 42.6132 49.8883 42.6399C49.8523 42.6667 49.811 42.6852 49.7673 42.6943C49.1675 42.798 48.5505 42.7102 48.0029 42.4432C47.3667 42.1507 46.6679 42.0227 45.9701 42.0708C45.5248 42.0834 45.0816 42.1001 44.6363 42.1148C44.6155 42.5604 44.5885 43.0039 44.5781 43.4495C44.5636 44.0437 44.5614 43.9517 45.0712 43.9538C45.1751 43.96 45.2793 43.96 45.3833 43.9538C46.7107 43.8115 47.9217 44.2697 49.1431 44.6797C49.2346 44.709 49.3178 44.7613 49.4073 44.7927C49.9795 44.9768 49.9982 45.0019 49.9898 45.5459C49.9898 45.7697 49.9149 45.8346 49.6964 45.845C49.0964 45.8943 48.4935 45.7952 47.9404 45.5563C47.2339 45.2118 46.4577 45.0364 45.6725 45.0438C44.8872 45.0624 44.1104 45.2116 43.3734 45.4852C42.8803 45.6777 42.4038 45.8827 41.8545 45.845C41.4592 45.8199 41.0909 46.2258 40.6998 46.0354C40.2462 45.8137 39.7677 45.9308 39.3287 45.8262C38.8897 45.7216 38.4818 45.5312 38.047 45.4078C37.8408 45.3145 37.622 45.2525 37.3978 45.2237C37.1023 45.2237 36.8027 45.3032 36.5302 45.0354C36.424 44.9308 36.114 44.9789 35.9247 45.0354C35.2651 45.1923 34.6098 45.3701 33.9585 45.5605C33.4969 45.7336 33.0138 45.8421 32.5228 45.8827C32.0692 45.8932 31.6261 46.1902 31.1558 46.0668C30.2757 45.8346 29.3144 45.8346 28.5175 45.4099C28.1014 45.1818 27.6666 45.3827 27.2692 45.1253C26.8717 44.868 26.4577 45.1463 26.0416 45.2028C25.4992 45.3069 24.9652 45.451 24.4437 45.6337C23.5927 45.8743 22.7043 46.1191 21.8179 46.0417C21.3262 46.0266 20.8377 45.9564 20.3615 45.8325C19.9453 45.6923 19.4189 45.6526 19.0964 45.4141C18.6928 45.1002 18.2475 45.4141 17.848 45.1086C17.5755 44.8994 17.0719 44.9684 16.7224 45.2551C15.8693 45.1797 15.1349 45.6735 14.3526 45.7781C13.5703 45.8827 12.7671 46.4392 11.9515 45.8827C11.0964 45.9768 10.3473 45.6233 9.58163 45.3241C9.45666 45.2826 9.32625 45.26 9.19466 45.2572C8.86592 45.232 8.54338 45.3011 8.22505 45.0668C8.11361 45.0173 7.9931 44.9918 7.87129 44.9918C7.74949 44.9918 7.62908 45.0173 7.51765 45.0668C6.70203 45.3827 5.79071 45.368 5.02087 45.8137C4.93489 45.8596 4.83934 45.8847 4.742 45.8869C4.34189 45.8613 3.94127 45.9278 3.57062 46.0815C3.30929 46.1891 3.01635 46.1891 2.75502 46.0815C2.0372 45.7446 1.17164 45.9852 0.509994 45.4706C0.358107 45.3534 0.116789 45.2613 0.0793372 45.1086C0.027321 44.8994 0.127172 44.6546 0.162543 44.4245C0.383091 44.4831 0.549587 44.3094 0.832555 44.3847C1.49004 44.5584 2.10791 44.8659 2.83406 44.8722C3.79644 44.8799 4.75118 44.6994 5.64506 44.3408C6.82271 43.8784 8.04199 44.0312 9.25084 44.0165C9.36111 44.0165 9.45882 44.1713 9.58366 44.2111C9.63488 44.2379 9.69245 44.2501 9.75007 44.2464C9.8077 44.2427 9.86321 44.2231 9.91059 44.1899C9.95797 44.1568 9.99546 44.1111 10.0189 44.0581C10.0423 44.005 10.0509 43.9465 10.0436 43.8889C10.0436 43.6441 10.0436 43.4014 10.0436 43.1566C10.0436 42.4934 9.75847 42.1566 9.10099 42.1315C8.26873 42.098 7.43647 42.0959 6.60421 42.1315C6.2866 42.1837 5.97774 42.2802 5.68662 42.4181C4.78154 42.7361 3.86607 43.0897 2.89441 42.9391C2.09752 42.8156 1.29229 42.7298 0.537018 42.3491C0.160421 42.1608 0.0377446 41.9725 0.0481478 41.5938C0.0481478 41.3846 0.0814016 41.2633 0.322756 41.2779C0.719568 41.289 1.11327 41.3516 1.49414 41.4641C2.96931 41.9327 4.43409 41.7675 5.86349 41.1921C6.96124 40.7774 8.16235 40.7276 9.29036 41.0499C9.45821 41.0876 9.63221 41.0876 9.80006 41.0499C9.88953 41.0289 9.96866 40.9034 10.0269 40.8093C10.0581 40.759 10.0269 40.6733 10.0269 40.6C10.0269 37.7059 10.0269 34.8118 10.0269 31.9177C10.0269 31.4407 10.0269 31.4344 9.51509 31.4344C8.54342 31.4344 7.57384 31.4344 6.60218 31.4344C5.99671 31.4344 5.66797 31.108 5.66173 30.5097C5.6534 29.6728 5.6534 28.836 5.66173 27.9991C5.66173 27.3505 5.76364 27.2627 6.45233 27.2543C6.90383 27.2543 7.35325 27.2396 7.80475 27.2543C8.06067 27.2543 8.17099 27.2041 8.16267 26.9154C8.14186 26.2187 8.22293 25.5115 8.13971 24.8232C8.02527 23.8483 8.52465 23.1683 9.05314 22.4758C9.36107 22.0721 10.0061 21.8482 9.98943 21.3126C9.97903 20.9067 9.60866 20.5113 9.40476 20.1075L3.16282 7.64468C3.1212 7.5589 3.11704 7.41872 3.05462 7.38733C2.9922 7.35595 2.7987 7.40826 2.79037 7.44801C2.75769 7.6499 2.74382 7.85442 2.74882 8.05892C2.74882 12.9406 2.74882 17.8222 2.74882 22.7039C2.74882 22.8775 2.69261 23.0805 2.76335 23.2186C2.86859 23.4081 3.0205 23.5673 3.20447 23.6809C3.30226 23.7437 3.47496 23.6809 3.6206 23.6914C4.16573 23.706 4.40918 23.9445 4.4175 24.5282C4.43207 25.5743 4.4175 26.6204 4.4175 27.6664C4.38498 27.8491 4.31784 28.0239 4.2198 28.1811C4.15322 28.3715 4.12622 28.4887 3.90567 28.4656C3.80171 28.4604 3.69754 28.4604 3.59358 28.4656C2.65521 28.4782 2.65096 28.4824 3.14199 29.3862C3.2481 29.5808 3.35013 29.8527 3.52906 29.9134C4.28642 30.1833 4.19903 30.9323 4.36132 31.4699C4.51529 31.9553 4.23643 32.4909 3.84319 32.9031C3.38545 33.3801 2.91732 33.7546 2.19117 33.7044C1.02393 33.6228 0.514172 33.1688 0.0585104 32.152C-0.0247154 31.9679 0.335216 31.4909 0.609861 31.3946C0.817926 31.3214 1.23403 31.4951 1.26108 31.7461C1.29645 32.129 1.39634 32.3215 1.7979 32.4679C2.46371 32.7148 3.06293 32.4826 3.14199 31.7921C3.18985 31.3737 3.06712 31.0536 2.65932 30.7356C2.13495 30.3234 1.78852 29.7241 1.69184 29.0619C1.61902 28.5723 1.51914 28.4782 1.06764 28.4594C0.89495 28.4594 0.720176 28.4594 0.547482 28.4594C0.479874 28.4668 0.411456 28.4593 0.347037 28.4374C0.282619 28.4154 0.223703 28.3796 0.174531 28.3323C0.125359 28.2851 0.0870934 28.2276 0.062371 28.1639C0.0376485 28.1002 0.0271324 28.0318 0.0314864 27.9635C0.0148412 26.7083 0.0190025 25.453 0.0314864 24.1977C0.0314864 23.8337 0.220768 23.6767 0.597365 23.6454C1.69178 23.5554 1.69184 23.5554 1.69184 22.4696V4.79308C1.69184 3.93321 1.69185 3.92275 2.43673 3.5629C3.1816 3.20306 3.95142 2.86413 4.70877 2.51683C5.43076 2.18209 5.41204 2.19465 5.85729 2.82229C6.82063 4.178 7.41154 5.72827 8.14601 7.21578C10.2946 11.5507 12.4502 15.8821 14.6127 20.2101C14.8582 20.7017 15.1016 21.2394 15.8611 21.1745C16.2168 21.1432 16.6662 21.9026 16.6662 22.3315C16.6662 23.6914 16.6662 25.0513 16.6662 26.4112C16.6662 26.5869 16.6766 26.7605 16.6662 26.9342C16.6495 27.1664 16.7577 27.225 16.97 27.2208C17.1822 27.2166 17.3092 27.2041 17.2925 26.953C17.2135 25.6977 17.7919 24.5157 17.7086 23.2562C18.0083 22.8378 17.8148 22.321 17.9417 21.888C18.0686 21.4549 18.0187 21.003 18.1498 20.6159C18.3225 20.1138 18.208 19.5908 18.3578 19.1326C18.5222 18.6305 18.4535 18.1284 18.5534 17.6451C18.7448 16.7308 18.8696 15.8145 18.9966 14.8918C19.0611 14.4358 18.9966 13.8897 19.2046 13.5319C19.4668 13.0738 19.2732 12.6532 19.3752 12.2369C19.5999 11.3289 19.6541 10.3958 19.8226 9.48576C19.9162 8.98783 19.8809 8.46479 20.0307 8.00871C20.148 7.55558 20.2101 7.08981 20.2158 6.62162C20.2387 6.3329 20.3656 6.05255 20.4093 5.76384C20.453 5.47512 20.3344 5.14875 20.6174 4.90188C20.6416 4.85541 20.6543 4.80372 20.6543 4.75124C20.6543 4.69877 20.6416 4.64708 20.6174 4.60061C20.2221 3.92485 20.4655 3.1905 20.4238 2.48545C20.3822 1.7804 20.4238 1.02096 20.4114 0.290801C20.4114 0.052297 20.5154 0.0125427 20.7256 0.0125427C22.2153 0.0125427 23.7071 0.0125427 25.1968 0.0125427C25.6483 0.0125427 25.821 0.173639 25.821 0.608804C25.8335 1.69044 25.8814 2.77626 25.7982 3.84953C25.7628 4.30353 25.5693 4.75752 25.6234 5.22825C25.663 5.58601 25.7691 5.93749 25.8315 6.29524C25.8593 6.62363 25.9178 6.94865 26.0062 7.26599C26.2143 7.85388 26.1394 8.52128 26.2622 9.14892C26.4078 9.89373 26.3724 10.6636 26.6346 11.398C26.7886 11.8164 26.5306 12.3499 26.876 12.762C26.7158 13.488 27.0611 14.1617 27.1089 14.8709C27.1241 15.5312 27.24 16.1853 27.4523 16.8103C27.4865 16.94 27.5026 17.0737 27.5002 17.2078C27.5688 17.9464 27.5605 18.7058 27.7394 19.415C27.8372 19.8125 27.8518 20.2038 27.933 20.5887C28.0141 20.9737 28.1577 21.3482 28.141 21.7603C28.141 21.8273 28.3033 21.9695 28.3906 21.9695C28.9046 21.9695 29.4206 21.9549 29.9345 21.9424C29.9574 21.4632 29.9969 20.9841 29.999 20.5051C30.0052 18.0907 30.0011 15.6848 30.0011 13.2788ZM27.342 31.3863H17.8751C17.3154 31.3863 17.3113 31.3863 17.3092 31.9219C17.3092 34.537 17.3092 37.1515 17.3092 39.7653C17.3092 40.0791 17.201 40.4829 17.3529 40.6754C17.5047 40.8678 17.9208 40.7402 18.2142 40.8051C18.623 40.8981 19.0266 41.0133 19.423 41.1503C20.3208 41.5 21.2777 41.6706 22.2402 41.6524C22.8347 41.6373 23.4228 41.5257 23.9818 41.3218C24.5519 41.1126 25.147 40.8637 25.7441 40.8197C27.0778 40.7256 28.4177 40.7402 29.6619 41.3888C29.9186 41.5283 30.2028 41.6091 30.4942 41.6252C31.5636 41.6357 32.6289 41.7214 33.663 41.2444C34.0737 41.062 34.5017 40.9218 34.9405 40.826C35.4003 40.7193 35.9059 40.8009 36.397 40.8009C36.5702 40.7894 36.7439 40.7894 36.9171 40.8009C37.2667 40.849 37.2959 40.667 37.2959 40.3825C37.2959 37.6271 37.2959 34.8739 37.2959 32.1185C37.2959 31.3925 37.2959 31.3884 36.6113 31.3863H27.342ZM27.3004 30.131H46.6504C46.8939 30.131 47.1352 30.131 47.3787 30.131C47.5867 30.131 47.7157 30.108 47.697 29.8611C47.6866 29.723 47.697 29.5829 47.697 29.4427C47.697 28.4531 47.697 28.4531 46.7482 28.4531C33.887 28.4531 21.0273 28.4531 8.16886 28.4531C7.75273 28.4531 7.35536 28.497 6.94963 28.52C6.94963 28.9385 6.93509 29.3569 6.91428 29.7607C6.9018 30.0055 6.93921 30.1603 7.2409 30.1289C7.48346 30.1153 7.72658 30.1153 7.96913 30.1289L27.3004 30.131ZM36.8714 13.0738V5.12364C36.885 4.88028 36.8808 4.63624 36.8589 4.39348C36.8464 4.31189 36.6258 4.18427 36.6092 4.19473C36.2243 4.54412 35.6459 4.19473 35.3608 4.42696C34.9447 4.75542 34.4994 4.42696 34.1124 4.72823C33.7816 4.98347 33.2906 4.74706 32.864 4.99393C32.5187 5.20315 32.0318 5.20315 31.6157 5.2157C31.2661 5.2157 31.239 5.36633 31.239 5.65086C31.239 10.9482 31.2536 16.2475 31.239 21.5511C31.239 21.9905 31.4118 21.98 31.726 21.9695C33.2844 21.9591 34.8469 21.9695 36.4053 21.9695C36.8651 21.9695 36.8693 21.9696 36.8693 21.4382C36.8693 18.6514 36.8686 15.8633 36.8672 13.0738H36.8714ZM37.0795 23.2269H28.7569C28.3824 23.2269 28.2305 23.3524 28.3636 23.5993C28.5904 24.0177 28.4448 24.4864 28.5842 24.8713C28.7187 25.2849 28.7799 25.719 28.7652 26.1538C28.7652 26.2584 28.7236 26.4237 28.7652 26.4572C29.0107 26.6287 28.8775 26.9551 29.0023 27.0848C29.1272 27.2145 29.4393 27.1936 29.6702 27.1936C33.5194 27.1936 37.368 27.1936 41.2158 27.1936C42.4995 27.1936 43.7833 27.1936 45.065 27.1936C45.7329 27.1936 45.812 27.1057 45.8182 26.4112C45.8182 25.5053 45.8182 24.5973 45.8182 23.6914C45.8182 23.2269 45.8181 23.2227 45.2917 23.2227L37.0795 23.2269ZM44.1537 16.4296C44.1537 14.6533 44.1537 12.8729 44.1537 11.0988C44.1537 10.8205 44.1411 10.6615 43.7833 10.6657C42.0175 10.6839 40.2511 10.6839 38.4839 10.6657C38.1302 10.6657 38.1094 10.8143 38.1115 11.0967C38.1115 14.5836 38.1115 18.067 38.1115 21.5469C38.1115 21.8252 38.1239 21.9842 38.4818 21.98C40.2476 21.9605 42.0141 21.9605 43.7812 21.98C44.1349 21.98 44.1558 21.8315 44.1537 21.549C44.1433 19.8418 44.1495 18.1388 44.1495 16.4296H44.1537ZM36.1099 43.9517L37.2251 43.8973L37.2875 42.5667C37.3043 42.4634 37.3043 42.3582 37.2875 42.2549C37.2626 42.1796 37.173 42.0625 37.1169 42.0645C36.0516 42.1127 34.9822 41.9307 33.9252 42.3742C33.12 42.7131 32.2606 43.0018 31.3347 42.893C30.6866 42.8214 30.0478 42.6811 29.4289 42.4746C28.5135 42.1671 27.5771 41.9286 26.5929 42.0457C26.4202 42.0646 26.2455 42.0457 26.0728 42.0457C25.7076 42.0257 25.3429 42.0916 25.0076 42.2382C24.3126 42.5771 23.524 42.6566 22.7771 42.8658C22.2363 42.9809 21.6766 42.9723 21.1396 42.8407C20.3926 42.6755 19.6831 42.3198 18.9424 42.142C18.4555 42.0269 17.9292 42.0813 17.4194 42.0604C17.3861 42.4642 17.3507 42.8679 17.3195 43.2717C17.3195 43.3763 17.3299 43.4809 17.3195 43.5855C17.2904 43.8408 17.3653 43.9768 17.6545 43.9412C18.4492 43.8759 19.2467 44.0285 19.962 44.3826C20.9316 44.8136 21.9157 44.7739 22.9165 44.7697C23.0767 44.7528 23.2333 44.7104 23.3804 44.6442C25.4111 43.9391 25.4112 43.9538 27.3483 43.9307C27.9083 43.9351 28.4624 44.0459 28.9815 44.2571C29.8824 44.594 30.7896 44.8492 31.78 44.799C32.3054 44.7638 32.8235 44.6561 33.3197 44.4789C34.1811 44.1902 35.0446 43.8596 36.1057 43.9517H36.1099ZM19.8246 17.7204C19.7925 17.9004 19.8089 18.0858 19.8722 18.2573C19.9355 18.4288 20.0434 18.58 20.1846 18.6953C21.0959 19.551 21.9573 20.4569 22.8374 21.344C22.956 21.4653 23.0226 21.5825 23.2119 21.3879C24.2272 20.3419 25.2655 19.3146 26.2871 18.2769C26.3745 18.187 26.4952 18.0217 26.4599 17.9422C26.3614 17.601 26.1998 17.2816 25.9834 17.0007C25.5245 16.5529 25.0426 16.1297 24.5394 15.7329C24.1046 15.3605 23.6593 15.0027 23.2349 14.6199C23.0892 14.486 23.0268 14.4462 22.8582 14.6073C21.9927 15.4316 21.1376 16.281 20.2138 17.0279C19.9495 17.2413 19.7435 17.3543 19.8246 17.7204ZM12.4966 27.1957C13.4287 27.1957 14.3692 27.1957 15.293 27.1957C15.5323 27.1957 15.6655 27.1727 15.6613 26.8693C15.6447 25.5136 15.6613 24.16 15.6613 22.8064C15.6613 22.3545 15.499 22.1788 15.0766 22.1788C14.4525 22.1641 13.8283 22.1913 13.2041 22.1683C12.8691 22.1558 12.7047 22.1913 12.7318 22.6076C12.7775 23.2981 12.7463 23.9947 12.7443 24.6998C12.7443 25.2856 12.5362 25.499 11.939 25.5366C11.5229 25.5576 11.1068 25.5366 10.6906 25.5366C10.2745 25.5366 9.87504 25.5659 9.46724 25.5827C9.44851 26.0262 9.43597 26.4697 9.40892 26.9133C9.39436 27.1329 9.4734 27.2145 9.69603 27.2125C10.6198 27.1978 11.5541 27.202 12.4862 27.202L12.4966 27.1957ZM23.1183 27.1957V27.1476H26.8365C25.9668 26.2354 25.097 25.3246 24.2273 24.4153C23.8923 24.0659 23.5407 23.729 23.2037 23.3796C23.1038 23.2771 23.0475 23.2039 22.904 23.3504C21.7846 24.4906 20.6527 25.6161 19.5354 26.7564C19.4584 26.8359 19.4543 26.9886 19.4168 27.1078C19.5039 27.149 19.5964 27.1772 19.6915 27.1915C20.8233 27.2041 21.9656 27.202 23.1079 27.202L23.1183 27.1957ZM20.7568 10.5423C20.8754 10.7912 20.9212 11.103 21.0772 11.1699C21.5974 11.4084 21.8949 11.8771 22.3089 12.216C22.517 12.3834 22.7479 12.5026 22.9518 12.6679C23.1557 12.8332 23.2432 12.7474 23.3867 12.6177C23.9901 12.0695 24.6018 11.5298 25.2093 10.9858C25.2863 10.9168 25.3571 10.8394 25.4299 10.7766C25.0013 10.5109 25.4299 9.90209 24.9306 9.61337C24.3605 9.29118 23.8715 8.82463 23.3201 8.45851C23.2362 8.41485 23.1431 8.39207 23.0486 8.39207C22.9541 8.39207 22.861 8.41485 22.7771 8.45851C22.1945 8.92296 21.6348 9.4188 21.0939 9.92301C20.9489 10.1137 20.8319 10.3244 20.7464 10.5486L20.7568 10.5423ZM43.1195 37.8991C43.1129 37.8345 43.0953 37.7715 43.0675 37.7129C42.7783 37.3447 42.4871 36.9786 42.1896 36.6187C41.8463 36.2003 41.3573 35.9178 41.1492 35.3802C41.0681 35.1709 40.9079 35.1124 40.7123 35.353C40.2441 35.9325 39.7448 36.4848 39.2558 37.0413C39.0311 37.2945 38.7939 37.5351 38.5608 37.7798C38.7564 37.9765 39.0581 38.1439 39.1268 38.3782C39.2662 38.8573 39.6927 39.0456 39.9591 39.3887C40.1671 39.6565 40.4625 39.8699 40.6061 40.1649C40.7497 40.4599 40.8766 40.439 41.0389 40.2632C41.7089 39.5393 42.3643 38.7987 43.0218 38.0665C43.056 38.0157 43.0853 37.9618 43.1092 37.9054L43.1195 37.8991ZM13.5827 40.3992C13.6635 40.3568 13.739 40.3048 13.8074 40.2444C14.4705 39.5135 15.1314 38.7799 15.7902 38.0435C15.9505 37.8656 15.8049 37.7589 15.7133 37.6104C15.2181 36.8154 14.5003 36.2275 13.874 35.5559C13.6659 35.3467 13.512 35.2797 13.2914 35.5308C12.6672 36.2484 12.0201 36.9514 11.3897 37.6669C11.375 37.7002 11.3684 37.7366 11.3706 37.773C11.3728 37.8094 11.3836 37.8448 11.4022 37.8761C11.7871 38.3468 12.1928 38.7987 12.5694 39.2736C12.8399 39.6147 13.3122 39.7904 13.3871 40.2925C13.3871 40.3323 13.4891 40.3553 13.5827 40.3992ZM27.5105 25.1266C27.2713 24.7082 27.2858 24.0345 27.3025 23.3608C27.3025 23.3336 27.2713 23.3022 27.2463 23.2813C26.9467 23.0324 27.161 22.6955 27.0965 22.4068C27.0004 22.0953 26.9348 21.7751 26.9009 21.4507C26.9079 21.0183 26.8374 20.5881 26.6928 20.1808C26.5576 19.8272 26.4952 19.7623 26.2518 20.0134C25.5381 20.7205 24.837 21.4402 24.1233 22.1453C23.9298 22.3336 23.9402 22.4675 24.1233 22.6537C25.1782 23.6998 26.2247 24.7605 27.2755 25.817C27.3212 25.8609 27.3732 25.9007 27.421 25.9425C27.4608 25.8919 27.4911 25.8345 27.5105 25.7731C27.523 25.6287 27.5043 25.4885 27.5043 25.1203L27.5105 25.1266ZM22.1134 22.434C22.0801 22.342 22.0738 22.2645 22.0322 22.2248C21.279 21.4612 20.5237 20.6975 19.7601 19.9444C19.706 19.89 19.5771 19.8941 19.4855 19.9046C19.4502 19.9046 19.4023 20.0092 19.4002 20.0678C19.3336 21.0281 19.1671 21.9716 19.0069 22.9194C18.932 23.3734 18.8259 23.8295 18.7843 24.2876C18.7427 24.7458 18.7843 25.2228 18.5763 25.6601C18.5513 25.7103 18.5763 25.7919 18.5763 25.8588C18.6491 25.8463 18.749 25.8588 18.7843 25.8149C19.8385 24.7646 20.8886 23.7102 21.9345 22.6516C21.9991 22.5834 22.0589 22.5107 22.1134 22.434ZM23.1537 3.56082C23.2556 3.56082 23.3618 3.56082 23.4637 3.56082L24.5706 3.48341C24.5706 3.1382 24.5956 2.79509 24.5935 2.45198C24.5935 2.00635 24.5686 1.56073 24.5561 1.1151C24.1171 1.09418 23.6759 1.05234 23.2369 1.05443C22.6605 1.05443 22.0842 1.09837 21.5058 1.12347C21.4954 1.75112 21.4726 2.36202 21.4788 2.98338C21.4788 3.40181 21.6681 3.54617 22.1175 3.55872C22.4587 3.56918 22.8041 3.56082 23.1537 3.56082ZM3.16495 25.9467C3.16495 25.635 3.14414 25.3191 3.16495 25.0115C3.18576 24.704 3.04427 24.6642 2.80084 24.6831C2.63023 24.6956 2.45546 24.6831 2.28484 24.6831C1.01773 24.6412 1.03645 24.7165 1.08014 25.9383C1.09262 26.3442 1.12593 26.7501 1.14882 27.156C1.56495 27.1664 1.96644 27.1873 2.37424 27.1873C3.15657 27.1873 3.15657 27.1873 3.15865 26.3505L3.16495 25.9467ZM12.4404 21.1348C12.7825 21.1481 13.125 21.1404 13.4662 21.1118C13.5124 21.1075 13.5568 21.0911 13.5947 21.0641C13.6326 21.0372 13.6628 21.0006 13.6822 20.9582C13.7016 20.9158 13.7096 20.869 13.7052 20.8225C13.7009 20.776 13.6845 20.7314 13.6576 20.6933C13.2061 19.8858 12.8253 19.0364 12.4092 18.2079C12.3281 18.0489 12.1741 17.9526 12.0514 18.1807C11.7185 18.8083 11.3272 19.4046 11.0921 20.0636C10.8279 20.8063 11.1337 21.139 11.9244 21.1473L12.4404 21.1348ZM40.8558 44.776C41.4238 44.7655 41.9169 44.8053 42.3997 44.5667C42.7346 44.4057 42.7929 44.3701 42.5765 44.119C42.0917 43.5583 41.4363 43.1483 41.1076 42.4453C41.0181 42.2507 40.887 42.2654 40.7435 42.4453C40.3128 42.9642 39.8758 43.4767 39.4264 43.981C39.0748 44.3743 39.1268 44.2697 39.649 44.596C40.0943 44.8785 40.5084 44.6735 40.8517 44.7781L40.8558 44.776ZM12.6839 44.776C12.9939 44.776 13.3892 44.8952 13.5952 44.7488C13.9135 44.5186 14.2444 44.6421 14.544 44.5249C14.6621 44.4755 14.7773 44.4196 14.8893 44.3575C15.2201 44.1776 15.2389 44.0584 14.9809 43.7927C14.5648 43.3575 14.0883 42.9684 13.8116 42.4098C13.7263 42.2382 13.6285 42.2884 13.5182 42.4098C13.0376 42.9725 12.5445 43.527 12.0617 44.0835C11.914 44.2571 11.5874 44.3973 11.7226 44.6421C11.7913 44.7655 12.1387 44.732 12.3738 44.7613C12.4754 44.7723 12.5776 44.7772 12.6797 44.776H12.6839ZM23.2077 4.60689C22.8966 4.62469 22.5847 4.62469 22.2736 4.60689C22.1546 4.58392 22.0314 4.60521 21.9269 4.66679C21.8224 4.72838 21.7438 4.82605 21.7056 4.94163C21.6411 5.22198 21.7326 5.53998 21.7576 5.84334C22.1737 5.88518 22.3297 6.29315 22.6294 6.49609C22.9955 6.74505 23.1849 6.7053 23.5573 6.39566C23.8361 6.16134 24.142 5.96259 24.4187 5.72409C24.4684 5.68296 24.5087 5.63164 24.5371 5.57354C24.5654 5.51545 24.5812 5.45193 24.5831 5.38725C24.5526 5.13164 24.4589 4.8878 24.3105 4.67802C24.2107 4.56923 23.9277 4.62571 23.7259 4.61734C23.524 4.60897 23.3764 4.60689 23.2037 4.60689H23.2077ZM38.3279 41.303C38.3279 41.8239 38.3279 42.3491 38.3279 42.8616C38.3279 43.0541 38.5463 43.1964 38.6525 43.0709C39.0998 42.5708 39.5367 42.0583 39.9632 41.5394C40.0048 41.4892 39.9632 41.3469 39.9341 41.2653C39.6116 40.5645 38.9728 40.1377 38.4776 39.5916C38.4277 39.6418 38.3341 39.6921 38.332 39.7444C38.3195 40.2653 38.3237 40.7842 38.3237 41.303H38.3279ZM38.3279 34.104C38.3279 34.5893 38.3175 35.0747 38.3279 35.5685C38.3555 35.7181 38.4038 35.8632 38.4714 35.9994C38.6213 35.9343 38.7613 35.8484 38.8875 35.7442C39.2413 35.3446 39.57 34.9199 39.9154 34.514C40.0652 34.3362 39.9341 34.2379 39.8675 34.0789C39.5908 33.4156 38.9687 33.0746 38.5401 32.5537C38.4974 32.5201 38.4486 32.4952 38.3964 32.4805C38.3659 32.5368 38.3443 32.5974 38.332 32.6604C38.3216 33.1353 38.3237 33.6207 38.3237 34.104H38.3279ZM11.0714 34.1709C11.0714 34.6898 11.0714 35.217 11.0714 35.7296C11.0714 35.8174 11.1213 35.9388 11.1858 35.9764C11.2326 35.9872 11.2813 35.9864 11.3277 35.974C11.3741 35.9616 11.4168 35.938 11.4521 35.9053C11.708 35.6019 11.9265 35.2777 12.1908 34.9722C12.79 34.3006 12.8025 34.3048 12.3115 33.6039C12.1858 33.443 12.0466 33.2932 11.8953 33.1562C11.6561 32.9156 11.4105 32.6813 11.1671 32.4428C11.1359 32.7775 11.0964 33.1102 11.0756 33.4449C11.0548 33.6855 11.0672 33.9282 11.0672 34.1709H11.0714ZM11.0714 41.2193C11.0714 41.7737 11.0714 42.3261 11.0714 42.8805C11.0766 42.9247 11.0926 42.967 11.118 43.0035C11.1435 43.04 11.1774 43.0696 11.217 43.0897C11.2645 43.0961 11.3129 43.0907 11.3579 43.0739C11.4029 43.0571 11.4431 43.0295 11.475 42.9935C11.7663 42.4432 12.2344 42.052 12.6423 41.6064C12.6701 41.5535 12.6859 41.4951 12.6884 41.4354C12.6909 41.3757 12.68 41.3162 12.6568 41.2612C12.3988 40.6482 11.8557 40.2695 11.4209 39.7967C11.3299 39.7197 11.2333 39.6497 11.1318 39.5875C11.1012 39.7155 11.0796 39.8455 11.0672 39.9766C11.061 40.3867 11.0672 40.803 11.0672 41.2193H11.0714ZM13.6119 31.3863V31.3402L11.9078 31.4909C12.2719 31.8591 12.6465 32.2168 12.996 32.5955C13.1048 32.7545 13.2048 32.9193 13.2956 33.0893C13.4288 33.2713 13.589 33.3675 13.7908 33.1562C14.2319 32.696 14.7271 32.2838 15.0392 31.7022C15.0951 31.6205 15.1608 31.546 15.2347 31.4804C15.1495 31.4371 15.0584 31.4068 14.9643 31.3905C14.5024 31.3821 14.055 31.3863 13.6077 31.3863H13.6119ZM42.4975 31.4825C42.4224 31.4392 42.3409 31.4081 42.2561 31.3905C41.2928 31.3905 40.3315 31.3905 39.3682 31.3905C39.3542 31.3802 39.3381 31.3733 39.321 31.3701C39.304 31.3669 39.2865 31.3676 39.2697 31.3721C39.253 31.3765 39.2375 31.3847 39.2243 31.396C39.2111 31.4072 39.2006 31.4213 39.1934 31.4372C39.1863 31.4531 39.1828 31.4703 39.1832 31.4877C39.1836 31.5052 39.1878 31.5223 39.1956 31.5378C39.2033 31.5534 39.2144 31.567 39.2281 31.5777C39.2417 31.5884 39.2576 31.5959 39.2745 31.5997C39.5887 31.9198 39.8987 32.2482 40.2253 32.5495C40.4584 32.7587 40.4334 33.3152 40.8308 33.2336C41.1159 33.1751 41.3614 32.8403 41.5882 32.5934C41.8754 32.2754 42.1251 31.9219 42.3935 31.5829C42.4101 31.562 42.4371 31.539 42.5037 31.4825H42.4975ZM16.0733 41.3679C16.0733 40.9202 16.0733 40.4703 16.0733 40.0205C16.054 39.8596 16.0206 39.7006 15.9734 39.5456C15.846 39.6615 15.7251 39.7844 15.6113 39.9138C15.3845 40.1963 15.1952 40.5122 14.9497 40.7758C14.4233 41.3386 14.4087 41.3344 14.8331 41.9327C14.9593 42.0932 15.0985 42.243 15.2493 42.3805C15.4906 42.619 15.7334 42.8561 15.9775 43.0918C16.0087 42.7591 16.0483 42.4265 16.0691 42.0938C16.0795 41.8532 16.0608 41.6106 16.0608 41.3616L16.0733 41.3679ZM16.0733 34.2546C16.0733 33.7357 16.0733 33.219 16.0733 32.7001C16.0548 32.606 16.0211 32.5155 15.9734 32.4323C15.9184 32.4743 15.8699 32.5244 15.8298 32.5809C15.5593 33.1437 15.1016 33.5495 14.6542 33.9491C14.4149 34.1584 14.4961 34.3111 14.623 34.4931C14.7476 34.6869 14.8867 34.8708 15.0392 35.0433C15.345 35.3655 15.6634 35.671 15.9838 35.9785C16.015 35.5413 16.0483 35.1061 16.0753 34.6688C16.067 34.5328 16.0608 34.3927 16.0608 34.2483L16.0733 34.2546ZM10.726 15.4965L11.0464 15.4149C10.9882 15.3103 10.9278 15.2057 10.8717 15.1011C10.5242 14.4462 10.1622 13.8018 9.83135 13.1365C9.71275 12.8939 9.6378 13.0173 9.57747 13.1261C9.30282 13.5989 9.02614 14.0738 8.79103 14.5676C8.76836 14.6401 8.76064 14.7165 8.76847 14.7921C8.7763 14.8677 8.7995 14.9409 8.83654 15.0071C8.87358 15.0734 8.92369 15.1313 8.98385 15.1773C9.04401 15.2233 9.11294 15.2565 9.18633 15.2747C9.66904 15.3542 10.16 15.4191 10.7135 15.4965H10.726ZM11.4959 23.2709C11.4813 23.0284 11.4813 22.7853 11.4959 22.5428C11.5396 22.1746 11.3315 22.1557 11.0631 22.1788C10.8717 22.1955 10.7593 22.1788 10.6261 22.4424C10.3889 22.9089 9.91453 23.2478 9.62948 23.6977C9.2508 24.2939 9.37564 24.2897 9.94158 24.2751C10.3577 24.2639 10.7738 24.2639 11.19 24.2751C11.398 24.2751 11.5104 24.2312 11.4979 23.9968C11.4854 23.7625 11.4834 23.5136 11.4834 23.2709H11.4959ZM43.3297 34.24C43.3297 33.7901 43.3297 33.3403 43.3297 32.8926C43.3097 32.7399 43.2735 32.5898 43.2215 32.4449C43.1196 32.5746 43.0281 32.7127 42.9178 32.8361C42.562 33.242 42.1999 33.6437 41.8358 34.0433C41.7505 34.1374 41.6797 34.173 41.7858 34.3446C42.1685 34.8994 42.6125 35.409 43.1092 35.8634C43.1548 35.9023 43.2034 35.9373 43.2548 35.968C43.2818 35.9095 43.3318 35.8509 43.3318 35.7944C43.3193 35.2756 43.3172 34.7567 43.3172 34.2483L43.3297 34.24ZM43.3297 41.3135C43.3297 41.0017 43.3297 40.6858 43.3297 40.3804C43.3297 40.1126 43.284 39.8469 43.2611 39.5791C43.1154 39.7737 42.9822 39.9766 42.822 40.1565C42.6618 40.3364 42.4351 40.5498 42.2416 40.7465C42.0481 40.9432 41.7047 41.144 41.7151 41.3302C41.7151 41.5771 42.0148 41.8135 42.1854 42.052C42.2062 42.0796 42.2299 42.1048 42.2561 42.1273L43.2777 43.052C43.2971 42.6099 43.3151 42.1685 43.3318 41.7277C43.3214 41.5896 43.3172 41.4516 43.3172 41.3135H43.3297ZM4.49441 6.49609C3.96801 6.46889 3.92638 6.53165 4.1178 6.92916C4.42366 7.56726 4.72544 8.20745 5.03753 8.83928C5.03835 8.86675 5.0445 8.8938 5.05572 8.91887C5.06693 8.94394 5.08296 8.96653 5.10286 8.98537C5.12276 9.00422 5.14618 9.01895 5.17174 9.0287C5.1973 9.03845 5.22447 9.04305 5.25179 9.04222C5.27912 9.0414 5.30601 9.03516 5.33094 9.02389C5.35587 9.01261 5.37833 8.99651 5.39707 8.9765C5.41581 8.95649 5.43045 8.93296 5.44015 8.90726C5.44985 8.88157 5.45448 8.8542 5.45366 8.82673C5.6971 8.26813 5.91348 7.69697 6.17356 7.15302C6.2443 7.00238 6.27341 7.00657 6.10488 6.90405C5.56599 6.56931 4.91262 6.81828 4.49441 6.49609ZM11.319 16.8794C11.217 16.825 11.1421 16.7517 11.0651 16.7476C10.4835 16.6794 9.90963 16.5568 9.35071 16.3814C9.23165 16.3728 9.11196 16.3848 8.99696 16.417C9.00189 16.5125 9.02015 16.6069 9.05111 16.6974C9.33615 17.2727 9.62119 17.848 9.92705 18.4129C10.0583 18.6247 10.2036 18.8274 10.3619 19.0196C10.4347 18.8104 10.4909 18.5887 10.5824 18.392C10.7655 17.9736 10.9674 17.5823 11.1629 17.1765C11.2046 17.0928 11.2545 17.0007 11.319 16.8836V16.8794ZM7.8589 10.4649H7.96293C8.43108 10.4649 8.43936 10.446 8.23338 10.0234C7.96428 9.4739 7.69521 8.92367 7.42611 8.37274C7.35745 8.23466 7.27837 8.10285 7.20555 7.96686C7.09686 8.09211 6.99809 8.22571 6.91011 8.36645C6.7291 8.70747 6.55221 9.05268 6.40448 9.41252C6.33382 9.59302 6.2985 9.78554 6.30045 9.9795C6.30045 10.0695 6.45232 10.2473 6.49185 10.2368C6.98288 10.0987 7.38243 10.5318 7.8589 10.4649ZM8.78056 12.0319C8.67029 11.9294 8.57248 11.7599 8.44764 11.7327C8.00238 11.6323 7.54463 11.5821 7.09105 11.5109C6.88299 11.4775 6.69368 11.4377 6.49602 11.4022C6.554 11.615 6.62346 11.8245 6.70408 12.0298C6.83308 12.3227 6.98498 12.6051 7.13687 12.8876C7.25963 13.1135 7.39074 13.3374 7.53014 13.5529C7.63001 13.7077 7.75061 13.8458 7.86296 13.9922C7.95867 13.8248 8.14802 13.6491 8.13554 13.4901C8.08977 12.9817 8.51842 12.6679 8.59332 12.2181C8.60581 12.1679 8.68693 12.126 8.78056 12.0319ZM6.00704 5.49813C5.71367 4.95418 5.39539 4.5504 5.28512 4.0964C5.17484 3.64241 4.92302 3.71982 4.70248 3.80769C4.34668 3.95414 4.04502 4.23867 3.68714 4.37047C3.41042 4.4709 3.11291 4.57969 3.19198 4.8684C3.23775 5.03577 3.5977 5.12155 3.81617 5.23034C3.87235 5.25754 3.95349 5.23034 4.02423 5.23034C4.57144 5.33285 5.11452 5.43955 5.66173 5.54416C5.77822 5.54208 5.89403 5.52664 6.00704 5.49813ZM25.5214 12.3876C25.1948 12.6323 24.8723 12.8583 24.5685 13.1093C24.3604 13.2851 24.1774 13.4964 23.9839 13.691C24.1941 13.8261 24.3962 13.9735 24.5893 14.1324C24.8931 14.4086 25.174 14.714 25.4652 15.0048C25.5573 15.1027 25.6583 15.1917 25.767 15.2705C25.7979 15.2834 25.8314 15.2886 25.8647 15.2857C25.898 15.2828 25.9302 15.2718 25.9584 15.2538C26.0042 15.2224 26.0582 15.1178 26.0416 15.0927C25.7732 14.7015 25.9563 14.2182 25.8107 13.8374C25.673 13.3943 25.6104 12.931 25.6255 12.4671C25.6255 12.4357 25.5443 12.4043 25.5214 12.3876ZM20.2408 14.8395H20.2304C20.22 14.9418 20.22 15.0448 20.2304 15.1471C20.2583 15.1647 20.2897 15.1761 20.3224 15.1804C20.355 15.1848 20.3882 15.182 20.4197 15.1722C20.8358 14.8395 21.252 14.5048 21.6452 14.1512C21.8082 13.9844 21.9585 13.8053 22.0947 13.6156C21.9324 13.4817 21.7596 13.3583 21.6077 13.214C21.3761 13.0086 21.158 12.7885 20.9545 12.5549C20.6216 12.1511 20.6944 12.5779 20.582 12.7076C20.1659 13.1867 20.7235 13.8604 20.2449 14.3374C20.1596 14.4211 20.2408 14.668 20.2408 14.8395ZM21.6182 7.20532L21.6327 7.16766C21.6099 7.15717 21.5863 7.14877 21.562 7.14256C21.445 7.29598 21.351 7.46586 21.2831 7.64676C21.2732 7.81091 21.2937 7.97549 21.3435 8.13214C21.4662 8.03171 21.589 7.92293 21.7076 7.82669C21.7612 7.78325 21.8101 7.73415 21.8533 7.68024C21.9261 7.58609 21.9906 7.48566 22.0613 7.38733L21.6182 7.20532ZM24.8577 7.51705L24.6497 7.11745L24.1836 7.53588L24.6767 7.91875L24.8577 7.51705Z" fill="#393939"/>
<path d="M49.9749 48.297C49.9603 48.8284 49.8355 48.9791 49.307 48.9519C48.9132 48.9464 48.523 48.8757 48.1522 48.7427C47.6171 48.5178 47.0588 48.3536 46.4876 48.2531C45.9081 48.1304 45.309 48.1354 44.7316 48.2677C44.0044 48.4186 43.2946 48.6444 42.6135 48.9414C42.4463 48.9795 42.2738 48.988 42.1038 48.9665C41.688 48.9413 41.2711 48.9413 40.8554 48.9665C39.8608 49.0962 38.935 48.8054 38.0153 48.523C36.5817 48.0857 36.5984 48.1694 35.2501 48.2866C34.4969 48.3535 33.906 48.8389 33.1695 48.8243C32.9822 48.8243 32.7949 48.9393 32.6035 48.9519C32.2581 48.9749 31.9086 48.9268 31.5632 48.9644C30.5749 49.069 29.6365 48.8494 28.7231 48.5293C28.1367 48.3298 27.5304 48.1951 26.915 48.1276C26.037 48.0251 25.2172 48.3368 24.4183 48.6381C23.8663 48.8635 23.2745 48.9738 22.6789 48.9623C21.7675 48.9331 20.85 49.0397 19.9574 48.7531C19.3755 48.555 18.7838 48.3874 18.1847 48.251C17.6064 48.1175 17.0052 48.1211 16.4286 48.2615C15.7018 48.4136 14.9921 48.6393 14.3105 48.9351C14.1433 48.9733 13.9707 48.9818 13.8007 48.9602C13.3849 48.935 12.968 48.935 12.5523 48.9602C11.5577 49.0879 10.6319 48.7992 9.71436 48.5188C8.27663 48.0795 8.2953 48.1631 6.94704 48.2803C6.19384 48.3472 5.60294 48.8305 4.86639 48.818C4.67913 48.818 4.49188 48.9393 4.30254 48.9456C3.74701 48.9644 3.18524 48.8933 2.63803 48.9665C1.8349 49.0732 1.15454 48.6841 0.417995 48.523C0.0767689 48.4477 -0.0854687 47.9372 0.0560152 47.5794C0.166289 47.297 0.505358 47.2342 0.913164 47.4204C2.26975 48.0481 3.6742 48.1318 5.04327 47.5627C6.36864 47.0125 7.73354 47.0187 9.10053 47.092C9.69559 47.1254 10.2865 47.3911 10.8607 47.5983C12.0121 48.0587 13.2974 48.0459 14.4395 47.5627C14.9348 47.3259 15.4631 47.1664 16.0062 47.0899C16.9068 47.0301 17.8104 47.0301 18.711 47.0899C19.0169 47.1045 19.3144 47.2991 19.6181 47.4016C20.6273 47.751 21.6551 48.0292 22.7391 47.9037C23.1595 47.8663 23.5716 47.7632 23.9605 47.5983C24.7472 47.249 25.5972 47.0666 26.4573 47.0627C27.5522 47.0331 28.6418 47.2252 29.6614 47.6276C31.0804 48.1715 32.5391 47.9665 33.9185 47.4183C34.471 47.2037 35.0555 47.0849 35.6475 47.0669C36.9445 47.003 38.2402 47.2169 39.4488 47.6945C39.9636 47.8965 40.5132 47.9939 41.0657 47.981C41.6182 47.968 42.1627 47.8451 42.6676 47.6192C44.0845 46.9915 45.5493 47.0794 47.0203 47.0878C47.2013 47.0878 47.3761 47.23 47.5592 47.2844C48.2687 47.4937 48.9719 47.751 49.696 47.8932C49.9935 47.956 49.9811 48.0836 49.9749 48.297Z" fill="#393939"/>
<path d="M32.4973 13.4462C32.4973 13.1324 32.4973 12.8185 32.4973 12.5068C32.4973 12.0214 32.7427 11.7453 33.2462 11.7264C33.8704 11.7013 34.4946 11.7076 35.1188 11.7264C35.2986 11.7579 35.464 11.8457 35.5914 11.9771C35.7188 12.1086 35.8017 12.2771 35.8283 12.4587C35.8429 13.1533 35.8429 13.85 35.8283 14.5508C35.8012 14.7323 35.7178 14.9006 35.5901 15.0317C35.4623 15.1628 35.2967 15.25 35.1168 15.281C34.4232 15.2963 33.7297 15.2963 33.0361 15.281C32.6803 15.281 32.5139 15.0864 32.4993 14.7057C32.4868 14.2809 32.4973 13.8625 32.4973 13.4462ZM34.1056 12.9754C33.5459 12.9754 33.5459 12.9754 33.5376 13.3939C33.5272 14.0215 33.5272 14.0215 34.0099 14.0215C34.5779 14.0215 34.5779 14.0215 34.5779 13.4943C34.5779 12.9671 34.5779 12.9796 34.1056 12.9754Z" fill="#393939"/>
<path d="M34.0458 10.0799L32.529 9.97322C32.5186 9.49203 32.504 9.01294 32.4978 8.53175C32.4978 8.11332 32.4874 7.69488 32.4978 7.27646C32.5082 6.85803 32.6747 6.70112 33.0263 6.69484C33.7836 6.68229 34.541 6.69484 35.2983 6.69484C35.3652 6.68792 35.4328 6.6955 35.4965 6.71708C35.5603 6.73866 35.6186 6.77373 35.6677 6.81994C35.7168 6.86614 35.7556 6.92239 35.7812 6.9849C35.8068 7.04742 35.8188 7.11474 35.8164 7.18231C35.8413 7.97942 35.8434 8.77652 35.8164 9.57153C35.8175 9.63915 35.8042 9.70624 35.7772 9.76821C35.7503 9.83018 35.7105 9.88558 35.6603 9.93065C35.6102 9.97571 35.5509 10.0094 35.4867 10.0294C35.4224 10.0494 35.3546 10.0552 35.2879 10.0465C34.8717 10.036 34.4556 10.0465 34.0395 10.0465L34.0458 10.0799ZM34.0603 9.00038C34.5742 9.00038 34.5743 9.00038 34.5784 8.52756C34.5784 7.95431 34.5784 7.95431 34.0561 7.95431C33.5339 7.95431 33.5423 7.95432 33.5381 8.42714C33.5319 9.00039 33.5318 9.00038 34.0603 9.00038Z" fill="#393939"/>
<path d="M34.039 20.3335L32.516 20.231C32.5056 19.7498 32.4952 19.2686 32.489 18.7874C32.489 18.369 32.4786 17.9505 32.489 17.5321C32.5036 17.1534 32.67 16.9631 33.0237 16.9568C33.781 16.9442 34.5384 16.9568 35.2957 16.9568C35.3627 16.95 35.4303 16.9579 35.4938 16.9799C35.5574 17.0019 35.6155 17.0375 35.6641 17.0842C35.7127 17.1309 35.7508 17.1877 35.7756 17.2505C35.8003 17.3134 35.8112 17.3809 35.8076 17.4484C35.8305 18.21 35.8242 18.9715 35.8076 19.7331C35.8172 19.8078 35.8101 19.8838 35.7866 19.9554C35.7632 20.027 35.724 20.0924 35.6721 20.1468C35.6202 20.2012 35.5569 20.2432 35.4867 20.2697C35.4166 20.2962 35.3414 20.3066 35.2667 20.3C34.8506 20.3168 34.4344 20.3 34.0183 20.3L34.039 20.3335ZM34.578 18.5866C34.5725 18.5169 34.5725 18.447 34.578 18.3774C34.6279 18.0552 34.4843 17.9589 34.1805 17.9882C33.6229 18.0238 33.3275 18.4527 33.5563 18.9548C33.7166 19.2895 34.0474 19.2623 34.3532 19.2456C34.6966 19.2288 34.5301 18.9569 34.5613 18.7874C34.5739 18.7212 34.5795 18.6539 34.578 18.5866Z" fill="#393939"/>
<path d="M35.7745 24.6914C35.9461 24.7082 36.1189 24.7082 36.2905 24.6914C36.7587 24.5952 36.613 25.1224 36.8669 25.2375C36.7649 25.4028 36.7004 25.6245 36.5548 25.725C36.2897 25.8895 35.9819 25.971 35.6707 25.9591C35.3594 25.9472 35.0587 25.8424 34.8069 25.658C34.7184 25.6055 34.6485 25.5264 34.6071 25.4318C34.5657 25.3372 34.5548 25.2319 34.576 25.1308C34.5883 25.0122 34.6438 24.9024 34.7318 24.8225C34.8197 24.7425 34.9339 24.6981 35.0525 24.6977C35.2918 24.6852 35.5332 24.6914 35.7745 24.6914Z" fill="#393939"/>
<path d="M42.8304 24.6914H43.4546C43.5733 24.6864 43.6896 24.7268 43.7799 24.8044C43.8702 24.882 43.9279 24.9912 43.9415 25.1099C43.9678 25.2098 43.9617 25.3155 43.9243 25.4118C43.8869 25.508 43.8201 25.5899 43.7334 25.6454C43.4581 25.8541 43.1201 25.962 42.7754 25.9513C42.4308 25.9407 42.1 25.8121 41.8379 25.5869C41.7464 25.5032 41.7506 25.3086 41.709 25.1684C41.9753 25.1245 41.7318 24.6517 42.1146 24.6893C42.3456 24.7103 42.589 24.6914 42.8304 24.6914Z" fill="#393939"/>
<path d="M39.2529 24.6914C39.424 24.7167 39.5978 24.7167 39.7689 24.6914C40.2537 24.5345 40.2225 25.0073 40.3577 25.2061C40.5408 25.4718 40.2391 25.6245 40.054 25.7396C39.8177 25.8898 39.5439 25.9696 39.2644 25.9696C38.9848 25.9696 38.7111 25.8898 38.4748 25.7396C38.2813 25.6266 37.9838 25.4718 38.1544 25.2124C38.2854 25.0032 38.2542 24.5408 38.739 24.6893C38.9093 24.7152 39.0824 24.7159 39.2529 24.6914Z" fill="#393939"/>
<path d="M32.1857 24.6914H32.6018C32.6689 24.6854 32.7364 24.6939 32.7999 24.7162C32.8634 24.7386 32.9214 24.7743 32.9701 24.8211C33.0188 24.8678 33.0569 24.9245 33.082 24.9873C33.1072 25.0501 33.1186 25.1176 33.1157 25.1852C33.1323 25.4237 33.2322 25.6601 32.7994 25.7856C32.1565 25.9718 31.6634 26.0199 31.3118 25.6998C31.0871 25.4906 30.9456 25.2626 31.0767 24.9906C31.124 24.8777 31.2094 24.7852 31.3179 24.7293C31.4263 24.6735 31.5509 24.6578 31.6697 24.6852C31.8411 24.7028 32.0138 24.7049 32.1857 24.6914Z" fill="#393939"/>
<path d="M39.5714 13.6742C39.5714 13.3269 39.5714 12.9775 39.5714 12.6281C39.5702 12.455 39.6336 12.2878 39.7492 12.1596C39.8648 12.0313 40.0242 11.9514 40.1956 11.9356C40.8192 11.8967 41.4446 11.8967 42.0682 11.9356C42.6487 11.9838 42.9005 12.3332 42.9005 12.9566C42.9005 13.4776 42.9005 14.0027 42.9005 14.5194C42.9005 15.1345 42.5821 15.4693 41.9995 15.4797C41.3753 15.4902 40.7511 15.4923 40.1269 15.4797C40.0522 15.488 39.9767 15.4793 39.9058 15.4543C39.8349 15.4293 39.7704 15.3885 39.7173 15.3351C39.6642 15.2817 39.6236 15.2169 39.5987 15.1456C39.5739 15.0743 39.5652 14.9983 39.5735 14.9232C39.5589 14.509 39.5714 14.0905 39.5714 13.6742ZM41.6521 13.7119C41.6521 13.1805 41.6521 13.1805 41.0841 13.1847C40.6117 13.1847 40.6117 13.1847 40.6117 13.7035C40.6117 14.2224 40.6117 14.237 41.1798 14.2307C41.6521 14.2265 41.6521 14.2265 41.6521 13.7119Z" fill="#393939"/>
<path d="M39.6094 18.8753V17.4359C40.0817 17.415 40.5541 17.3836 41.0264 17.371C41.4425 17.3599 41.8586 17.3599 42.2748 17.371C42.7221 17.371 42.899 17.5342 42.899 17.9547C42.9135 18.6807 42.9114 19.4192 42.899 20.1347C42.899 20.5155 42.7201 20.7059 42.3684 20.7122C41.6111 20.7268 40.8537 20.7122 40.0964 20.7122C40.0294 20.7181 39.9619 20.7097 39.8985 20.6875C39.835 20.6653 39.7769 20.6298 39.7281 20.5833C39.6793 20.5368 39.6409 20.4804 39.6154 20.4179C39.5899 20.3553 39.5781 20.2881 39.5804 20.2205C39.5533 19.7707 39.5804 19.3188 39.5804 18.869L39.6094 18.8753ZM41.6527 18.938C41.6527 18.4192 41.6527 18.4192 41.1846 18.415C40.6124 18.415 40.6124 18.415 40.6124 18.938C40.6124 19.4611 40.6124 19.4569 41.0805 19.4611C41.6527 19.4674 41.6527 19.4674 41.6527 18.938Z" fill="#393939"/>
</g>
<defs>
<clipPath id="clip0_57_1590">
<rect width="50" height="49" fill="white"/>
</clipPath>
</defs>
</svg>
