<svg width="39" height="44" viewBox="0 0 39 44" fill="none" xmlns="http://www.w3.org/2000/svg">
<g clip-path="url(#clip0_57_1658)">
<path d="M0 21.825L2.88835 15.9901V4.18291C3.16246 3.84191 3.53907 3.60134 3.96064 3.49795C4.4643 3.36243 4.93183 3.08221 5.42104 2.88075C6.6847 2.36063 7.92311 1.79106 9.20301 1.31123C9.74458 1.10794 10.2753 0.840555 10.8007 0.578661C11.2014 0.380867 11.6654 0.346062 12.03 0.0438767C12.1203 -0.0312118 12.3224 0.0328886 12.4867 0.0328886C13.0951 0.285625 13.059 0.981568 13.3893 1.46506H25.6107C25.9591 1.08596 25.8616 0.351565 26.5566 0.0182452C27.0314 -0.10446 27.47 0.32592 27.9646 0.494411C28.99 0.844214 29.9847 1.3039 30.9758 1.73978C31.9181 2.15368 32.8929 2.49799 33.8154 2.96134C34.2667 3.1866 34.7451 3.34228 35.2108 3.52542C35.5287 3.68393 35.8309 3.87281 36.1134 4.0895V15.9828C37.0864 17.9516 38.0215 19.8489 39.0018 21.8232C39.0018 27.3449 39.0018 32.9601 39.0018 38.5753C39.0058 38.9841 38.8749 39.3825 38.6299 39.7071C38.2887 40.1924 38.0396 40.74 37.7273 41.2473C37.3536 41.8572 37.0973 42.5439 36.5738 43.0531C35.9786 43.6504 35.1743 43.9843 34.3371 43.9816C31.1491 43.9963 27.9593 43.9816 24.7694 43.9926C24.2654 44.0112 23.7634 43.9187 23.2981 43.7214C22.8328 43.5241 22.4152 43.2267 22.0742 42.8498C21.9731 42.7381 21.863 42.6337 21.7547 42.5238H17.2218C16.7223 43.2069 15.999 43.6868 15.1819 43.8772C14.9903 43.9324 14.7938 43.968 14.5952 43.9834C11.2556 43.9834 7.91591 44.0164 4.57625 43.9706C4.0289 43.9793 3.4899 43.8335 3.01943 43.5496C2.54895 43.2656 2.16545 42.8547 1.9117 42.3626C1.30695 41.2638 0.660669 40.1979 0.00176291 39.0661L0 21.825ZM36.3012 19.7976L36.2669 19.8324L36.3933 19.9826L36.4492 19.924C36.4004 19.8819 36.3517 19.8398 36.4059 19.891L34.6602 16.3307V8.78345C34.6567 8.75499 34.6462 8.72791 34.6296 8.7047C34.6142 8.68714 34.5966 8.67174 34.5772 8.65891C33.6746 11.113 32.772 13.5745 31.8892 15.9974L34.7614 18.9112C35.1846 19.3447 35.7173 19.6514 36.3012 19.7976ZM2.62118 19.8251C3.27106 19.805 3.67183 19.4075 4.02385 19.0925C5.08893 18.12 6.07094 17.0542 7.10894 16.0011L4.41918 8.69187L4.33253 8.71385V16.3362C3.73139 17.567 3.18619 18.6805 2.72766 19.8416L2.69152 19.8068L2.54538 19.9332L2.60126 19.9918C2.64278 19.9332 2.68617 19.8837 2.62118 19.8251ZM20.2185 21.9899C20.2185 19.7921 20.2185 17.6622 20.2185 15.5286C20.2185 14.9444 20.1084 14.3327 20.5795 13.8492C20.5344 13.536 20.7311 13.2997 20.8448 13.0452C21.0579 12.5562 21.298 12.0745 21.4767 11.58C21.8377 10.5984 22.2511 9.64605 22.6375 8.68089C22.8776 8.08018 23.2567 7.52892 23.4444 6.91539C23.8055 5.74877 24.347 4.67006 24.7947 3.54556C24.8503 3.36601 24.892 3.1823 24.9193 2.99613H21.6699V6.84213L21.2294 7.36592H17.8121L17.294 6.88059V2.99065H14.0807C14.0807 3.12983 14.0392 3.27085 14.0807 3.35693C14.3822 3.90636 14.5266 4.52721 14.819 5.05832C15.3119 5.95389 15.4617 6.99598 16.0592 7.83477C16.0159 8.4483 16.5304 8.84937 16.6333 9.4336C16.7272 9.96838 17.1496 10.4372 17.3067 10.9702C17.4998 11.6258 17.8717 12.1972 18.0612 12.8547C18.2237 13.4169 18.5179 13.9426 18.7833 14.5653V21.9899H20.2185ZM6.5367 10.2687H15.4004C14.2486 7.35127 13.0373 4.52355 11.8711 1.73429L4.53112 4.84771C5.20086 6.6535 5.86155 8.44279 6.5367 10.2632V10.2687ZM23.569 10.2687H32.4578C33.1312 8.45012 33.7937 6.66265 34.4634 4.84954L27.1126 1.73611L23.569 10.2687ZM1.46225 23.455H14.4345V22.5503L14.9148 21.9807H17.3067V19.1054H5.97706C4.85241 20.6676 3.03816 21.3818 1.46401 22.4276L1.46225 23.455ZM37.5215 22.4147C35.8968 21.38 34.1169 20.6236 33.0085 19.1328H21.6915V22.0155H24.022L24.5925 22.4972V23.466H37.5215V22.4147ZM7.63429 17.5926H17.3301C17.3301 16.7703 17.3301 15.9809 17.3301 15.1916C17.3083 14.9938 17.2629 14.7995 17.1947 14.6129C17.0268 13.9426 16.6441 13.3748 16.4257 12.7338C16.3173 12.4152 16.191 12.102 16.0791 11.8053H7.13062C7.59637 13.3785 8.35274 14.8363 8.73364 16.4754L7.63429 17.5926ZM30.2663 16.404C30.6779 14.8381 31.3657 13.3565 31.891 11.798H22.9859C22.9119 11.8731 22.8468 11.9097 22.8306 11.961C22.576 12.7103 22.2789 13.4441 21.9407 14.1587C21.7954 14.4348 21.7052 14.7372 21.6753 15.0487C21.6392 15.8949 21.6627 16.7446 21.6627 17.5926H31.4307L30.2663 16.404ZM1.44418 36.6797V38.6613L3.40647 42.0495L4.28379 42.5073H7.18836V36.6797H1.44418ZM31.7881 42.5256C32.6907 42.5256 33.5373 42.5256 34.3768 42.5256C34.7505 42.5256 35.6296 42.1593 35.7289 41.8883C36.0665 41.0074 36.7164 40.3078 37.0792 39.4415C37.2158 39.1784 37.3727 38.9267 37.5486 38.6888C37.5486 38.3903 37.5486 38.0551 37.5486 37.72C37.5486 37.3848 37.536 37.0149 37.5288 36.6962H31.7881V42.5256ZM24.0925 42.4963H27.3978V36.6925H24.5564V37.5551L24.0906 38.1705H21.8179C21.8883 38.2547 21.9461 38.2932 21.9587 38.3427C22.105 38.9507 22.2313 39.5661 22.3884 40.1741C22.5599 40.8352 22.5905 41.5751 23.2331 42.0055C23.5111 42.1941 23.8181 42.3406 24.0925 42.4963ZM11.5859 36.6834V42.5092H14.8353C15.1819 42.326 15.4672 42.207 15.7235 42.0385C16.3716 41.6154 16.4202 40.8755 16.599 40.218C16.7777 39.5606 16.9221 38.8554 17.0864 38.1503H14.9201L14.4003 37.6449V36.6834H11.5859ZM31.7881 32.2385H37.5486V28.0116C37.5456 27.9832 37.5342 27.9564 37.5161 27.9347C37.4998 27.9109 37.4745 27.8944 37.4872 27.9054H31.7881V32.2385ZM8.6975 24.9623V42.5073H10.0786V24.9623H8.6975ZM30.3007 42.5073V24.9897H28.9106V42.5073H30.3007ZM1.47661 27.8889V32.2696H7.08364C7.11107 32.267 7.13727 32.2569 7.15945 32.2403C7.18292 32.2239 7.20104 32.1982 7.19021 32.2092V27.8907L1.47661 27.8889ZM18.8067 32.2843V36.6651H22.9696C22.9976 36.6628 23.0246 36.6526 23.0472 36.6358C23.0707 36.6174 23.087 36.5918 23.0762 36.6046V32.2861L18.8067 32.2843ZM18.7905 27.8431H23.1068V23.6198C23.1048 23.591 23.0941 23.5635 23.0762 23.5411C23.0599 23.5173 23.0346 23.4989 23.0454 23.5099H18.7905V27.8431ZM14.4273 27.9054H11.5534C11.5534 29.3357 11.5534 30.7331 11.5534 32.1305C11.5555 32.1593 11.5662 32.1868 11.5841 32.2092C11.6003 32.233 11.6274 32.2495 11.613 32.2367H14.4471V31.2239L14.5465 31.2935L14.866 30.8045C15.3282 30.8045 15.7181 30.8045 16.108 30.8045C16.4979 30.8045 16.9294 30.8503 17.2958 30.7715V29.3357H15.0032L14.4255 28.8907L14.4273 27.9054ZM21.6951 29.354V30.8082H23.9931L24.5979 31.2807V32.2385H27.4394V28.0152C27.4373 27.9864 27.4266 27.9589 27.4087 27.9365C27.3924 27.9127 27.3671 27.8944 27.3798 27.9072H24.5474V28.7643L24.1069 29.354H21.6951ZM37.5323 24.9714H31.817V26.3816H37.5323V24.9714ZM7.20458 33.7623H1.41888C1.50553 34.2604 1.36655 34.7366 1.48931 35.1651H7.20458V33.7623ZM31.8043 33.7458V35.1963H37.4005C37.4283 35.1941 37.4551 35.1846 37.4782 35.1688C37.5034 35.1541 37.5215 35.1285 37.5107 35.1395V33.7476L31.8043 33.7458ZM1.46225 26.378H7.20458V24.9751H1.46225V26.378ZM20.3592 38.1595H18.6353C18.3916 39.1357 18.1569 40.0825 17.924 41.0165H21.0687L20.3592 38.1595ZM15.9004 36.6339H17.3301V32.4216C17.3276 32.3932 17.3176 32.3661 17.3012 32.3429C17.2868 32.3173 17.2633 32.2971 17.2759 32.3099H15.9004V36.6339ZM15.9166 23.4953V27.8907C16.4094 27.8284 16.8752 27.9328 17.3012 27.8358V23.4953H15.9166ZM18.805 2.98331V5.91359C19.2978 5.87147 19.7636 5.94473 20.1878 5.87331V2.98331H18.805ZM14.4273 33.7659H11.539C11.5823 34.2659 11.5101 34.7384 11.5787 35.1688H14.4255L14.4273 33.7659ZM27.4087 35.1853V33.7348C26.9032 33.7348 26.4284 33.7348 25.9518 33.7348C25.4951 33.7174 25.0378 33.7241 24.5817 33.7549V35.1834L27.4087 35.1853ZM11.5696 26.378H14.458C14.4056 25.878 14.4941 25.4055 14.4111 24.9751H11.5696V26.378ZM27.4087 26.3944V24.9439C26.9032 24.9439 26.4266 24.9439 25.9518 24.9439C25.495 24.9262 25.0377 24.9336 24.5817 24.9659V26.3926L27.4087 26.3944ZM18.805 29.354V30.8082C19.2996 30.7899 19.7636 30.832 20.1878 30.7844V29.354H18.805Z" fill="#393939"/>
</g>
<defs>
<clipPath id="clip0_57_1658">
<rect width="39" height="44" fill="white"/>
</clipPath>
</defs>
</svg>
