<svg width="50" height="50" viewBox="0 0 50 50" fill="none" xmlns="http://www.w3.org/2000/svg">
<g clip-path="url(#clip0_57_1624)">
<path d="M36.0878 28.7596C36.1714 28.912 36.2318 29.0761 36.2669 29.2465C36.2941 29.6605 36.251 30.0814 36.2805 30.4955C36.3735 31.7832 35.7749 32.7843 34.9972 33.7171C34.9246 33.8058 34.8385 33.8786 34.7592 33.9605L20.1716 48.5963C18.8475 49.9226 17.299 50.1775 15.3083 49.8976C13.5988 49.6565 12.1478 48.9057 10.6967 48.1367C9.5597 47.5234 8.49496 46.784 7.52254 45.9321C6.66344 45.2232 5.84723 44.4635 5.07836 43.657C3.84137 42.2939 2.74877 40.8055 1.81806 39.216C1.53822 38.6894 1.2855 38.1487 1.06083 37.5961C0.834105 37.0865 0.607338 36.5746 0.396483 36.0513C-0.122721 34.7613 0.0518671 33.4349 0.00878906 32.1177C0.396491 31.4351 0.609663 30.6798 1.19235 30.1042C3.66594 27.6539 6.11454 25.1786 8.57225 22.7101C11.2182 20.0573 13.8731 17.4137 16.5077 14.7472C16.8447 14.3928 17.2527 14.1141 17.7049 13.9293C18.157 13.7446 18.643 13.6582 19.1309 13.6756C19.811 13.6756 20.4913 13.6756 21.2146 13.6756L26.7943 8.0789C27.6264 7.24621 28.6081 7.14155 29.6578 7.56244C30.9547 8.08572 31.5373 9.12089 31.9455 10.3404C32.1155 10.8454 31.6893 11.2049 31.619 11.6508C31.5975 11.7179 31.5679 11.7821 31.5306 11.8419C32.0317 12.438 32.1564 12.4676 32.6121 12.0171C33.4215 11.2208 34.2263 10.4245 35.0153 9.60322C35.2235 9.37541 35.4765 9.19331 35.7582 9.06841C36.0399 8.9435 36.3444 8.87849 36.6524 8.87746C37.5207 8.85243 38.3574 8.93205 39.0081 9.494C39.8062 10.1765 40.4908 10.9433 40.8581 12.0148C41.2798 13.2343 40.9103 14.1239 40.1145 14.952C39.2506 15.862 38.3551 16.7243 37.455 17.6275L37.9197 18.4352C38.7994 17.8755 39.6519 17.7708 40.4886 18.4534C41.79 18.7105 42.1482 19.8753 42.5836 20.8445C42.8783 21.5043 42.6175 22.2574 42.0235 22.8421C40.0102 24.7987 38.0557 26.7939 36.0878 28.7596ZM11.6013 21.775C11.5467 21.9081 11.475 22.0336 11.3882 22.1482C8.37574 25.1816 5.35727 28.2098 2.33274 31.2327C1.95057 31.5999 1.66488 32.0564 1.50111 32.5613C1.33734 33.0662 1.30054 33.6039 1.39406 34.1266C1.55173 34.9892 1.81289 35.8295 2.17177 36.6292C3.05559 38.6766 4.30157 40.5466 5.84932 42.1486C6.54764 42.8948 7.28677 43.6001 8.00776 44.3236C8.25036 44.5648 8.46115 44.9561 8.73776 45.0061C9.34539 45.1358 9.48596 45.7842 10.0414 45.9799C10.5969 46.1755 11.0095 46.5669 11.4788 46.8899C12.1318 47.345 13.8708 47.9752 14.653 48.255C15.4352 48.5348 16.1812 48.4165 16.9475 48.4506C17.2909 48.4696 17.6343 48.4121 17.953 48.2823C18.2716 48.1525 18.5577 47.9536 18.7908 47.6999C21.2636 45.1957 23.7478 42.703 26.2433 40.2216C26.4939 39.9604 26.7757 39.7312 27.0822 39.5391C27.5761 39.2809 27.9549 38.8455 28.1432 38.3196C27.6739 38.2013 27.2658 38.0193 26.8532 38.0125C26.0755 38.0125 25.3931 37.6871 24.7174 37.405C22.1078 36.3221 19.8565 34.6749 17.8001 32.7547C17.2355 32.2246 16.7616 31.6035 16.2515 31.0233C15.0585 29.6792 14.0427 28.1866 13.2292 26.5823C12.4333 25.0772 11.8815 23.4544 11.5945 21.775H11.6013ZM15.424 18.4101C14.8504 18.4852 14.6689 18.9061 14.3742 19.1678C13.8209 19.6615 13.5716 20.3485 13.4333 21.0402C13.3448 21.4793 13.1816 21.998 13.5897 22.4212C13.6486 22.4803 13.6328 22.6487 13.6056 22.7488C13.5081 23.1401 13.8596 23.4313 13.8324 23.7908C13.7938 24.1935 14.059 24.4733 14.161 24.7964C14.3878 25.5449 14.8163 26.1933 15.1904 26.8713C15.9658 28.275 16.9793 29.4967 18.0223 30.6866C18.7258 31.4505 19.4835 32.1621 20.2895 32.8161C21.6573 34.0235 23.201 35.0141 24.8671 35.7533C25.4375 36.0207 26.0235 36.2532 26.6219 36.4495C27.3951 36.677 28.1524 36.5951 28.9164 36.6497C29.6805 36.7043 30.2247 36.3266 30.762 35.9148C31.1186 35.6064 31.4549 35.2751 31.7687 34.9229C31.3855 34.7955 31.0885 34.6135 30.7869 34.6135C29.7553 34.6135 28.8416 34.1926 27.937 33.8172C25.638 32.8616 23.6609 31.3737 21.8154 29.722C20.9247 28.9303 20.1116 28.055 19.3872 27.1079C18.4304 25.8543 17.469 24.6212 16.7753 23.1879C16.4533 22.5235 16.1631 21.8501 15.8684 21.1721C15.6724 20.5644 15.5208 19.9432 15.4149 19.3134L15.424 18.4101ZM19.666 15.2591C19.4121 15.2591 19.1536 15.2591 18.8974 15.2591C18.1628 15.2887 17.0677 16.1191 17.0451 16.8267C17.0292 17.3204 16.6596 17.7936 16.8183 18.1917C17.0224 18.7036 16.8546 19.2474 17.0451 19.6865C17.3511 20.4009 17.4781 21.1744 17.825 21.8615C18.19 22.585 18.5935 23.2903 19.022 23.9773C20.0247 25.5621 21.2332 27.0059 22.6157 28.2705C23.348 28.953 24.035 29.706 24.8626 30.243C26.1844 31.0984 27.4835 32.0153 28.998 32.5522C30.0137 32.9162 31.0386 33.2347 32.1155 33.2052C32.5104 33.1935 32.8991 33.1023 33.2582 32.937C33.6173 32.7717 33.9396 32.5356 34.206 32.2428C34.7342 31.6672 34.7456 31.012 34.6481 30.2521C32.993 30.4386 31.6893 29.7493 30.5171 28.5275C30.3311 28.7978 30.1168 29.0472 29.8778 29.2715C29.6511 29.4308 29.2973 29.6378 29.1159 29.5559C28.4947 29.2806 27.8054 29.3739 27.1797 29.0258C25.8578 28.2864 25.0349 27.3081 24.6971 25.7587C24.6036 25.539 24.4276 25.3649 24.2073 25.2741C23.7289 25.0626 23.1168 25.0466 22.7495 24.7213C22.0323 24.1361 21.4156 23.4367 20.9243 22.6509C20.5525 21.998 20.5208 21.1494 20.3462 20.4213C20.5616 20.2075 20.7293 20.055 20.8812 19.889C21.0332 19.7229 21.2077 19.5113 21.3641 19.3247C20.3257 18.2896 19.7567 17.0678 19.6592 15.2591H19.666ZM26.0801 24.9306C25.96 26.2957 27.6671 28.1476 29.0071 27.7699C30.9864 25.8247 32.8411 23.9978 34.6934 22.1686C34.7115 22.1504 34.6934 22.0958 34.6934 22.0571C34.6934 22.0185 34.6798 21.9866 34.6798 21.9821C33.9611 21.6544 33.2242 21.4338 32.866 20.617C32.6279 20.0823 32.2108 19.6273 31.8729 19.1314L26.0801 24.9306ZM25.1369 23.627C26.9212 21.8069 28.7645 19.9299 30.6123 18.0461C30.6305 18.0279 30.6123 17.9733 30.6123 17.8869C29.3109 17.3363 28.4743 16.2807 27.9211 15.1932L21.9922 21.1403C22.2189 21.7295 22.5363 22.4644 23.0986 22.9717C23.611 23.4404 24.2436 23.8886 25.1324 23.627H25.1369ZM37.6658 21.4952L31.7074 27.4719C32.1158 27.8238 32.5467 28.1483 32.9975 28.4434C33.7412 28.8688 34.0065 28.7983 34.6164 28.1886C36.14 26.6718 37.6606 25.1452 39.1781 23.6088C39.3006 23.4859 39.4048 23.338 39.5363 23.1697C38.7693 22.7948 38.12 22.2155 37.659 21.4952H37.6658ZM26.656 10.4928L21.3189 15.8416C21.3016 16.2811 21.3967 16.7178 21.5951 17.1101C21.7935 17.5023 22.0887 17.8371 22.4525 18.0825L28.3065 12.1832C27.4881 11.9716 27.2931 11.032 26.6492 10.4928H26.656ZM33.4373 13.6597C33.6006 13.9737 33.9271 14.3605 33.9883 14.7836C34.0767 15.4002 34.3579 15.6709 34.9179 15.8438C35.3963 16.0213 35.8614 16.2326 36.3099 16.4763L37.6999 15.0703C36.31 14.5493 35.4461 13.4777 34.7886 12.3038L33.4373 13.6597ZM32.6574 15.8052C32.6574 15.1522 32.2788 14.6494 31.9069 14.1944C31.4535 13.6347 30.7597 13.364 30.0591 13.2252C29.6556 13.1456 29.1523 13.8053 29.2543 14.2126C29.4515 15.0612 30.5579 16.3034 31.3673 16.5832C32.1768 16.8631 32.662 16.5764 32.6507 15.8052H32.6574ZM39.4592 12.7269C39.4553 12.59 39.4237 12.4553 39.3662 12.3311C38.9128 11.5393 38.5228 10.6953 37.4912 10.4132C36.8495 10.2402 36.7045 10.172 36.3281 10.5542C35.9517 10.9364 35.9881 10.9137 36.2828 11.5962C36.63 12.4443 37.2754 13.1349 38.0966 13.5369C38.9287 13.9487 39.4615 13.6643 39.4479 12.7269H39.4592ZM36.7816 19.8139C36.6755 19.6915 36.5877 19.5543 36.5208 19.4066C36.3689 18.756 35.9087 18.3146 35.4212 17.9506C35.0154 17.6457 34.5801 17.3136 34.0019 17.2954C33.6868 17.2954 33.4124 17.4296 33.3716 17.6457C33.2582 18.219 33.2741 18.8242 33.6528 19.3179C34.1344 19.9177 34.758 20.3869 35.4666 20.683C35.9087 20.8832 36.2488 20.7148 36.5232 20.2484C36.5753 20.1188 36.6546 20.0005 36.7703 19.8139H36.7816ZM28.1478 8.78417C28.0344 10.0855 28.7305 10.6452 29.549 11.1048C29.6009 11.1446 29.6606 11.173 29.7241 11.1881C29.7877 11.2032 29.8538 11.2046 29.918 11.1924C29.9822 11.1802 30.043 11.1545 30.0967 11.117C30.1503 11.0796 30.1954 11.0312 30.2292 10.9751C30.3312 10.7976 30.4559 10.5019 30.372 10.379C30.1256 9.93274 29.8025 9.53375 29.4175 9.20052C29.0933 8.96391 28.6262 8.93205 28.1365 8.78417H28.1478ZM41.0441 20.7922C40.796 20.5325 40.5342 20.2864 40.2596 20.0551C40.0066 19.8686 39.7308 19.7157 39.4388 19.6C39.332 19.5604 39.214 19.5641 39.1098 19.6104C39.0057 19.6567 38.9236 19.742 38.8811 19.848C38.8017 19.9982 38.7223 20.2848 38.7949 20.3576C39.3798 20.9423 39.8265 21.7227 40.7471 21.8615C40.8492 21.856 40.9497 21.8329 41.0441 21.7932V20.7922Z" fill="#393939"/>
<path d="M46.9319 8.4361C47.9205 8.4361 48.0882 8.58626 48.0656 9.19371C48.0748 9.34054 48.0279 9.48536 47.9344 9.59866C47.8409 9.71195 47.7078 9.78519 47.5623 9.80344C46.7166 10.0309 45.8822 10.304 45.0229 10.4632C44.538 10.5409 44.0683 10.6944 43.6308 10.9182C43.3315 11.0775 42.7239 10.6407 42.6174 10.2676C42.4927 9.81253 42.6559 9.45762 43.1343 9.35751C44.1296 9.13 45.0774 8.71139 46.118 8.65451C46.3979 8.61876 46.6716 8.54529 46.9319 8.4361Z" fill="#393939"/>
<path d="M33.7617 1.11253C33.8229 1.07613 34.0225 0.969194 34.2152 0.839513C34.7026 0.498247 35.2083 0.671154 35.376 1.26496C35.6133 2.1113 35.8401 2.96295 36.0562 3.81991C36.1696 4.27493 36.2263 4.72995 36.3442 5.18497C36.3736 5.29873 36.5391 5.33967 36.3849 5.51713C36.1877 5.74464 36.2262 6.18146 35.7614 6.17008C35.5818 6.14074 35.4122 6.0672 35.2678 5.95604C35.1234 5.84488 35.0087 5.69956 34.9339 5.53306C34.6867 4.68899 34.4804 3.83356 34.2537 2.9804C34.0927 2.42982 33.959 1.87924 33.7617 1.11253Z" fill="#393939"/>
<path d="M39.6768 6.21558C40.1597 4.85052 41.1618 3.75619 41.7173 2.42753C41.7853 2.26599 41.9713 2.15907 42.0937 2.01801C42.3658 1.70177 42.7127 1.7905 43.0006 1.90653C43.3316 2.03394 43.3362 2.38203 43.2795 2.6778C43.2322 2.91969 43.1416 3.15096 43.0119 3.36033C42.4655 4.27037 41.8669 5.13264 41.4248 6.09045C41.3477 6.24971 41.1663 6.3612 41.0326 6.49315C40.5156 7.00278 40.4295 7.00277 39.865 6.47267C39.8087 6.42228 39.7556 6.36832 39.7062 6.31113C39.6916 6.28098 39.6817 6.24876 39.6768 6.21558Z" fill="#393939"/>
<path d="M20.5977 1.30363L21.1872 0.712107C21.7041 0.646129 22.0169 0.74169 22.3049 1.30137C22.8195 2.29786 23.4136 3.25568 23.8694 4.2863C23.9277 4.39469 23.961 4.51482 23.9669 4.63785C23.9728 4.76087 23.9511 4.88368 23.9035 4.99719C23.8558 5.11071 23.7834 5.21204 23.6916 5.29376C23.5997 5.37547 23.4909 5.43549 23.3728 5.46936C23.3029 5.48756 23.2299 5.49109 23.1585 5.47973C23.0871 5.46838 23.0188 5.44239 22.9579 5.40337C22.6737 5.16691 22.4288 4.88661 22.2323 4.57297C21.6565 3.49229 21.1327 2.38658 20.5977 1.30363Z" fill="#393939"/>
<path d="M45.3524 23.7339C45.146 23.6019 45.0304 23.5246 44.8989 23.4518C44.2981 23.09 44.2799 22.8739 44.7107 22.3597C45.1415 21.8456 45.7242 21.7091 46.2411 21.3996C46.8442 21.0379 47.547 20.8741 48.0844 20.3736C48.3791 20.1006 48.7849 20.2803 49.0865 20.7285C49.1813 20.8838 49.2216 21.0665 49.2011 21.2474C49.1805 21.4284 49.1003 21.5973 48.9731 21.7273C48.8494 21.7899 48.7223 21.8453 48.5923 21.8933C47.5312 22.4962 46.4656 23.1014 45.3524 23.7339Z" fill="#393939"/>
<path d="M45.6309 33.7444C45.4654 33.9082 45.3247 34.0765 45.157 34.213C44.8033 34.4974 44.2071 34.4223 44.0053 34.0424C43.4317 32.9595 42.8716 31.8651 42.3274 30.7685C42.2702 30.6593 42.2385 30.5385 42.2348 30.4152C42.231 30.2919 42.2552 30.1693 42.3057 30.0568C42.3562 29.9443 42.4315 29.8448 42.526 29.7659C42.6205 29.687 42.7317 29.6307 42.8512 29.6014C42.9209 29.5844 42.9935 29.5828 43.0639 29.5965C43.1344 29.6103 43.201 29.6391 43.2593 29.681C43.5042 29.9904 43.8375 30.1907 44.0166 30.6093C44.47 31.6672 45.0641 32.6682 45.6309 33.7444Z" fill="#393939"/>
<path d="M16.3428 7.42594C16.2816 6.97092 16.3428 6.60691 16.7215 6.30432C16.8025 6.22883 16.9025 6.17689 17.0107 6.15404C17.119 6.1312 17.2314 6.13832 17.3359 6.17464C18.4559 6.67971 19.6712 6.87537 20.8161 7.29626C21.3195 7.48054 21.5168 7.99471 21.2016 8.41561C21.079 8.54119 20.9206 8.62546 20.7482 8.65677C20.1179 8.82058 19.4899 8.56122 18.948 8.38149C18.1046 8.09938 17.1976 7.89689 16.3428 7.42594Z" fill="#393939"/>
<path d="M26.7701 4.69583C26.7397 4.26637 26.8031 3.83544 26.956 3.43315C27.2371 2.64596 27.3799 1.80644 27.661 1.01243C27.7337 0.779703 27.8208 0.55175 27.9218 0.329898C28.1099 -0.0432192 28.4773 -0.0250223 28.8015 0.0273052C29.1258 0.0796326 29.2777 0.318527 29.255 0.675719C29.2314 0.994711 29.1603 1.30835 29.0441 1.60623C28.7494 2.39114 28.577 3.21928 28.3367 4.02467C28.2856 4.32739 28.1319 4.60308 27.9014 4.80503C27.4593 5.14174 27.1328 4.87784 26.7701 4.69583Z" fill="#393939"/>
<path d="M44.9307 27.2853C45.01 27.0396 45.0667 26.8758 45.1189 26.7097C45.169 26.5647 45.2737 26.4452 45.4106 26.3767C45.5475 26.3083 45.7056 26.2963 45.8512 26.3435C47.0256 26.571 48.1434 26.9987 49.2975 27.2922C49.7509 27.4105 49.8438 27.7108 49.9889 28.0157C50.0366 28.1158 49.9368 28.3023 49.8756 28.4365C49.8144 28.5708 49.1614 28.8438 48.9687 28.7846C47.8645 28.4502 46.7558 28.1294 45.663 27.7608C45.3983 27.6368 45.1519 27.4768 44.9307 27.2853Z" fill="#393939"/>
</g>
<defs>
<clipPath id="clip0_57_1624">
<rect width="50" height="50" fill="white"/>
</clipPath>
</defs>
</svg>
