<svg width="55" height="40" viewBox="0 0 55 40" fill="none" xmlns="http://www.w3.org/2000/svg">
<g clip-path="url(#clip0_57_1654)">
<path d="M35.3562 23.2006H38.4256C38.4643 22.03 38.5439 20.8507 39.5706 20.1741C40.1346 19.8085 40.7866 19.6054 41.4563 19.5866C43.0964 19.5866 43.9122 20.7202 44.1425 23.2289H54.9975V36.2685H44.1296C44.0952 37.5239 43.9876 38.6858 42.9544 39.3581C42.4256 39.7198 41.8095 39.9296 41.1721 39.9652C39.534 39.9652 38.615 38.7293 38.4235 36.3903H35.3045C30.8747 41.2946 23.9803 41.1184 19.7033 36.362H16.5586C16.5242 37.537 16.4187 38.701 15.3769 39.369C14.8458 39.7275 14.2282 39.9328 13.5903 39.963C11.9609 39.963 11.0805 38.7554 10.8394 36.3272H0.00390625V23.2876H10.8718C10.9148 22.0474 10.9858 20.866 11.9996 20.1828C12.561 19.8122 13.2129 19.6058 13.883 19.5866C15.5361 19.5692 16.3842 20.7463 16.5887 23.2528H19.5914L21.886 21.1727V16.758C21.2273 16.758 20.6246 16.782 20.0262 16.758C19.339 16.7295 18.6872 16.4423 18.1989 15.9527C17.7106 15.4631 17.421 14.8066 17.3872 14.1123C17.3548 13.4358 17.571 12.7712 17.9942 12.2462C18.4174 11.7212 19.0178 11.3729 19.6797 11.2685C20.5378 11.1808 21.4003 11.1438 22.2627 11.1575C22.7534 11.1423 23.242 11.1575 23.7844 11.1575V9.36901H22.7642C21.2575 9.35595 21.0594 9.15143 21.0551 7.59137C21.0551 6.98432 21.0551 6.37727 21.0551 5.66361C19.1953 5.66361 17.4476 5.68972 15.7019 5.66361C13.9563 5.6375 12.781 4.39294 12.8477 2.69363C12.8552 2.14573 13.033 1.61408 13.356 1.17399C13.6789 0.733894 14.1306 0.407663 14.6471 0.241501C15.1978 0.0872489 15.7677 0.0139699 16.3391 0.0239208C23.801 0.0108659 31.2629 0.0108659 38.7248 0.0239208C39.0473 0.0125788 39.3702 0.0242126 39.6912 0.0587344C41.2948 0.276315 42.2742 1.45778 42.1967 3.04176C42.1278 4.51043 40.9977 5.62445 39.4351 5.66361C37.6808 5.7093 35.9244 5.66361 33.9914 5.66361C33.9914 6.41644 33.9914 7.12358 33.9914 7.83942C33.9785 9.09921 33.7159 9.36248 32.4847 9.38206C32.0973 9.38206 31.712 9.38206 31.2557 9.38206C31.2363 9.72149 31.2191 9.96518 31.2127 10.2089C31.2062 10.4526 31.2127 10.7115 31.2127 11.1727C32.2738 11.1727 33.294 11.1727 34.3143 11.1727C35.2291 11.1727 36.116 11.2815 36.7919 11.9974C37.5668 12.8198 37.881 13.7576 37.4849 14.8803C37.3286 15.4043 37.0161 15.8668 36.59 16.2044C36.1638 16.5421 35.645 16.7385 35.1043 16.7667C34.5037 16.8277 33.8924 16.7776 33.1886 16.7776V21.1989L35.3562 23.2006ZM23.849 16.7972C23.849 18.2615 23.8081 19.6257 23.8641 20.9987C23.9007 21.8516 23.6488 22.4238 22.9105 22.8808C22.2996 23.26 21.7567 23.7411 21.3048 24.3037C21.0901 24.592 20.8069 24.8207 20.4814 24.9686C20.1559 25.1166 19.7987 25.179 19.4429 25.1501C18.4958 25.1175 17.5466 25.1501 16.5198 25.1501V34.3668C17.6348 34.3668 18.5991 34.4016 19.5591 34.3559C19.8792 34.3362 20.1991 34.3949 20.4918 34.5271C20.7845 34.6594 21.0413 34.8611 21.2402 35.1153C24.8284 39.1384 30.1902 39.0927 33.8516 35.0827C34.2089 34.691 34.8718 34.4582 35.4185 34.3973C36.3979 34.2885 37.3989 34.3668 38.4062 34.3668V25.1501C37.4505 25.1501 36.5594 25.1197 35.6725 25.1501C34.8245 25.1893 34.1658 24.9543 33.6213 24.2406C33.1968 23.7017 32.6807 23.2434 32.0973 22.8873C31.3633 22.4325 31.0899 21.869 31.1287 21.0096C31.189 19.6149 31.1459 18.2158 31.1459 16.7885L23.849 16.7972ZM1.87008 34.2798H10.8459V25.2415H1.87008V34.2798ZM53.0989 34.3103V25.2219H44.1296V34.3103H53.0989ZM15.11 3.63141H39.8957C40.5522 2.5435 40.2874 1.96039 39.1574 1.95821C31.3798 1.94661 23.6029 1.94661 15.8267 1.95821C14.7031 1.95821 14.4405 2.55438 15.1078 3.62923L15.11 3.63141ZM35.4057 14.7585C35.8362 13.5204 35.608 13.0766 34.5963 13.0722C29.8695 13.0505 25.1433 13.0505 20.4179 13.0722C19.3546 13.0722 19.1093 13.6009 19.6409 14.7585H35.4057ZM14.5912 37.463C14.5912 32.5109 14.602 27.5174 14.5805 22.5261C14.5805 21.4708 13.995 21.2424 12.9317 21.8734V37.5587C13.4741 38.2746 14.01 38.2398 14.589 37.4608L14.5912 37.463ZM42.0848 21.8516C40.8622 21.2554 40.4123 21.5122 40.4102 22.711C40.3973 27.4173 40.4102 32.1214 40.4102 36.8255C40.4102 37.0061 40.3563 37.2607 40.4489 37.3542C40.6899 37.6218 40.9999 38.007 41.2797 38.007C41.5595 38.007 41.9125 37.6414 42.0955 37.3542C42.2289 37.1366 42.145 36.7907 42.1472 36.5013C42.1472 32.0148 42.1472 27.5275 42.1472 23.0396C42.1407 22.6371 42.1041 22.2454 42.0848 21.8516ZM23.0203 5.70713V7.35856H31.9552V5.70713H23.0203ZM29.241 11.0922V9.42775H25.7777V11.0922H29.241Z" fill="#393939"/>
</g>
<defs>
<clipPath id="clip0_57_1654">
<rect width="55" height="40" fill="white"/>
</clipPath>
</defs>
</svg>
