<svg width="39" height="51" viewBox="0 0 39 51" fill="none" xmlns="http://www.w3.org/2000/svg">
<g clip-path="url(#clip0_57_1638)">
<path d="M7.16716 33.2392C7.16716 28.2655 7.16716 23.2905 7.16716 18.3142C7.1398 16.1381 7.78298 14.0064 9.00924 12.2088C9.08359 12.101 9.15007 11.9879 9.20817 11.8705C9.23622 11.7911 9.25622 11.7091 9.26786 11.6257C9.17598 11.6004 9.08022 11.5923 8.9854 11.6018C7.89527 11.9322 6.80581 12.2685 5.71701 12.6108C4.41204 13.0227 3.113 13.4526 1.80604 13.8625C0.76166 14.1889 0.0455165 13.6834 0.0156772 12.5949C-0.00421566 11.9322 0.0156772 11.2675 0.0156772 10.6048C0.0156772 9.74914 0.286207 9.34318 1.09585 9.04468C1.76823 8.79792 2.4605 8.60091 3.14084 8.37405C5.11819 7.71071 7.09556 7.04737 9.07291 6.38404C9.18114 6.34229 9.27317 6.26697 9.33551 6.16911C9.35541 6.14125 9.25395 5.99996 9.18034 5.95021C8.73469 5.61899 8.2697 5.31465 7.78784 5.03879C7.4951 4.90089 7.17439 4.83277 6.85089 4.83979C5.06053 4.81989 3.27017 4.83979 1.47981 4.82785C0.684099 4.82785 0.306144 4.57114 0.0972691 3.95224C0.0497952 3.79622 0.0269574 3.63373 0.0296158 3.47066C0.0296158 2.77416 0.00972295 2.07765 0.0296158 1.38115C0.0574659 0.447834 0.503047 0.0259514 1.45194 0.0239614C3.67198 0.0239614 5.89402 0.0418705 8.11406 0.0120203C8.83569 0.00398807 9.55111 0.146308 10.2148 0.429924C11.2392 0.853796 12.2797 1.24384 13.3201 1.62393C14.0223 1.88462 14.0342 1.87467 14.4719 1.35329C14.8565 0.860676 15.3643 0.478326 15.9439 0.244853C17.7184 -0.403891 19.7912 0.220973 20.7441 2.04979C21.0081 2.50547 21.1455 3.02355 21.1419 3.55026C21.1121 4.31243 21.1538 5.0766 21.1419 5.83678C21.122 6.47359 21.5696 6.84771 21.9178 7.26163C22.0272 7.39098 22.3475 7.37307 22.5703 7.37307C24.1279 7.37307 25.6855 7.37307 27.2431 7.37307C29.4313 7.39695 31.3112 8.21087 32.9961 9.578C33.9325 10.3554 34.7163 11.3001 35.3077 12.364C35.9676 13.4996 36.3518 14.7742 36.4296 16.0853C36.5032 17.341 36.4615 18.6047 36.4436 19.8664C36.4436 20.1131 36.3938 20.4375 36.2446 20.5887C35.7533 21.0604 35.2102 20.9569 34.9357 20.2922C34.8661 20.0745 34.8364 19.8459 34.8481 19.6176C34.8481 18.6564 34.8302 17.6953 34.8481 16.7341C34.9058 13.0884 31.9159 9.78894 28.7768 9.19393C28.2993 9.08624 27.8135 9.01967 27.3246 8.99493C25.8008 8.96707 24.2751 8.981 22.7493 8.99493C22.63 9.01159 22.5136 9.0444 22.4031 9.09244C22.488 9.18994 22.5811 9.27983 22.6816 9.36109C23.163 9.6974 23.6106 10.1571 24.1477 10.3183C24.7306 10.4874 25.397 10.3581 26.0256 10.3641C27.074 10.3641 28.1124 10.3203 29.1329 10.7422C31.2833 11.6317 32.6897 13.1302 33.2925 15.3948C33.4318 15.9697 33.494 16.5606 33.4775 17.152C33.4775 20.3028 33.4775 23.453 33.4775 26.6025C33.4775 27.3787 33.4636 27.2931 34.1777 27.2991H34.2772C34.8282 27.2871 34.8382 27.2871 34.8422 26.7657C34.8422 25.8384 34.8302 24.909 34.8541 23.9797C34.8413 23.688 34.9102 23.3986 35.053 23.1439C35.2422 22.9317 35.496 22.7876 35.7751 22.734C36.0198 22.6782 36.3938 23.0683 36.4416 23.3668C36.4626 23.5651 36.4686 23.7646 36.4594 23.9638C36.4594 24.9588 36.4594 25.9538 36.4594 26.9488C36.4594 27.2194 36.4594 27.4025 36.8235 27.5199C37.3646 27.6971 37.6053 28.1886 37.653 28.7537C37.7206 29.5498 37.7724 30.3259 37.8639 31.1079C38.0389 32.6004 38.2617 34.093 38.4229 35.5835C38.5283 36.5287 38.5561 37.4839 38.6556 38.4312C38.7551 39.3784 38.9102 40.3097 39.0077 41.251C39.0527 41.61 39.0366 41.974 38.96 42.3276C38.7869 43.0281 38.204 43.2729 37.5675 43.4082C37.4352 43.4223 37.3019 43.4223 37.1696 43.4082C35.1465 43.4082 33.1254 43.4082 31.1043 43.4082C30.7226 43.4234 30.3467 43.3123 30.0345 43.0921C29.7224 42.872 29.4915 42.555 29.3776 42.1903C29.3241 42.0724 29.2988 41.9436 29.304 41.8142C29.5029 40.5844 29.5924 39.3426 29.7018 38.1008C29.8291 36.5705 30.0738 35.0521 30.2549 33.5238C30.3384 32.8412 30.3981 32.1547 30.4538 31.4701C30.5294 30.6184 30.5771 29.7667 30.6706 28.9189C30.7343 28.3478 30.9431 27.8244 31.4982 27.5597C31.6181 27.5166 31.72 27.4341 31.7871 27.3257C31.8543 27.2173 31.8829 27.0894 31.8682 26.9627C31.8563 23.4484 31.9 19.932 31.8343 16.4157C31.8085 14.9132 30.977 13.7312 29.7973 12.8516C28.6177 11.972 27.1735 11.8824 25.7372 11.9839C25.6994 11.9839 25.6258 12.1192 25.6417 12.1511C25.7193 12.2944 25.8267 12.4217 25.9182 12.5491C26.9893 14.1742 27.5441 16.0853 27.5096 18.0316C27.499 28.2775 27.499 38.524 27.5096 48.7713C27.528 49.0989 27.4944 49.4273 27.4102 49.7444C27.1396 50.5563 26.4951 50.9782 25.6059 50.9802C20.1367 50.9802 14.6681 50.9802 9.20025 50.9802C7.91915 50.9802 7.21097 50.2498 7.21097 48.9424C7.17914 43.714 7.16451 38.4796 7.16716 33.2392ZM17.3125 49.3862C19.9304 49.3862 22.549 49.3862 25.1682 49.3862C25.8426 49.3862 25.8526 49.3762 25.8546 48.7713C25.8546 45.7199 25.8546 42.6686 25.8546 39.6172C25.8546 39.0799 25.8406 39.068 25.3115 39.066C23.2227 39.066 21.134 39.066 19.0472 39.066C18.8151 39.082 18.582 39.076 18.351 39.0481C17.7383 38.9267 17.5553 38.3197 17.9531 37.8541C18.2416 37.5217 18.5917 37.4561 19.0154 37.4561C20.937 37.472 22.8607 37.4561 24.7843 37.4561C25.0171 37.4561 25.2478 37.4561 25.4806 37.4561C25.7133 37.4561 25.8585 37.3844 25.8506 37.1198C25.8506 36.9208 25.8506 36.7218 25.8506 36.5228V22.2942C25.8625 22.0626 25.8565 21.8304 25.8327 21.5997C25.8132 21.5457 25.7824 21.4967 25.7422 21.4558C25.702 21.4149 25.6535 21.3832 25.5999 21.3629C25.4691 21.336 25.3347 21.3306 25.2021 21.3469C19.9331 21.3469 14.6628 21.3469 9.39122 21.3469C8.71088 21.3469 8.76855 21.3827 8.76855 21.9201C8.76855 26.8951 8.76855 31.8701 8.76855 36.8451C8.76855 37.4421 8.78047 37.4541 9.35139 37.4561C11.0423 37.4561 12.7326 37.4561 14.4221 37.4561C14.8638 37.4561 15.2875 37.4939 15.6157 37.8262C15.7669 37.9814 15.9917 38.1307 15.8425 38.4232C15.6933 38.7157 15.6435 39.0103 15.2874 39.058C15.0891 39.0771 14.8898 39.083 14.6907 39.0759C12.9003 39.0759 11.1099 39.0759 9.31958 39.0759C8.78446 39.0759 8.77253 39.0899 8.77253 39.6192C8.77253 42.6706 8.77253 45.7219 8.77253 48.7733C8.77253 49.3862 8.7825 49.3961 9.44892 49.3961C12.0761 49.3922 14.6993 49.3888 17.3185 49.3862H17.3125ZM25.9162 18.1112C25.8366 17.5142 25.7869 16.7838 25.6437 16.0814C25.2558 14.1709 24.2214 12.6426 22.7612 11.3849C22.3634 11.0486 22.236 11.0785 21.9893 11.6118C21.5656 12.5252 21.0146 13.3113 20.1354 13.8545C18.7866 14.6884 17.3503 15.0167 15.8325 14.5053C15.0964 14.2627 14.4218 13.8627 13.8557 13.3332C13.2896 12.8036 12.8455 12.1571 12.5542 11.4387C12.407 11.0924 12.2856 11.0407 12.023 11.2616C10.8507 12.2281 9.93728 13.4714 9.36533 14.8794C8.82226 16.2565 8.72677 17.6813 8.76855 19.134C8.78844 19.7171 8.78446 19.7191 9.36533 19.731C9.53044 19.731 9.69555 19.731 9.86265 19.731C14.6966 19.731 19.53 19.731 24.3626 19.731C24.8221 19.731 25.2816 19.7012 25.7412 19.6853C25.8068 19.1997 25.8585 18.7161 25.9222 18.1112H25.9162ZM34.0723 41.8062C35.0669 41.8062 36.0616 41.8062 37.0562 41.8062C37.3208 41.8062 37.4183 41.6828 37.3845 41.446C37.3367 41.1237 37.2412 40.8092 37.2114 40.4869C37.1258 39.5396 37.0682 38.5904 36.9886 37.6411C36.9269 36.9247 36.8633 36.2063 36.7797 35.4919C36.6663 34.5546 36.5112 33.6193 36.4137 32.68C36.3162 31.7408 36.2725 30.7836 36.1869 29.8363C36.1656 29.6093 36.105 29.3878 36.0079 29.1816C35.9759 29.1173 35.9301 29.0608 35.8737 29.0164C35.8173 28.972 35.7517 28.9408 35.6816 28.9249C34.6578 28.905 33.6327 28.905 32.6062 28.9249C32.4888 28.9249 32.284 29.0642 32.272 29.1597C32.1188 30.292 31.9776 31.4263 31.8742 32.5646C31.7767 33.5437 31.721 34.5268 31.6454 35.5078C31.6454 35.5735 31.6454 35.6412 31.6295 35.7068C31.5101 36.6435 31.3901 37.5801 31.2694 38.5167C31.2137 38.9366 31.1421 39.3545 31.0983 39.7764C31.0327 40.4272 30.9849 41.0799 30.9292 41.7326C31.526 41.7565 32.1089 41.7883 32.6977 41.8042C33.1473 41.8162 33.6108 41.8062 34.0743 41.8062H34.0723ZM17.2907 6.21091C15.6197 6.04176 13.8969 7.73525 13.889 9.65562C13.879 11.3929 15.4565 13.2058 17.3245 13.1242C19.5783 13.0247 20.7202 11.765 20.8197 9.6397C20.8384 9.17569 20.7591 8.71294 20.587 8.28164C20.4149 7.85035 20.1539 7.4602 19.8208 7.13666C19.4878 6.81311 19.0904 6.56343 18.6544 6.40392C18.2185 6.2444 17.7538 6.17864 17.2907 6.21091ZM5.32707 1.63388C4.43189 1.63388 3.53671 1.62393 2.64352 1.63388C1.46387 1.65179 1.6489 1.40105 1.62702 2.70252C1.62702 3.18808 1.63894 3.204 2.11239 3.20599C3.76947 3.20599 5.42655 3.21992 7.08562 3.20599C7.61198 3.19287 8.1282 3.3522 8.55568 3.65971C9.93028 4.61293 11.3407 5.52833 12.7332 6.44573C13.1728 6.73826 13.503 6.57707 13.5289 6.04772C13.5548 5.35321 13.513 4.65472 13.5448 3.9602C13.5678 3.81542 13.5367 3.66725 13.4574 3.54394C13.3782 3.42063 13.2564 3.3308 13.1152 3.29156C12.2319 2.94729 11.3407 2.62292 10.4774 2.23685C9.36748 1.73063 8.14577 1.51952 6.93045 1.62393C6.38936 1.66771 5.85622 1.63189 5.32707 1.63189V1.63388ZM1.62304 11.3591C1.62304 11.4586 1.62304 11.5581 1.62304 11.6556C1.63895 12.1988 1.69069 12.2406 2.18204 12.0854C3.07921 11.7989 3.9724 11.5043 4.87355 11.2218C7.2607 10.4709 9.64784 9.72261 12.035 8.97702C12.2339 8.91533 12.5582 8.33624 12.4328 8.2248C12.1281 7.92917 11.7848 7.67613 11.4123 7.47257C11.2134 7.38103 10.907 7.48451 10.6683 7.56212C7.88332 8.48018 5.10692 9.40421 2.33915 10.3342C1.62102 10.571 1.62503 10.579 1.62304 11.3571V11.3591ZM19.5067 4.09154C19.5067 3.89254 19.5067 3.69354 19.5067 3.49454C19.5013 3.24748 19.4443 3.00429 19.3395 2.78052C19.2347 2.55675 19.0843 2.35735 18.898 2.19506C18.5871 1.89558 18.1945 1.69478 17.7697 1.61794C17.345 1.5411 16.907 1.59165 16.5109 1.76323C15.6933 2.11148 15.1184 2.73038 15.1303 3.7214C15.1303 3.95224 15.1303 4.18309 15.1303 4.41393C15.1402 4.98904 15.1402 4.98108 15.6913 4.81193C16.6277 4.50594 17.6333 4.48103 18.5837 4.74029C19.5187 5.02486 19.5167 5.02884 19.5067 4.08955V4.09154Z" fill="#393939"/>
<path d="M22.9588 30.1148C22.8613 32.3874 22.0696 33.8322 20.5716 34.9565C19.4801 35.822 18.0904 36.2199 16.7065 36.063C15.9195 35.9821 15.1593 35.7323 14.4778 35.3304C13.7963 34.9286 13.2095 34.3843 12.7577 33.7347C12.0663 32.8088 11.6998 31.6804 11.7153 30.5248C11.7277 29.7019 11.965 28.898 12.4016 28.2005C13.0856 27.1197 13.8385 26.0841 14.6555 25.1C15.2376 24.4221 15.865 23.7845 16.5334 23.1916C17.1142 22.6503 17.4365 22.5488 18.1248 23.2175C19.199 24.2682 20.0087 25.4821 20.313 26.9846C20.3468 27.1418 20.4304 27.289 20.4781 27.4442C20.5358 27.6432 20.6353 27.6691 20.8382 27.6253C21.6697 27.4403 21.8925 27.5079 22.2824 28.1965C22.6723 28.885 23.0284 29.6671 22.9588 30.1148ZM21.2937 30.5566C21.2937 30.4273 21.2937 30.2939 21.2937 30.1586C21.2996 30.0922 21.2963 30.0252 21.2838 29.9596C21.2301 29.7746 21.2181 29.5397 21.0968 29.4243C20.878 29.2253 20.8004 29.5537 20.6432 29.6233C20.5517 29.6611 20.4682 29.7109 20.3787 29.7547C19.768 30.0512 19.2508 29.8303 19.0956 29.1875C18.9996 28.841 18.9396 28.4856 18.9165 28.1268C18.8728 26.8791 18.2262 25.892 17.5718 24.909C17.4425 24.71 17.2754 24.6801 17.0824 24.8672C15.7744 26.0769 14.6588 27.4795 13.7742 29.0263C12.8492 30.7059 13.5554 32.3894 14.4586 33.277C14.8843 33.6949 14.9121 33.7088 15.0931 33.0919C15.3637 32.1805 15.9664 31.486 16.5314 30.7676C17.0685 30.083 17.5658 30.1566 18.095 30.7178C18.7867 31.466 19.3272 32.3412 19.6864 33.2949C19.768 33.4939 19.75 33.7108 20.0007 33.4322C20.7427 32.6123 21.4111 31.7626 21.2937 30.5566ZM17.337 34.459C17.7468 34.4789 17.9537 34.3416 18.0691 33.9655C18.1666 33.6491 17.7727 32.6024 17.4305 32.5387C16.9213 32.4471 16.9372 33.0222 16.7184 33.3028C16.7006 33.3303 16.686 33.3597 16.6746 33.3904C16.4239 33.9695 16.7064 34.4252 17.337 34.459Z" fill="#393939"/>
</g>
<defs>
<clipPath id="clip0_57_1638">
<rect width="39" height="51" fill="white"/>
</clipPath>
</defs>
</svg>
