<svg width="51" height="51" viewBox="0 0 51 51" fill="none" xmlns="http://www.w3.org/2000/svg">
<g clip-path="url(#clip0_57_1604)">
<path d="M13.354 35.2102C12.0628 32.6413 10.8228 30.1789 9.59601 27.7076C9.52045 27.5568 9.56708 27.3463 9.55152 27.0781L10.2182 26.5284C10.416 26.5838 10.5627 26.5772 10.6205 26.6459C10.8875 26.9426 11.1235 27.2657 11.325 27.61C12.1673 29.248 12.9785 30.9014 13.8074 32.546C13.9874 32.9029 14.2008 33.2442 14.3986 33.5944H22.266C22.5971 32.9295 22.9727 32.2911 23.2393 31.6129C23.6527 30.5668 24.3173 29.9572 25.5285 30.1013C25.8374 29.5162 26.1352 28.9687 26.4175 28.4146C27.0197 27.2332 27.6309 26.0563 28.2132 24.8683C28.6144 24.0295 29.3159 23.371 30.1797 23.0223C31.0435 22.6736 32.007 22.6601 32.8803 22.9844C33.8537 23.319 34.8492 23.5828 35.8293 23.8931C36.1738 24.0017 36.4961 24.1568 36.8516 24.2965C36.8739 24.6578 36.8917 24.9437 36.9117 25.2562L36.2227 25.6995C34.8892 25.2917 33.5558 24.906 32.2223 24.4649C31.7844 24.2978 31.3005 24.2956 30.8611 24.4588C30.4217 24.622 30.0571 24.9394 29.8355 25.3515C28.8799 27.1246 27.9842 28.9443 27.0819 30.7086L27.8175 32.2246L26.4419 35.3032C27.3575 37.564 26.6174 39.6785 23.9394 40.585C23.1638 41.8794 22.8705 43.4331 21.7548 44.4327C19.9769 44.6544 18.73 43.9562 18.2256 42.5066C18.3033 42.2384 18.3723 41.9149 18.4878 41.6201C18.6034 41.3253 18.7634 41.0261 18.9323 40.6803C18.4878 40.4298 18.0433 40.5584 17.6188 40.5384C17.1388 40.5163 16.6565 40.5384 16.1743 40.5384H14.7364C14.6542 43.934 14.7631 47.2786 14.6764 50.57C13.8497 51.0953 13.8497 51.0953 13.1207 50.3173V40.6249C12.5629 40.5207 12.0673 40.4232 11.565 40.3345C11.035 40.2424 10.5323 40.0334 10.0936 39.7228C9.65485 39.4122 9.29124 39.0079 9.02923 38.5392C8.15582 37.0875 7.31803 35.6158 6.47573 34.1441C6.00013 33.3129 5.5512 32.4684 5.08227 31.6328C4.84225 31.2095 4.75995 30.8083 5.23333 30.3761H6.19793C6.8002 31.4112 7.41135 32.4551 8.01362 33.5057C8.72924 34.7514 9.45821 35.9904 10.1427 37.2537C10.3943 37.7712 10.7906 38.205 11.284 38.5027C11.7773 38.8004 12.3465 38.9494 12.9229 38.9315C16.2565 38.9515 19.5902 38.9426 22.9238 38.9315C23.2546 38.923 23.5821 38.8639 23.895 38.7564C24.8662 38.4528 25.2773 37.7502 25.1239 36.7085C25.0593 36.3051 24.8571 35.9364 24.5514 35.6646C24.2457 35.3929 23.8552 35.2347 23.4461 35.2168C23.2616 35.2035 23.0771 35.2168 22.8905 35.2168H14.5564L13.354 35.2102ZM22.066 40.5806H20.8392C20.5369 41.2078 20.2591 41.7907 19.9502 42.4557L21.0303 42.8989C21.3659 42.1298 21.6926 41.4051 22.066 40.5806ZM25.1773 34.1086L26.0352 32.2202L25.0062 31.7769C24.7173 32.3975 24.4528 32.9649 24.1639 33.5811L25.1773 34.1086Z" fill="#393939"/>
<path d="M7.88077 7.66441C8.15635 6.503 8.38299 5.43024 8.66968 4.37301C9.27862 2.11447 12.0033 0.310298 14.7102 0.961927C15.6681 1.18357 16.646 1.35202 17.5839 1.53598C17.8394 1.20352 18.055 0.9176 18.3039 0.589569C19.9707 0.82451 21.6375 0.95971 22.9976 2.02803C24.3578 3.09635 24.9645 4.54367 24.6222 6.23923C23.8955 9.82541 23.0665 13.3894 22.2953 16.9623C22.0731 17.9996 21.8508 19.0347 21.6286 20.0653C21.1841 22.1776 19.7529 23.2681 17.7506 23.6271C16.4691 23.8334 15.1562 23.7153 13.9324 23.2836C13.7441 23.2001 13.5621 23.103 13.3879 22.9932C13.2167 21.5237 13.9546 20.1584 14.0102 18.6446L11.1344 18.9593C10.5055 18.516 10.5055 18.516 10.5455 17.6716C11.69 17.0066 13.0546 17.1884 14.4036 16.9291C14.9347 15.0673 15.268 13.1345 15.6836 11.1331C14.4658 10.8671 13.3657 10.6167 12.259 10.3817C10.7522 10.0648 9.23646 9.78331 7.73633 9.43533C7.2274 9.31786 6.60506 9.2558 6.44727 8.45346C6.55616 8.27393 6.69846 8.03234 6.84292 7.78853L7.88077 7.66441ZM19.2151 2.44472C17.8239 8.94772 16.4527 15.3731 15.0837 21.7764C17.475 22.7272 19.6729 21.5969 20.1952 19.243C20.4175 18.2456 20.5841 17.2482 20.7752 16.2398C20.0107 15.7499 18.924 16.0868 18.2239 15.2601C18.2292 14.9374 18.2552 14.6154 18.3017 14.296C18.5751 12.9329 18.8284 11.5653 19.1773 10.2199C19.3373 9.60821 19.2617 8.86792 20.0218 8.34706L22.3909 8.76375L23.1109 5.51003C22.862 3.51525 21.3308 2.54667 19.2151 2.44472ZM15.9014 9.50404C16.3948 8.49113 16.4593 7.38957 16.686 6.3279C16.9127 5.26623 17.2816 4.24889 17.2904 3.16063C16.6971 3.04094 16.1948 2.93898 15.6925 2.83924C15.1903 2.7395 14.6791 2.66414 14.1746 2.5644C13.5096 2.41068 12.8131 2.46698 12.1816 2.72549C11.5501 2.98401 11.0148 3.43196 10.6499 4.0073C10.3655 4.47429 10.1542 4.98176 10.0232 5.51225C9.80097 6.35006 9.68539 7.21003 9.50982 8.1365L15.9014 9.50404ZM22.0131 10.4704L20.8885 10.1535L19.9996 14.2671L21.0975 14.5664C21.5309 13.221 21.7042 11.8557 22.0198 10.4704H22.0131Z" fill="#393939"/>
<path d="M50.8982 31.3602C50.0359 32.4241 49.1558 33.5124 48.2735 34.5962C47.2956 35.7975 46.2733 36.97 45.3466 38.2023C44.0578 39.8805 43.3553 41.9333 43.3464 44.0471C43.3264 46.1505 43.3464 48.2583 43.3464 50.3861L42.6619 50.9867L41.884 50.6432C41.8392 50.5235 41.8071 50.3994 41.7884 50.273C41.7884 47.8726 41.6884 45.4678 41.8196 43.074C41.9551 40.636 42.9597 38.4661 44.5331 36.5755C46.0399 34.7625 47.5415 32.9435 49.038 31.1186C49.1536 30.9542 49.2583 30.7825 49.3514 30.6044V29.3167C49.3514 20.4909 49.3514 11.6658 49.3514 2.84146C49.3514 2.33612 49.2225 1.79087 49.7536 1.34537C50.087 1.23898 50.4714 1.18579 50.7981 1.5382C50.9959 2.56219 51.0826 25.848 50.8982 31.3602Z" fill="#393939"/>
<path d="M1.59118 50.5744L0.757769 51L0.00878906 50.4149V49.3643C0.00878906 41.722 0.0199011 34.0709 0.00878906 26.4353C0.00878906 24.0327 0.926668 22.1709 2.97574 20.8743C3.75358 20.3823 4.51358 19.8614 5.40922 19.2674C5.98704 16.6232 6.5871 13.8793 7.18715 11.1021L8.01611 10.7674L8.72949 11.3614C8.22056 14.3159 7.4916 17.2571 6.8871 20.1917C5.71144 20.9984 4.58698 21.7697 3.46688 22.5433C2.17343 23.4298 1.66225 24.7309 1.60224 26.2292C1.56224 27.2244 1.60224 28.224 1.60224 29.2214V50.5744H1.59118Z" fill="#393939"/>
<path d="M32.0559 12.6757C31.8847 12.064 32.1537 11.7005 32.8493 11.4501C33.1694 11.6378 33.4794 11.842 33.7782 12.0618C36.7948 14.4821 39.8063 16.9084 42.8124 19.3405C44.2437 20.4975 45.6594 21.67 47.035 22.8004C47.2573 23.5362 46.9928 23.9263 46.3683 24.1125C45.5616 23.7224 32.9382 13.6288 32.0559 12.6757Z" fill="#393939"/>
<path d="M46.366 27.6677C46.5883 28.3503 46.3483 28.7116 45.8172 28.9687C44.1192 28.9687 42.3835 29.0241 40.6522 28.9443C39.8277 28.9089 38.961 28.8734 38.1965 28.4368C37.5186 28.0467 37.1653 27.5192 37.4053 26.6636L38.1898 26.3023L39.2276 27.1645L43.0057 27.4416C42.5501 26.7478 41.1501 25.7682 39.7477 25.1299C39.261 25.152 38.7343 25.4557 38.272 24.855V23.9685C39.001 23.3346 39.761 23.3257 40.5589 23.6958C41.9368 24.3342 43.148 25.234 44.3637 26.1339C45.066 26.6548 45.7526 27.2 46.366 27.6677Z" fill="#393939"/>
<path d="M16.5948 29.5317C18.1727 30.1257 19.8906 30.0149 21.3685 30.6399C21.6086 31.5265 21.6086 31.5265 20.873 32.0939L16.9171 31.3403C16.666 31.2915 16.4126 31.2428 16.1592 31.2073C15.4058 31.0987 15.048 30.8482 14.9547 30.1345C14.7591 28.7936 14.6302 27.4416 14.4746 26.1029C14.9324 25.5067 14.9325 25.5067 15.7325 25.4778C16.5482 26.657 16.1925 28.1353 16.5948 29.5317Z" fill="#393939"/>
<path d="M27.2486 6.7734L29.2487 8.43129C29.471 9.08292 29.2176 9.43311 28.6198 9.76114C28.2834 9.6243 27.9642 9.44876 27.6686 9.23807C26.8063 8.47562 25.704 7.95254 25.1484 6.90417C25.4907 6.25254 27.6842 4.02281 29.5155 2.43585C29.6479 2.41513 29.7815 2.40254 29.9155 2.39817C30.0469 2.40664 30.1777 2.42442 30.3067 2.45137C30.7689 2.82151 30.7956 3.22269 30.5022 3.64381C30.3317 3.88427 30.1374 4.10704 29.9222 4.30874C29.0621 5.1 28.1953 5.8957 27.2486 6.7734Z" fill="#393939"/>
<path d="M47.1355 18.1592C47.1388 18.3602 47.1255 18.5611 47.0955 18.7599C47.0355 18.9116 46.9554 19.0546 46.8577 19.1854H45.8487C45.0819 18.0506 44.3064 16.898 43.5308 15.7455C42.9152 14.8323 42.2995 13.9236 41.6928 13.006C41.4506 12.6381 41.1928 12.2613 41.4572 11.6917L42.0661 11.3282C42.6062 11.4501 42.8729 11.7714 43.124 12.1593C44.4375 14.1475 45.7709 16.1223 47.1355 18.1592Z" fill="#393939"/>
<path d="M44.4284 31.4976V32.5327L39.1057 35.6535C38.4234 35.4651 38.13 35.1171 38.2967 34.2704C38.3234 34.2527 38.4989 34.1152 38.6901 34.0022C40.148 33.1467 41.6089 32.2941 43.0727 31.4445C43.4661 31.2162 43.8839 31.0433 44.4284 31.4976Z" fill="#393939"/>
<path d="M40.7209 8.44902L41.2254 9.77888L40.3209 10.4748L39.3008 9.56167L39.492 8.45346L40.7209 8.44902Z" fill="#393939"/>
<path d="M35.1101 37.5662L34.6855 36.7617C35.01 36.2342 35.3301 35.8086 36.1324 35.9084L36.7302 36.6021C36.3768 37.3114 35.9924 37.7879 35.1101 37.5662Z" fill="#393939"/>
<path d="M32.6158 1.7C31.7802 1.65789 31.7802 1.65789 31.3135 0.877706L32.0069 -0.00886536H32.8959L33.3403 0.746937L32.6158 1.7Z" fill="#393939"/>
</g>
<defs>
<clipPath id="clip0_57_1604">
<rect width="51" height="51" fill="white"/>
</clipPath>
</defs>
</svg>
