<svg width="38" height="48" viewBox="0 0 38 48" fill="none" xmlns="http://www.w3.org/2000/svg">
<g clip-path="url(#clip0_57_1647)">
<path d="M34.0913 30.8566C33.6346 31.5126 33.1246 32.1293 32.5668 32.7003C31.9471 33.3328 31.2717 33.9072 30.5489 34.4163C27.8405 36.5191 24.7616 37.7301 21.4277 38.2427V41.6691H22.4962C23.3953 41.6691 24.2944 41.6559 25.1935 41.6785C25.7799 41.6935 26.0386 41.8963 26.0479 42.4295C26.0777 44.0235 26.0665 45.6212 26.0479 47.2133C26.0479 47.7015 25.7389 47.9399 25.2772 47.9793C25.0911 47.9962 24.905 47.9793 24.7188 47.9793H13.2801C13.0941 47.9897 12.9077 47.9897 12.7217 47.9793C12.1762 47.9192 11.9343 47.7033 11.9249 47.1439C11.9026 45.6118 11.9026 44.0798 11.9249 42.5478C11.9343 41.8831 12.1632 41.6822 12.8557 41.6691C13.846 41.6484 14.84 41.6691 15.834 41.6578C16.0704 41.6578 16.3068 41.6109 16.5618 41.5846V38.3835C14.9163 37.8822 13.3043 37.5217 11.8021 36.8965C10.2683 36.2563 8.85724 35.7024 7.3085 34.5327C6.60016 33.9978 5.94048 33.4002 5.33723 32.7472C4.80916 32.1719 4.32855 31.554 3.90018 30.8998C-2.6466 21.8878 -0.325367 10.9308 6.15999 5.02793C13.1572 -1.34053 23.3004 -1.65031 30.5899 3.99343C34.4022 6.94485 36.796 10.8575 37.6635 15.6339C38.6649 21.1969 37.4401 26.2905 34.0913 30.8566ZM13.429 43.2931V46.2971C14.1513 46.5205 23.4549 46.5637 24.5383 46.3497V43.3194C23.857 43.1148 14.5273 43.0734 13.4253 43.2931H13.429ZM19.8083 41.5921V38.451H18.1962V41.5921H19.8083ZM19.0339 1.5771C16.7353 1.56148 14.4565 2.00508 12.3288 2.88234C10.2011 3.75959 8.26668 5.05311 6.63717 6.68827C5.00766 8.32343 3.71528 10.2678 2.83466 12.4094C1.95403 14.5509 1.50258 16.847 1.50632 19.1654C1.48026 29.2307 9.60184 36.8139 18.9632 36.8364C28.3245 36.8589 36.4721 29.272 36.4926 19.2405C36.5017 16.9227 36.0566 14.6258 35.1828 12.4819C34.3091 10.3381 33.024 8.3895 31.4013 6.74813C29.7786 5.10677 27.8503 3.80498 25.7273 2.91756C23.6043 2.03015 21.3283 1.5746 19.0302 1.5771H19.0339Z" fill="#393939"/>
<path d="M34.8039 19.2462C34.8211 17.1463 34.4252 15.0638 33.6392 13.1193C32.8531 11.1748 31.6925 9.40678 30.2244 7.91771C28.7564 6.42863 27.01 5.24803 25.0866 4.44423C23.1631 3.64043 21.1007 3.22939 19.0187 3.23493C9.85837 3.22179 3.21663 10.7449 3.16823 19.1073C3.11983 27.5222 9.75041 35.1786 19.0205 35.1636C21.095 35.1705 23.1503 34.7636 25.0682 33.9661C26.9862 33.1687 28.7288 31.9965 30.1957 30.5171C31.6627 29.0377 32.8251 27.2802 33.616 25.3459C34.4068 23.4115 34.8105 21.3385 34.8039 19.2462ZM4.74303 18.4107C4.89327 15.1395 6.16741 12.0231 8.34685 9.59588C8.65771 9.88877 8.90529 10.1159 9.14356 10.3469C9.43395 10.6285 9.70199 10.9383 10.0129 11.1936C10.3851 11.4997 10.8226 11.4677 11.0962 11.1598C11.3997 10.8181 11.3494 10.4764 11.0757 10.1497C10.9157 9.96198 10.7332 9.78925 10.5601 9.61089L9.4935 8.5182C11.0999 6.66511 15.655 4.56044 18.2182 4.95096C18.2312 5.11993 18.2554 5.30205 18.2573 5.48416C18.2666 6.07933 18.2424 6.67637 18.2852 7.26778C18.2886 7.36237 18.3115 7.45521 18.3524 7.54042C18.3932 7.62563 18.4512 7.70135 18.5226 7.76278C18.594 7.8242 18.6773 7.87 18.7672 7.89726C18.857 7.92453 18.9515 7.93265 19.0447 7.92114C19.417 7.87045 19.6851 7.67895 19.7074 7.26214C19.7223 6.98052 19.7185 6.69889 19.726 6.41727C19.739 5.90096 19.7539 5.38467 19.7707 4.79326C23.1772 5.0486 26.042 6.22766 28.6294 8.54824C28.0598 9.06456 27.5553 9.48698 27.0974 9.94885C26.6041 10.4501 26.5706 10.8069 26.9113 11.1673C27.2519 11.5278 27.6987 11.4659 28.2143 10.9796C28.4637 10.7449 28.6945 10.4914 28.9421 10.2549C29.1599 10.0446 29.387 9.84371 29.6867 9.57711C31.8702 12.1192 33.0839 14.9618 33.2737 18.4013H32.222C31.82 18.4013 31.4123 18.3807 31.0139 18.422C30.4871 18.4764 30.2228 18.7487 30.2098 19.173C30.1967 19.5973 30.4462 19.8845 30.9674 19.9578C31.3067 19.9857 31.6472 19.9957 31.9875 19.9878C32.4082 20.0009 32.827 20.0216 33.2756 20.0404C33.1064 23.2937 31.8296 26.3886 29.6607 28.8026C29.4112 28.583 29.2455 28.4478 29.0929 28.2976C28.6927 27.9071 28.3148 27.4884 27.8923 27.1223C27.8242 27.0569 27.744 27.0058 27.6563 26.9718C27.5685 26.9379 27.475 26.9217 27.3811 26.9243C27.2871 26.927 27.1946 26.9483 27.1089 26.9871C27.0232 27.0259 26.9459 27.0814 26.8815 27.1504C26.593 27.4058 26.5762 27.7982 26.8424 28.1624C26.9991 28.3567 27.1689 28.5399 27.3506 28.7106C27.7341 29.103 28.1212 29.4936 28.5494 29.9291C25.9954 32.1821 23.1418 33.3856 19.7837 33.5921C19.7614 33.1772 19.739 32.873 19.7316 32.567C19.7316 32.1596 19.7427 31.7522 19.7316 31.3466C19.7036 30.7834 19.4188 30.4492 18.987 30.4623C18.5551 30.4755 18.302 30.7947 18.2778 31.3842C18.261 31.7597 18.2778 32.1352 18.2778 32.5107V33.609C14.8527 33.3649 11.9879 32.1727 9.48791 29.946C9.69639 29.7151 9.86022 29.5292 10.024 29.3509C10.3963 28.9754 10.7686 28.5999 11.1223 28.2037C11.1853 28.1437 11.2358 28.0715 11.2708 27.9915C11.3059 27.9115 11.3247 27.8253 11.3263 27.7379C11.3278 27.6505 11.3121 27.5636 11.2799 27.4824C11.2478 27.4012 11.1999 27.3273 11.139 27.265C11.0172 27.1216 10.8477 27.0279 10.6623 27.0017C10.4769 26.9754 10.2883 27.0183 10.132 27.1223C9.91156 27.2925 9.70546 27.4809 9.51586 27.6855L8.34871 28.812C6.18196 26.223 4.92362 23.3992 4.77098 19.9784C5.2866 19.9784 5.71285 19.9916 6.13913 19.9784C6.53866 19.9925 6.93826 19.9514 7.32677 19.8564C7.53153 19.7888 7.72512 19.4809 7.794 19.2537C7.81599 19.1774 7.82223 19.0973 7.81236 19.0184C7.80248 18.9395 7.77667 18.8635 7.73655 18.7951C7.69644 18.7267 7.64289 18.6673 7.57913 18.6205C7.51537 18.5738 7.44277 18.5407 7.36585 18.5234C7.13106 18.4511 6.88723 18.4131 6.64176 18.4107C6.04051 18.4013 5.46155 18.4107 4.74303 18.4107Z" fill="#393939"/>
<path d="M20.1018 21.379C21.5146 22.8134 22.9107 24.2328 24.3106 25.6466C24.5005 25.8535 24.7093 26.0421 24.9342 26.2098C25.2543 26.4332 25.6378 26.4145 25.8425 26.099C25.9817 25.8368 26.0208 25.5322 25.9524 25.2429C25.9058 25.0289 25.6601 24.8524 25.487 24.6796C24.2194 23.3954 22.9536 22.1094 21.6729 20.8383C21.3211 20.4891 21.133 20.1755 21.2633 19.6161C21.3276 19.3107 21.3287 18.9953 21.2665 18.6895C21.2044 18.3837 21.0803 18.0941 20.9021 17.8389C20.7238 17.5837 20.4953 17.3684 20.2307 17.2064C19.9662 17.0444 19.6713 16.9392 19.3646 16.8974C17.9369 16.721 16.7586 17.6578 16.6543 19.0735C16.6358 19.3938 16.6831 19.7145 16.7934 20.0155C16.9037 20.3165 17.0746 20.5912 17.2952 20.8224C17.5158 21.0535 17.7815 21.2362 18.0755 21.3588C18.3695 21.4814 18.6854 21.5413 19.0035 21.5348C19.3722 21.5033 19.7388 21.4512 20.1018 21.379ZM19.7779 19.2387C19.775 19.3466 19.7508 19.4529 19.7066 19.5512C19.6625 19.6495 19.5992 19.738 19.5206 19.8113C19.4421 19.8846 19.3497 19.9413 19.2491 19.978C19.1485 20.0148 19.0415 20.0309 18.9346 20.0254C18.7716 20.0207 18.6137 19.9671 18.4809 19.8715C18.3482 19.7759 18.2467 19.6426 18.1894 19.4886C18.1321 19.3346 18.1216 19.1668 18.1592 19.0068C18.1968 18.8467 18.2808 18.7016 18.4006 18.5899C18.5203 18.4782 18.6703 18.405 18.8314 18.3796C18.9926 18.3543 19.1576 18.3779 19.3054 18.4475C19.4531 18.5171 19.577 18.6296 19.6612 18.7705C19.7453 18.9114 19.7859 19.0744 19.7779 19.2387Z" fill="#393939"/>
</g>
<defs>
<clipPath id="clip0_57_1647">
<rect width="38" height="48" fill="white" transform="matrix(1 0 0 -1 0 48)"/>
</clipPath>
</defs>
</svg>
