<svg width="46" height="46" viewBox="0 0 46 46" fill="none" xmlns="http://www.w3.org/2000/svg">
<path d="M2.99661 35.2656C3.80929 34.4833 4.72109 33.573 5.67251 32.7078C6.05633 32.3599 6.07975 32.0715 5.85271 31.6262C5.49232 30.9377 5.1121 30.231 4.94091 29.4848C4.71927 28.515 4.19304 28.3149 3.29928 28.378C2.21811 28.4537 1.13703 28.396 0 28.396V17.6148H4.43456C4.97514 16.3836 5.49228 15.2462 5.94817 14.0835C6.02205 13.8925 5.87067 13.5175 5.70489 13.3463C4.7841 12.4071 3.82544 11.5041 2.93168 10.6424C5.53368 8.03049 8.0276 5.5249 10.6152 2.92919C11.4567 3.78902 12.3523 4.66868 13.2046 5.5898C13.5848 6.00259 13.8875 6.09812 14.4281 5.82413C15.4354 5.3158 16.4985 4.92284 17.5869 4.45778V0H28.3986C28.3986 1.27262 28.4274 2.55425 28.3841 3.83409C28.3661 4.37486 28.5643 4.60739 29.0635 4.78044C29.9389 5.08485 30.7958 5.44057 31.6295 5.84576C32.08 6.06387 32.3629 6.05666 32.7106 5.6655C33.5774 4.71194 34.4873 3.80164 35.3324 2.92558L42.9979 10.619C42.178 11.4374 41.2861 12.3603 40.3527 13.2381C39.9635 13.5987 39.9112 13.8997 40.1562 14.3954C40.6572 15.4102 41.0572 16.4702 41.5438 17.595H46.0089V28.3419H41.5834C41.032 29.5911 40.5023 30.7502 40.0265 31.9363C39.9545 32.1165 40.1437 32.4897 40.3185 32.6663C41.2194 33.5802 42.1673 34.4599 43.0592 35.3161L35.3109 42.9789C34.5667 42.22 33.6711 41.3475 32.8296 40.4282C32.4242 39.9884 32.1088 39.8875 31.534 40.1831C30.5537 40.6896 29.5086 41.0627 28.4094 41.5278V46H17.6464V41.5747C16.4066 41.0339 15.3038 40.5256 14.156 40.0875C13.9398 40.0046 13.529 40.1362 13.347 40.3111C12.4208 41.2124 11.545 42.1497 10.7341 42.9825C8.13033 40.3904 5.61664 37.883 2.99661 35.2656ZM7.95556 13.2742C7.21857 15.1236 6.514 16.7658 5.92477 18.4548C5.72475 19.0352 5.48504 19.1939 4.92464 19.1758C3.79662 19.1434 2.6668 19.1758 1.54599 19.1758V26.8152C2.78032 26.8152 3.94799 26.7881 5.11205 26.8368C5.25866 26.8517 5.3999 26.9 5.52487 26.9782C5.64984 27.0563 5.7552 27.1621 5.83282 27.2874C6.53738 29.0233 7.18792 30.7826 7.94474 32.7673L5.14812 35.3341L10.6674 40.9059C11.5414 39.9199 12.4694 38.8726 13.219 38.0326C15.2012 38.8041 16.8878 39.4909 18.5996 40.1056C19.0591 40.2714 19.1997 40.4787 19.1888 40.9366C19.1654 42.0974 19.1888 43.2619 19.1888 44.4678H26.8255C26.8255 43.2547 26.8003 42.0902 26.8453 40.9294C26.8544 40.668 27.0453 40.2696 27.2561 40.1831C29.013 39.4621 30.797 38.8077 32.8224 38.0344L35.446 40.7707L40.814 35.363L38.0498 32.7024C38.7832 30.8619 39.4913 29.218 40.077 27.5308C40.277 26.9485 40.5167 26.7917 41.0771 26.8098C42.2051 26.844 43.3349 26.8206 44.4557 26.8206V19.1758C43.2214 19.1758 42.0537 19.2011 40.8897 19.1542C40.743 19.1396 40.6016 19.0913 40.4766 19.0132C40.3516 18.935 40.2463 18.8291 40.1689 18.7036C39.4643 16.9677 38.8138 15.2084 38.0588 13.2237L40.8536 10.655L35.3198 5.08508L32.7701 7.95838C30.788 7.18688 29.0995 6.5001 27.3877 5.88362C26.9282 5.71958 26.7876 5.51228 26.7984 5.05443C26.8219 3.89177 26.7984 2.7291 26.7984 1.52318H19.1618C19.1618 2.73451 19.1871 3.89898 19.142 5.06164C19.133 5.32121 18.942 5.72139 18.7311 5.80611C16.9743 6.52714 15.1903 7.18328 13.1649 7.95658L10.5593 5.23829L5.15349 10.646L7.95556 13.2742Z" fill="#393939"/>
<path d="M9.93067 23.0352C9.94025 21.3183 10.2878 19.62 10.9535 18.0375C11.6192 16.4549 12.5899 15.019 13.8103 13.8118C15.0307 12.6045 16.4768 11.6495 18.0662 11.0013C19.6555 10.3532 21.3568 10.0245 23.0732 10.0341C24.7895 10.0437 26.4871 10.3913 28.0691 11.0572C29.6511 11.7231 31.0865 12.6942 32.2933 13.915C33.5002 15.1358 34.4548 16.5825 35.1028 18.1724C35.7507 19.7623 36.0793 21.4643 36.0697 23.1812C35.9994 30.2112 30.1413 36.039 23.1065 36.0678C15.8483 36.0967 9.92346 30.2347 9.93067 23.0352ZM25.3247 34.2112C30.0854 33.427 34.6948 28.8142 34.5146 22.6098C34.3542 16.7802 29.7088 11.9619 23.7931 11.4861C18.1025 11.03 12.7147 15.194 11.6569 20.8414C10.5271 26.8693 14.4554 31.8876 17.5908 33.0161C17.5908 31.1107 17.6033 29.2198 17.5745 27.3307C17.5456 27.0429 17.4265 26.7715 17.234 26.5556C15.6519 24.6755 15.059 22.5377 15.4194 20.106C16.151 15.1579 22.1623 12.1746 26.541 14.6658C25.1679 16.034 23.8381 17.4111 22.4397 18.7324C21.9136 19.2317 21.719 19.677 21.8541 20.4413C22.2019 22.3033 22.146 22.3015 23.9858 22.6044C24.6525 22.7161 25.1625 22.6134 25.6581 22.0744C26.7573 20.8829 27.9357 19.7635 29.0818 18.6189C29.3196 18.3809 29.5701 18.1556 29.8476 17.8978C31.8135 22.1645 30.0693 27.0459 25.3157 28.8647V34.213L25.3247 34.2112ZM23.6561 15.4103C23.4667 15.3619 23.2748 15.324 23.0812 15.2967C21.8738 15.2894 20.6905 15.6351 19.6767 16.2912C18.6629 16.9474 17.8627 17.8854 17.3745 18.9902C16.8782 20.092 16.7257 21.318 16.9369 22.5078C17.1481 23.6977 17.7133 24.7962 18.5584 25.6597C18.7739 25.8591 18.9423 26.1039 19.0517 26.3763C19.1611 26.6488 19.2086 26.9421 19.1909 27.2352C19.1548 29.218 19.1639 31.2009 19.1909 33.1837C19.1909 33.4541 19.3549 33.9047 19.5423 33.9606C20.8793 34.4004 22.2452 34.651 23.7372 34.4725C23.7372 32.3707 23.7516 30.3266 23.7372 28.2951C23.7372 27.7922 23.8669 27.5741 24.3913 27.4461C25.1992 27.2638 25.9605 26.9154 26.6265 26.4229C27.2926 25.9304 27.8489 25.3046 28.2601 24.5854C28.9016 23.4786 29.298 22.2997 29.0349 20.8C28.024 21.8329 27.1086 22.7035 26.2761 23.6463C26.0762 23.9038 25.8057 24.0977 25.4976 24.2043C25.1895 24.3109 24.8571 24.3255 24.5408 24.2465C23.4795 24.0482 22.402 23.9401 21.3478 23.7184C21.1992 23.6696 21.064 23.5869 20.953 23.4768C20.8419 23.3666 20.7581 23.2321 20.7081 23.0839C20.4775 21.8779 20.3009 20.6594 20.1802 19.4372C20.1772 19.0958 20.3064 18.7663 20.5406 18.5179C21.5046 17.4977 22.528 16.5189 23.6561 15.4103Z" fill="#393939"/>
</svg>
