<svg width="22" height="23" viewBox="0 0 22 23" fill="none" xmlns="http://www.w3.org/2000/svg">
<g clip-path="url(#clip0_212_218)">
<path d="M15.1447 16.8832C12.6193 18.8629 9.88158 19.5082 6.8951 18.7219C4.64528 18.1298 2.85518 16.7803 1.55161 14.7703C-1.03905 10.7763 -0.323013 5.52704 3.23107 2.28983C6.62504 -0.802065 11.996 -0.735162 15.3611 2.32508C18.7902 5.44359 19.9219 11.4065 16.0806 15.9803C16.1803 16.0451 16.3039 16.0962 16.3912 16.1861C18.149 17.9903 19.902 19.8002 21.6584 21.6059C21.8618 21.8152 22.0371 22.0361 21.9924 22.3533C21.9512 22.6461 21.7931 22.8547 21.5169 22.9547C21.2241 23.0605 20.9774 22.9777 20.7644 22.7598C19.8642 21.8375 18.964 20.9153 18.0666 19.9902C17.1767 19.0737 16.2881 18.1557 15.4031 17.2349C15.3068 17.1342 15.2347 17.0076 15.1447 16.8832ZM9.27755 17.568C13.6638 17.5414 17.1182 13.9215 17.0811 9.48362C17.0433 4.9652 13.5649 1.4424 9.26174 1.45031C4.81845 1.45823 1.39768 5.20475 1.44097 9.58937C1.48427 13.9618 4.94077 17.5766 9.27755 17.568Z" fill="#5C5C5C"/>
</g>
<defs>
<clipPath id="clip0_212_218">
<rect width="22" height="23" fill="white"/>
</clipPath>
</defs>
</svg>
