<svg width="33" height="33" viewBox="0 0 33 33" fill="none" xmlns="http://www.w3.org/2000/svg">
<g clip-path="url(#clip0_1_547)">
<path d="M15.9984 31.9032C15.9984 30.4193 15.9984 29.0038 15.9984 27.587C15.9877 27.394 15.996 27.2004 16.0231 27.009C16.0752 26.7509 16.2498 26.5419 16.5155 26.6038C16.7094 26.6726 16.8681 26.8145 16.957 26.9986C17.0352 27.1574 16.9935 27.378 16.9935 27.5703C16.9935 28.9896 16.9935 30.409 16.9935 31.9445L27.6739 29.5341V21.1793C27.0552 21.3083 26.4653 21.4374 25.8752 21.5561C25.7919 21.5741 25.7111 21.6154 25.6264 21.6283C25.2852 21.6812 25.0247 21.5328 24.9752 21.2554C24.9244 20.9354 25.1055 20.7651 25.3894 20.698C26.2321 20.5006 27.0826 20.3109 27.9214 20.1264C28.9348 19.9019 29.9507 19.6851 30.9641 19.4593C31.111 19.4203 31.2558 19.3738 31.3978 19.3199L27.9227 15.8735L17.633 18.2064L21.1172 21.6412C21.6382 21.5303 22.3116 21.3974 22.9824 21.2348C23.3106 21.1561 23.5463 21.2219 23.6544 21.5445C23.7534 21.8425 23.5815 22.0606 23.1699 22.1664C22.4562 22.3393 21.7372 22.4838 21.0208 22.6606C20.6626 22.7483 20.4516 22.5638 20.2302 22.3432C19.3436 21.4571 18.4536 20.575 17.5601 19.6967C17.4116 19.5496 17.2527 19.4128 16.9935 19.1806V19.9303C16.9935 21.4361 16.9935 22.9419 16.9935 24.4464C16.9935 25.0283 16.8372 25.2709 16.4933 25.2696C16.1495 25.2683 16.001 25.0296 15.9997 24.4412C15.9997 22.9367 15.9997 21.4309 15.9997 19.9251C15.9997 19.7212 15.9828 19.5174 15.9685 19.209C15.7366 19.4219 15.5777 19.5587 15.4305 19.7045C14.5539 20.5703 13.6722 21.4296 12.8099 22.3083C12.5103 22.6141 12.2329 22.7225 11.7809 22.6154C9.65528 22.1135 7.51915 21.6606 5.33226 21.178V29.5212L7.65984 30.0567C7.87267 30.0947 8.08313 30.1447 8.29022 30.2064C8.56505 30.3006 8.73571 30.4941 8.64975 30.7999C8.5742 31.0709 8.35274 31.1587 8.08963 31.1161C7.74708 31.0606 7.40842 30.987 7.06977 30.9135C6.5644 30.8012 6.06038 30.6748 5.55371 30.5612C4.56903 30.3406 4.302 30.0141 4.29548 28.9974C4.29548 28.2012 4.29548 27.4064 4.29548 26.6103V20.9445L1.18775 20.2374C0.935067 20.1806 0.674558 20.1483 0.428387 20.0709C-0.0222763 19.929 -0.121266 19.5948 0.167888 19.227C0.267463 19.1135 0.373569 19.0058 0.485689 18.9045C1.63709 17.7638 2.80282 16.6374 3.93208 15.4748C4.30985 15.0646 4.8133 14.789 5.36483 14.6903C6.23359 14.5303 7.08931 14.3032 8.08442 14.0812C7.69367 13.6864 7.36284 13.369 7.04242 13.0387C6.57613 12.5509 6.48499 12.0477 6.75331 11.5096C6.82789 11.3409 6.94189 11.1922 7.08593 11.0758C7.22996 10.9593 7.39989 10.8785 7.58168 10.8399C8.13263 10.729 8.69137 10.6528 9.24884 10.5819C9.55363 10.5393 9.82977 10.5986 9.88317 10.969C9.93657 11.3393 9.70994 11.4748 9.39734 11.5277C8.99227 11.5961 8.582 11.6374 8.18083 11.7251C7.98807 11.7677 7.65984 11.8851 7.65984 11.9754C7.67185 12.1971 7.76438 12.407 7.92034 12.5664C8.526 13.1832 9.16943 13.7625 9.78161 14.3728C10.3938 14.9832 11.0046 15.6464 11.6337 16.267C11.7812 16.3885 11.9581 16.4698 12.1469 16.5032C13.4298 16.8051 14.7142 17.1083 16.0062 17.3754C16.3451 17.4402 16.6936 17.4371 17.0312 17.3664C18.3012 17.1083 19.562 16.7948 20.8293 16.5161C21.1001 16.4556 21.3394 16.2997 21.5027 16.0774C21.9183 15.6097 22.3578 15.1636 22.8196 14.7406C23.5802 14.0038 24.3552 13.2812 25.1041 12.5341C25.2344 12.4051 25.3776 12.147 25.332 11.9987C25.2865 11.8503 25.0103 11.7574 24.8215 11.729C23.3236 11.4984 21.8236 11.2808 20.3214 11.0761C19.691 10.9896 19.2468 10.7006 18.9655 10.1174C18.3311 8.79994 17.663 7.49801 17.0117 6.18962C16.953 6.05159 16.8819 5.91903 16.7994 5.79349C16.6001 5.52768 16.3696 5.53542 16.1729 5.80768C16.0924 5.93464 16.0227 6.06801 15.9645 6.20639C15.3211 7.49672 14.662 8.77543 14.0407 10.0774C13.7385 10.7096 13.271 11.0322 12.5794 11.0838C12.3189 11.1032 12.0662 11.1651 11.8096 11.1974C11.48 11.2399 11.2365 11.1045 11.1857 10.7793C11.1349 10.4541 11.3615 10.3045 11.6403 10.2516C12.0636 10.169 12.4921 10.1161 12.9428 10.0451C13.086 9.77672 13.2306 9.51608 13.3635 9.25027C14 7.98231 14.6342 6.71263 15.2664 5.44123C15.5191 4.93414 15.9072 4.64124 16.4933 4.64382C17.0795 4.6464 17.4663 4.94704 17.7124 5.45413C17.7789 5.58962 17.8427 5.72381 17.9144 5.85801C18.5109 7.05198 19.107 8.24468 19.7027 9.43608C19.7978 9.62704 19.8968 9.82317 20.0166 10.049C21.2323 10.227 22.4479 10.4047 23.6636 10.5819C24.1989 10.6619 24.7381 10.7251 25.2682 10.8399C26.3597 11.0632 26.7258 12.1909 25.9729 13.0128C25.6564 13.3587 25.3034 13.6722 24.8866 14.0799C25.6147 14.2554 26.2295 14.467 26.8612 14.5419C27.997 14.6799 28.8605 15.1961 29.6173 16.0425C30.5082 17.0387 31.5072 17.9406 32.458 18.8812C32.5662 18.9883 32.6807 19.0877 32.7771 19.2038C33.1314 19.6296 33.0298 19.9716 32.4828 20.107C31.6844 20.3032 30.8781 20.4632 30.0758 20.6425C29.6355 20.7406 29.1979 20.8451 28.6847 20.9638V28.747C28.6847 28.898 28.6847 29.049 28.6847 29.1987C28.6495 29.9651 28.3486 30.3599 27.6101 30.5277C24.0048 31.3501 20.3974 32.1647 16.7877 32.9716C16.554 33.0121 16.3142 33.0029 16.0843 32.9445C14.2465 32.5406 12.4114 32.1238 10.5761 31.7083C10.4719 31.6838 10.369 31.6464 10.2661 31.6128C9.98736 31.5212 9.90924 31.3122 9.96655 31.0516C10.0278 30.769 10.2414 30.6838 10.5071 30.7109C10.6136 30.7296 10.7188 30.7546 10.8223 30.7858C12.3618 31.1359 13.9018 31.4842 15.4422 31.8309C15.6038 31.8658 15.7548 31.8722 15.9984 31.9032ZM12.0688 21.6903C13.2059 20.56 14.339 19.4335 15.536 18.2412L5.08086 15.8748L1.58499 19.3496L12.0688 21.6903ZM7.28734 15.2387L7.26515 15.3793L9.96782 15.9986L8.94669 14.8851L7.28734 15.2387ZM23.0384 16.0012L25.8739 15.347C24.1077 14.7548 24.0608 14.7638 23.0892 15.8412C23.067 15.8932 23.0499 15.9472 23.0384 16.0025V16.0012Z" fill="#FFB200"/>
<path d="M16.9912 1.47353C16.9912 1.77288 17.0042 2.07353 16.9912 2.37675C16.9781 2.67998 16.8296 2.9303 16.4857 2.92643C16.1797 2.92643 16.0208 2.69417 16.0129 2.4103C15.996 1.76514 15.9947 1.11997 16.0129 0.486426C16.0234 0.206426 16.1927 -0.00776741 16.5092 0.00255517C16.8257 0.0128778 16.9638 0.234813 16.9833 0.518684C17.0055 0.837394 16.9833 1.16385 16.9833 1.47998L16.9912 1.47353Z" fill="#FFB200"/>
<path d="M12.8895 6.22186C12.7814 6.35089 12.6915 6.54315 12.543 6.60896C12.4656 6.63348 12.3834 6.63972 12.3031 6.62717C12.2229 6.61463 12.1467 6.58364 12.0806 6.5367C11.8453 6.3163 11.6276 6.07817 11.4294 5.82444C11.1897 5.54702 10.9084 5.28638 10.7429 4.97154C10.6993 4.87115 10.6804 4.7619 10.6879 4.65284C10.6953 4.54378 10.729 4.43806 10.7859 4.34444C10.967 4.13025 11.2692 4.16121 11.4698 4.38831C11.8983 4.87347 12.3098 5.37283 12.7214 5.8709C12.7889 5.98213 12.8452 6.09968 12.8895 6.22186Z" fill="#FFB200"/>
<path d="M20.6771 6.67226C20.3202 6.67871 20.0089 6.28517 20.1847 6.04775C20.6294 5.44017 21.1123 4.86096 21.6305 4.31356C21.7204 4.21807 22.0656 4.25549 22.2128 4.35227C22.3209 4.42323 22.3925 4.7613 22.3183 4.85807C21.8598 5.4542 21.3583 6.01936 20.8634 6.58323C20.8126 6.64129 20.7123 6.65549 20.6771 6.67226Z" fill="#FFB200"/>
<path d="M5.14356 6.36133C5.2977 6.4324 5.44585 6.51568 5.58646 6.61036C6.0241 6.96133 6.45912 7.31616 6.87852 7.68778C7.18201 7.95487 7.23409 8.26326 7.0283 8.46197C6.77431 8.71229 6.52424 8.62584 6.28197 8.42068C5.80526 8.01681 5.31031 7.63229 4.84923 7.20649C4.79149 7.1372 4.75094 7.05548 4.73081 6.96787C4.71068 6.88026 4.71151 6.7892 4.73329 6.70198C4.78799 6.56391 4.99898 6.47617 5.14356 6.36133Z" fill="#FFB200"/>
<path d="M26.2439 8.63232C26.1514 8.5678 25.9652 8.50329 25.9313 8.39877C25.8779 8.23619 25.8557 7.95748 25.9508 7.86974C26.4887 7.37368 27.054 6.90758 27.6441 6.47361C27.747 6.39877 28.0713 6.502 28.1976 6.62071C28.2875 6.70587 28.2967 7.04007 28.2094 7.12007C27.6545 7.62845 27.0645 8.09942 26.481 8.57684C26.4354 8.61813 26.3585 8.60651 26.2439 8.63232Z" fill="#FFB200"/>
</g>
<defs>
<clipPath id="clip0_1_547">
<rect width="33" height="33" fill="white"/>
</clipPath>
</defs>
</svg>
