<svg width="38" height="23" viewBox="0 0 38 23" fill="none" xmlns="http://www.w3.org/2000/svg">
<g clip-path="url(#clip0_1_554)">
<path d="M15.237 2.14282C19.4158 2.14282 23.5945 2.15524 27.7732 2.14282C29.4508 2.14282 30.7127 2.81827 31.4004 4.40523C31.6575 5.02163 31.9939 5.59977 32.4008 6.12418C34.0239 8.2277 35.569 10.3949 37.036 12.6257C37.4622 13.2732 37.5785 14.1537 37.9034 14.9099C38.0083 15.1785 38.0285 15.4742 37.9613 15.7552C37.8941 16.0363 37.7428 16.2886 37.5286 16.4767C37.3775 16.6211 37.3216 16.9239 37.302 17.1614C37.2627 17.6273 37.311 18.0931 37.2642 18.559C37.2007 19.2049 36.8577 19.5139 36.2244 19.559C36.0231 19.5699 35.8213 19.5699 35.6199 19.559C35.2179 19.5496 34.7357 19.6692 34.441 19.4798C34.2038 19.3245 34.1993 18.8012 34.0829 18.4441C33.5751 16.8913 32.1107 15.8183 30.5827 15.8897C28.943 15.9658 27.5753 17.0714 27.2216 18.7127C27.0796 19.3742 26.8574 19.59 26.1562 19.5838C21.6223 19.5388 17.0884 19.5605 12.5621 19.5605C11.6976 19.5605 11.6976 19.5605 11.5042 18.6723C11.1535 17.0326 9.57121 15.8229 7.87705 15.8944C6.0771 15.9705 4.64739 17.163 4.45243 18.8866C4.38291 19.4984 4.17285 19.604 3.66505 19.5683C3.15726 19.5326 2.60715 19.5683 2.07971 19.5543C1.4238 19.5279 1.12456 19.2158 1.09283 18.5481C1.07469 18.1614 1.1276 17.7717 1.0732 17.3866C1.02937 17.076 0.864639 16.7996 0.770939 16.5031C0.681772 16.2437 0.547263 15.9813 0.539706 15.7158C0.50948 14.7344 0.50948 13.751 0.539706 12.7655C0.547263 12.5046 0.690818 12.2453 0.78603 11.9891C0.905623 11.7305 1.00665 11.4632 1.08829 11.1894C1.17443 10.7593 1.03389 10.4875 0.532142 10.5496C0.281268 10.5823 0.0168057 10.5885 0.018317 10.1878C0.0198283 9.78723 0.275221 9.78723 0.53063 9.81828C1.03389 9.88195 1.114 9.61176 1.10493 9.17542C1.08377 8.16766 1.23035 7.1335 1.05353 6.15834C0.92356 5.44095 0.8057 4.80896 1.07471 4.11641C1.16237 3.89281 1.08527 3.60399 1.0898 3.34002C1.11096 2.39592 1.33615 2.14437 2.26862 2.14126C5.11288 2.12884 7.95713 2.14126 10.8014 2.14126L15.237 2.14282ZM15.2492 2.85399C11.1465 2.85399 7.0438 2.85399 2.94114 2.85399C1.70188 2.85399 1.79559 2.66766 1.74874 4.06052C1.72758 4.70648 1.98299 4.83692 2.54368 4.81983C4.25447 4.79033 5.96526 4.80896 7.68209 4.80896C7.83322 4.80896 7.98435 4.80896 8.13548 4.80896C8.38182 4.80896 8.65386 4.76549 8.63875 5.17853C8.62364 5.59157 8.33648 5.49996 8.09769 5.52015C7.94656 5.53412 7.79543 5.52015 7.6443 5.52015C5.90783 5.52015 4.16833 5.53412 2.43336 5.52015C1.95731 5.52015 1.75176 5.65057 1.77745 6.17231C1.81221 6.89436 1.77746 7.61952 1.78804 8.34623C1.79711 8.81206 1.70795 9.34778 1.915 9.6894C2.04044 9.89437 2.65554 9.78412 3.04998 9.81673C3.07416 9.81673 3.11194 9.80741 3.12252 9.81673C3.23436 9.94871 3.39607 10.0729 3.42478 10.2251C3.44292 10.3074 3.24947 10.5077 3.12252 10.5357C2.87165 10.5644 2.61886 10.5712 2.36688 10.5559C2.10391 10.5559 1.74271 10.4813 1.80468 10.9363C1.84699 11.2546 1.52055 11.7624 2.17645 11.8338C2.5981 11.8804 2.78094 12.1785 2.79303 12.5838C2.81873 13.6708 2.84292 14.7484 2.84443 15.8307C2.84443 16.2096 2.72804 16.5885 2.29884 16.6459C1.81522 16.7111 1.78351 17.0093 1.7956 17.4052C1.84396 19.045 1.52355 18.7717 3.21015 18.8152C3.57891 18.8245 3.72098 18.6801 3.82829 18.3167C4.41013 16.3354 5.90632 15.2018 7.90878 15.1754C9.91125 15.149 11.4981 16.2965 12.1026 18.281C12.2341 18.7127 12.4306 18.826 12.8477 18.8214C14.8124 18.7996 16.7771 18.8121 18.7417 18.8105C19.5246 18.8105 19.5291 18.8105 19.5276 18.0217C19.5205 14.2712 19.512 10.5217 19.5019 6.77324C19.5019 5.472 19.5019 5.47201 20.8001 5.47201C23.9708 5.47201 27.142 5.47201 30.3137 5.47201C30.9681 5.47201 31.0149 5.39436 30.7671 4.76548C30.6975 4.57316 30.6083 4.38891 30.5011 4.2158C29.8362 3.18784 28.8553 2.85089 27.7052 2.85399C23.5552 2.85917 19.4042 2.85917 15.2522 2.85399H15.2492ZM25.6333 12.5279H25.6121C25.6121 10.6428 25.5985 8.75772 25.6212 6.87418C25.6212 6.3835 25.5048 6.19406 24.994 6.20648C23.6127 6.23909 22.2298 6.23598 20.8485 6.20648C20.3588 6.19561 20.1971 6.34779 20.2017 6.86021C20.2349 10.6552 20.251 14.4498 20.25 18.2437C20.25 18.6739 20.3724 18.8276 20.8032 18.8183C22.1633 18.7888 23.5235 18.7717 24.8731 18.8043C25.4564 18.8183 25.6589 18.649 25.6468 18.0279C25.6121 16.1925 25.6363 14.3602 25.6363 12.5279H25.6333ZM26.4237 12.2018V17.326C26.4176 17.5072 26.4206 17.6886 26.4327 17.8695C26.4556 17.9562 26.4929 18.0382 26.5431 18.1118C26.5854 18.0569 26.6243 17.9994 26.6594 17.9394C26.7425 17.7841 26.8105 17.6149 26.9012 17.458C27.808 15.8571 29.1802 15.0791 30.9741 15.2018C32.8119 15.326 34.0995 16.3338 34.704 18.1009C34.9277 18.7484 35.2315 18.8959 35.7801 18.8074C36.031 18.767 36.4602 18.6972 36.4859 18.5729C36.5848 18.0686 36.6062 17.5515 36.5493 17.0403C36.5236 16.826 36.2229 16.649 36.0582 16.4456C35.9189 16.3002 35.8044 16.1316 35.7196 15.9472C35.4657 15.2003 35.6985 14.4937 36.3121 13.9798C36.4063 13.8748 36.4847 13.756 36.5448 13.6273C36.4275 13.5497 36.3004 13.4891 36.167 13.4472C35.9661 13.4266 35.764 13.4225 35.5625 13.4347C33.7746 13.4347 31.9867 13.4441 30.1989 13.4254C29.4039 13.4254 29.0654 13.1149 29.0563 12.4115C29.0382 11.0419 29.0382 9.67128 29.0563 8.29964C29.0639 7.66921 29.3812 7.35244 29.9858 7.32449C30.4633 7.30275 30.9439 7.33691 31.42 7.30896C31.6923 7.27696 31.9619 7.22507 32.227 7.15368C32.0113 6.84565 31.7701 6.55731 31.5061 6.29188C31.3837 6.18474 31.1208 6.23132 30.9198 6.22977C29.6609 6.22977 28.4004 6.26703 27.1415 6.21269C26.5038 6.18474 26.3995 6.44561 26.4085 7.01549C26.4448 8.73599 26.4206 10.4689 26.4206 12.2018H26.4237ZM33.0053 12.7111C33.9121 12.7111 34.8189 12.7111 35.7256 12.7111C36.1035 12.7111 36.179 12.59 35.9433 12.267C35.4022 11.5217 34.8854 10.7608 34.3383 10.0186C33.8577 9.36486 33.4724 8.47822 32.827 8.15523C32.1817 7.83225 31.2538 8.06517 30.4498 8.0543C30.3999 8.0543 30.3485 8.0543 30.2986 8.0543C29.9102 8.01082 29.7667 8.18008 29.7727 8.58692C29.7924 9.74841 29.806 10.9161 29.7727 12.0729C29.7561 12.6226 29.9994 12.7282 30.4512 12.7189C31.2976 12.7018 32.153 12.7127 33.0083 12.7111H33.0053ZM2.13262 15.2127C2.11902 15.0031 2.23234 14.6273 1.69886 14.6118C1.16537 14.5962 1.22733 14.9534 1.24547 15.2841C1.2636 15.6149 1.1155 15.9875 1.66713 15.9953C2.17643 16.0015 2.15076 15.6692 2.13564 15.2127H2.13262ZM2.10542 13.2329C2.09333 12.9223 2.18703 12.5636 1.65204 12.559C1.17598 12.559 1.19864 12.8478 1.23038 13.1552C1.25909 13.4347 1.04147 13.8524 1.61123 13.8711C2.10844 13.8866 2.13259 13.5978 2.10841 13.2329H2.10542ZM37.4289 15.267L36.7791 14.6226C36.6279 14.8509 36.4193 15.0621 36.3649 15.3105C36.2969 15.6211 36.4118 15.9984 36.8002 15.9316C36.9997 15.9068 37.1508 15.5791 37.4319 15.267H37.4289Z" fill="#FF98DC"/>
<path d="M34.0329 19.6179C34.0329 21.5387 32.5609 23.0046 30.6551 22.9999C28.7962 22.9999 27.2623 21.4363 27.2834 19.5838C27.3056 18.671 27.6752 17.8036 28.313 17.1677C28.9508 16.5319 29.8057 16.1784 30.6944 16.1832C31.1337 16.1813 31.569 16.2689 31.9751 16.4409C32.3813 16.6129 32.7502 16.866 33.0607 17.1853C33.3711 17.5047 33.6168 17.8841 33.7837 18.3017C33.9506 18.7192 34.0353 19.1666 34.0329 19.6179ZM33.318 19.6179C33.3221 19.2623 33.2567 18.9094 33.1258 18.5801C32.9949 18.2508 32.8011 17.9518 32.5558 17.7008C32.3105 17.4498 32.0188 17.2518 31.6978 17.1187C31.3768 16.9855 31.033 16.9198 30.6869 16.9254C29.2285 16.9254 28.0073 18.1288 27.9952 19.59C27.9831 21.0512 29.2043 22.2686 30.6612 22.2748C32.1634 22.2763 33.3135 21.1272 33.318 19.6133V19.6179Z" fill="#FF98DC"/>
<path d="M7.95694 23.0047C7.51664 23.0106 7.07955 22.9267 6.67108 22.7577C6.26262 22.5887 5.89093 22.338 5.57754 22.0202C5.26414 21.7023 5.01529 21.3237 4.84546 20.9063C4.67564 20.4889 4.58822 20.0409 4.58826 19.5885C4.58826 17.7252 6.13582 16.1724 7.98413 16.1724C8.87246 16.1768 9.72353 16.5396 10.3539 17.1827C10.9844 17.8258 11.3436 18.6976 11.3543 19.6103C11.3483 21.5016 9.84001 23.0047 7.95694 23.0047ZM7.86776 22.2717C9.37905 22.3183 10.5881 21.1941 10.6289 19.7127C10.6472 18.9956 10.3889 18.3002 9.91011 17.778C9.43136 17.2559 8.77111 16.9494 8.07331 16.9255C6.59527 16.882 5.35298 18.0373 5.31369 19.5C5.30035 19.8551 5.35625 20.2093 5.47814 20.5418C5.60002 20.8744 5.78541 21.1785 6.0234 21.4364C6.26138 21.6942 6.54716 21.9005 6.86391 22.0432C7.18065 22.1858 7.52195 22.262 7.86776 22.2671V22.2717Z" fill="#FF98DC"/>
<path d="M20.055 21.5946C18.4213 21.5946 16.7876 21.5946 15.1524 21.5946C14.9166 21.5946 14.566 21.7499 14.557 21.2514C14.5479 20.753 14.8683 20.8679 15.1267 20.8679C18.4717 20.8679 21.8157 20.8679 25.1587 20.8679C25.4277 20.8679 25.739 20.8042 25.7194 21.2654C25.6997 21.753 25.3431 21.593 25.1149 21.5946C23.4237 21.607 21.7356 21.5946 20.055 21.5946Z" fill="#FF98DC"/>
<path d="M9.26738 0.729709C8.46489 0.729709 7.66391 0.729709 6.86141 0.729709C6.58636 0.729709 6.2327 0.757659 6.31733 0.332194C6.34454 0.190889 6.66191 0.0216345 6.8478 0.0216345C8.47546 -0.00321024 10.1046 0.0045526 11.7323 0.0107638C11.962 0.0107638 12.2567 -0.0715294 12.2567 0.355489C12.2567 0.754558 11.9968 0.731265 11.7459 0.732817C10.9207 0.731265 10.0986 0.729709 9.26738 0.729709Z" fill="#FF98DC"/>
<path d="M4.91315 0.931581C4.69552 0.669159 4.48243 0.527862 4.45976 0.357054C4.39024 -0.108784 4.77111 0.0278603 5.0114 0.00612113C5.28193 -0.0171708 5.55394 0.0371771 5.44966 0.39432C5.39677 0.56668 5.16856 0.684687 4.91315 0.931581Z" fill="#FF98DC"/>
<path d="M13.2466 21.8183C12.9988 21.545 12.7781 21.4131 12.7403 21.2391C12.6602 20.8603 12.9579 20.8541 13.2224 20.8603C13.4869 20.8665 13.7907 20.8447 13.7302 21.2267C13.7015 21.3991 13.4839 21.5388 13.2466 21.8183Z" fill="#FF98DC"/>
<path d="M10.0183 9.81514C11.5991 9.81514 13.1815 9.81514 14.7623 9.82291C14.9331 9.82291 15.2157 9.89744 15.2535 10.0077C15.3759 10.3555 15.2746 10.5729 14.8273 10.5651C13.4218 10.5403 12.0163 10.5651 10.6107 10.5651H5.11116C4.82855 10.5651 4.55349 10.6071 4.57918 10.1505C4.60488 9.69402 4.89808 9.82912 5.12024 9.82757C6.75546 9.80583 8.38613 9.81514 10.0183 9.81514Z" fill="#FF98DC"/>
<path d="M7.13953 7.92689C5.96072 7.92689 4.78041 7.92689 3.6016 7.92689C3.37642 7.92689 3.08019 8.03247 3.06054 7.6008C3.0409 7.16912 3.32201 7.18931 3.60311 7.18931C5.93655 7.18931 8.27 7.18931 10.6034 7.18931C10.8649 7.18931 11.1838 7.10546 11.1868 7.56664C11.1898 8.02782 10.8483 7.92223 10.6019 7.92534C9.44881 7.9331 8.29416 7.92689 7.13953 7.92689Z" fill="#FF98DC"/>
<path d="M20.7261 12.9843V12.829C20.7261 11.2125 20.791 11.1473 22.3537 11.3709C22.5154 11.3942 22.656 11.5697 22.8071 11.6737C22.6752 11.8265 22.5284 11.965 22.3688 12.0868C22.2492 12.128 22.1205 12.1323 21.9985 12.0992C21.5829 12.0479 21.4091 12.2125 21.4333 12.6582C21.4695 13.1753 21.4645 13.6947 21.4182 14.211C21.397 14.4035 21.1719 14.5712 21.0404 14.7514C20.9361 14.5774 20.7653 14.4113 20.7381 14.2281C20.7107 13.8146 20.7062 13.3998 20.7245 12.9858L20.7261 12.9843Z" fill="#FF98DC"/>
<path d="M32.3584 19.6088C32.3612 19.8337 32.3196 20.0569 32.2362 20.2649C32.1528 20.4729 32.0293 20.6614 31.8731 20.8191C31.717 20.9768 31.5314 21.1004 31.3275 21.1825C31.1236 21.2645 30.9058 21.3034 30.6869 21.2967C30.4677 21.303 30.2496 21.263 30.046 21.1792C29.8424 21.0954 29.6578 20.9695 29.5035 20.8094C29.3492 20.6492 29.2285 20.4583 29.149 20.2483C29.0694 20.0383 29.0327 19.8138 29.0411 19.5886C29.0382 19.3635 29.0793 19.14 29.1619 18.9315C29.2444 18.7229 29.3668 18.5335 29.5217 18.3743C29.6766 18.2151 29.861 18.0894 30.064 18.0046C30.267 17.9198 30.4844 17.8776 30.7035 17.8805C30.9228 17.8815 31.1399 17.9271 31.342 18.0147C31.5441 18.1022 31.7274 18.23 31.8812 18.3907C32.035 18.5513 32.1564 18.7417 32.2383 18.9507C32.3202 19.1598 32.361 19.3834 32.3584 19.6088ZM30.7051 18.6274C30.5809 18.6245 30.4574 18.6473 30.342 18.6945C30.2266 18.7418 30.1216 18.8125 30.0335 18.9023C29.9453 18.9922 29.8757 19.0995 29.8288 19.2177C29.7819 19.3358 29.7586 19.4625 29.7605 19.5901C29.7545 19.7178 29.774 19.8454 29.8181 19.9649C29.8621 20.0845 29.9295 20.1935 30.0163 20.2851C30.103 20.3767 30.2072 20.449 30.3223 20.4975C30.4374 20.5459 30.5611 20.5696 30.6854 20.5668C30.9295 20.5598 31.1615 20.4558 31.3326 20.2768C31.5037 20.0979 31.6007 19.8577 31.6033 19.6068C31.6058 19.356 31.5136 19.1138 31.3462 18.9312C31.1787 18.7486 30.949 18.6397 30.7051 18.6274Z" fill="#FF98DC"/>
<path d="M7.92224 21.2965C7.70235 21.2926 7.48544 21.2433 7.28444 21.1516C7.08344 21.0599 6.90244 20.9277 6.75216 20.7627C6.60189 20.5977 6.4854 20.4034 6.40965 20.1913C6.3339 19.9791 6.30041 19.7535 6.31117 19.5279C6.33467 19.0728 6.53103 18.6455 6.85802 18.3377C7.18501 18.0298 7.61653 17.8662 8.05975 17.8819C8.50166 17.9086 8.91657 18.1092 9.21827 18.4421C9.51998 18.7749 9.68528 19.2144 9.67985 19.6692C9.65602 20.1241 9.45765 20.5509 9.12821 20.8559C8.79877 21.1609 8.36514 21.3193 7.92224 21.2965ZM7.97511 20.5698C8.22732 20.5701 8.46996 20.4705 8.65261 20.2918C8.83526 20.1131 8.94389 19.869 8.95594 19.6102C8.95555 19.3503 8.8553 19.101 8.677 18.9167C8.4987 18.7323 8.25676 18.6277 8.00381 18.6257C7.75145 18.6254 7.50866 18.7249 7.32576 18.9035C7.14287 19.0822 7.0339 19.3263 7.02147 19.5853C7.02227 19.8468 7.12387 20.0974 7.30399 20.2822C7.48412 20.467 7.72813 20.5709 7.98267 20.5713L7.97511 20.5698Z" fill="#FF98DC"/>
</g>
<defs>
<clipPath id="clip0_1_554">
<rect width="38" height="23" fill="white"/>
</clipPath>
</defs>
</svg>
