<svg width="30" height="18" viewBox="0 0 30 18" fill="none" xmlns="http://www.w3.org/2000/svg">
<path d="M22.1029 14.2451C17.4711 14.2451 12.9201 14.2451 8.33219 14.2451C8.31555 14.1458 8.28607 14.0551 8.28607 13.9649C8.2838 12.1064 8.28153 10.2478 8.28607 8.38864C8.28682 7.90442 8.5575 7.6885 9.21757 7.62534C9.34913 7.61292 9.48371 7.61238 9.61678 7.61238C13.3541 7.61184 17.0915 7.61076 20.8288 7.61454C21.0595 7.61454 21.2976 7.63398 21.5176 7.67932C21.873 7.7522 22.062 7.94059 22.0968 8.20348C22.1059 8.2742 22.1021 8.34653 22.1021 8.41779C22.1021 10.2289 22.1021 12.04 22.1021 13.851C22.1029 13.9682 22.1029 14.0848 22.1029 14.2451ZM12.3826 12.3271C12.4536 12.3056 12.629 12.2678 12.784 12.2046C14.5775 11.4699 16.3679 10.7314 18.1576 9.99244C18.2581 9.95087 18.3602 9.90715 18.4472 9.85262C18.6105 9.74898 18.6528 9.56382 18.5591 9.42779C18.463 9.28744 18.2407 9.20862 18.0124 9.24911C17.9013 9.26854 17.7947 9.30903 17.6949 9.35005C15.8749 10.0993 14.055 10.8491 12.2374 11.6011C12.1232 11.6481 12.0068 11.7015 11.9198 11.7701C11.7905 11.8721 11.7369 11.9941 11.8389 12.1312C11.9334 12.258 12.0642 12.3358 12.3826 12.3271ZM15.7018 8.7962C15.6171 8.82211 15.4598 8.85882 15.3192 8.91658C14.4951 9.25289 13.674 9.59351 12.8536 9.93468C12.4438 10.1053 12.3259 10.3001 12.502 10.5031C12.6797 10.7077 12.9602 10.7244 13.3791 10.5522C14.1873 10.2197 14.9949 9.88663 15.8008 9.55194C15.915 9.50444 16.0315 9.45424 16.1267 9.39054C16.2711 9.29337 16.3233 9.16975 16.2416 9.03264C16.1562 8.88959 16.0065 8.80538 15.7018 8.7962ZM14.6607 12.8092C14.7665 12.7763 14.8935 12.746 15.0085 12.6996C15.8901 12.3396 16.7709 11.9784 17.6465 11.6108C17.7553 11.5649 17.8544 11.491 17.9209 11.4138C18.0275 11.2918 18.0222 11.1433 17.8672 11.0548C17.7387 10.9814 17.5527 10.9468 17.3849 10.9263C17.3032 10.9166 17.2004 10.9722 17.1149 11.0078C16.2485 11.3636 15.385 11.7225 14.5185 12.0767C14.3038 12.1641 14.1246 12.2672 14.1465 12.4616C14.17 12.6715 14.3673 12.7687 14.6607 12.8092Z" fill="#00FF38"/>
<path d="M1.51135 3.30811C8.36228 3.30811 15.1867 3.30811 22.0067 3.30811C22.1231 3.56398 22.1549 6.513 22.0445 7.00045C21.6763 6.95565 21.3081 6.91138 20.9187 6.86388C20.9035 6.7543 20.8824 6.66199 20.8801 6.56968C20.8748 6.3435 20.8846 6.11677 20.8763 5.89005C20.8605 5.46252 20.6835 5.33458 20.0991 5.3173C20.0159 5.31461 19.932 5.31622 19.8488 5.31622C14.473 5.31622 9.09796 5.31622 3.72216 5.31676C3.55582 5.31676 3.38645 5.31407 3.22314 5.33134C2.83904 5.37237 2.70068 5.47979 2.66968 5.75186C2.65758 5.85874 2.66514 5.96616 2.66514 6.07359C2.66514 9.1133 2.66514 12.1535 2.66514 15.1933C2.66514 15.3331 2.66514 15.4729 2.66514 15.6332C2.24551 15.6332 1.88637 15.6332 1.53328 15.6332C1.42062 15.366 1.39567 3.73726 1.51135 3.30811Z" fill="#00FF38"/>
<path d="M0 2.5542C0.431727 1.90102 0.827163 1.30398 1.2294 0.695068C8.24289 0.695068 15.2299 0.695068 22.2933 0.695068C22.6857 1.27969 23.0933 1.88644 23.4811 2.46351C23.4524 2.51857 23.4501 2.53153 23.4403 2.53962C23.4297 2.54772 23.4116 2.55582 23.3965 2.55582C15.7539 2.56176 8.11133 2.56715 0.468776 2.57201C0.35385 2.57255 0.238924 2.56391 0 2.5542Z" fill="#00FF38"/>
<path d="M23.1703 9.24805C23.4387 9.24805 23.6829 9.24805 23.9944 9.24805C23.9944 9.3938 23.9944 9.52065 23.9944 9.64751C23.9944 10.4454 23.9944 11.2427 23.9944 12.0405C23.9944 12.1237 23.9883 12.2079 23.9982 12.2905C24.0307 12.5614 24.1887 12.6721 24.5645 12.6856C24.7475 12.6921 24.9312 12.6872 25.1149 12.6872C26.432 12.6872 27.7491 12.6872 29.0662 12.6872C29.2454 12.6872 29.4254 12.6872 29.5872 12.6872C29.712 12.9771 29.7399 16.1269 29.6341 16.5809C29.2349 16.6365 28.8288 16.623 28.4122 16.5874C28.0055 15.803 27.2758 15.3253 26.0699 15.321C25.062 15.3172 24.3823 15.7053 23.8114 16.5896C23.7124 16.5971 23.599 16.6106 23.4855 16.6117C23.3873 16.6128 23.289 16.5998 23.1952 16.5933C23.0947 16.3321 23.0674 9.72039 23.1703 9.24805Z" fill="#00FF38"/>
<path d="M15.5256 16.5776C15.1257 15.8148 14.4044 15.3122 13.1946 15.3252C12.0348 15.3376 11.3309 15.8224 10.9279 16.604C10.289 16.604 9.641 16.6202 8.9953 16.5975C8.63086 16.5846 8.31784 16.3147 8.2944 16.0232C8.26945 15.7031 8.28835 15.3813 8.28835 15.018C8.51896 15.0051 8.72613 14.9835 8.9333 14.9835C12.5731 14.9813 16.2129 14.9819 19.852 14.9819C20.3359 14.9819 20.8205 14.977 21.3044 14.984C21.5509 14.9878 21.7967 15.0137 22.0704 15.031C22.0704 15.5524 22.0704 16.0491 22.0704 16.5452C21.7324 16.6288 16.2764 16.6569 15.5256 16.5776Z" fill="#00FF38"/>
<path d="M19.8382 6.07851C19.8382 6.34033 19.8382 6.58486 19.8382 6.82562C19.4753 6.90551 4.35806 6.92927 3.71387 6.85045C3.71387 6.60106 3.71387 6.34734 3.71387 6.09795C4.09947 6.02615 19.1676 6.00564 19.8382 6.07851Z" fill="#00FF38"/>
<path d="M29.424 11.9464C27.9247 11.9464 26.4995 11.9464 25.0417 11.9464C25.0417 11.0417 25.0417 10.158 25.0417 9.26027C25.5793 9.19117 26.0163 9.22032 26.405 9.5372C27.2926 10.2616 28.2234 10.9591 29.1337 11.6689C29.229 11.7434 29.3038 11.8314 29.424 11.9464Z" fill="#00FF38"/>
<path d="M7.43078 7.65219C7.36198 7.90482 7.29317 8.15746 7.22437 8.40955C6.85767 8.47973 4.2862 8.49376 3.7146 8.42521C3.7146 8.17581 3.7146 7.9221 3.7146 7.67216C4.10399 7.59821 6.88413 7.58471 7.43078 7.65219Z" fill="#00FF38"/>
<path d="M3.70948 9.98649C3.69965 9.92495 3.6815 9.8564 3.67999 9.7873C3.67545 9.61024 3.67848 9.43318 3.67848 9.26638C4.07089 9.16921 6.71418 9.15301 7.24571 9.23938C7.24571 9.48068 7.24571 9.72576 7.24571 9.96868C6.88506 10.0583 4.2395 10.0729 3.70948 9.98649Z" fill="#00FF38"/>
<path d="M27.4211 16.9954C27.4166 17.5072 26.8321 17.9282 26.1191 17.9331C25.4099 17.9379 24.7967 17.4877 24.8028 16.9668C24.8088 16.4497 25.3827 16.0426 26.107 16.041C26.8525 16.0399 27.4257 16.4556 27.4211 16.9954ZM26.1464 17.4478C26.6454 17.3188 26.811 17.1628 26.7316 16.895C26.6658 16.6721 26.3996 16.5215 26.0866 16.5301C25.7759 16.5387 25.5196 16.712 25.4916 16.9328C25.4576 17.2027 25.642 17.3479 26.1464 17.4478Z" fill="#00FF38"/>
<path d="M13.2459 16.041C13.9589 16.0454 14.597 16.5139 14.5698 17.0127C14.5441 17.4969 13.8863 17.9471 13.2187 17.9385C12.5208 17.9293 11.9046 17.4878 11.9031 16.9944C11.9008 16.4805 12.5253 16.0367 13.2459 16.041ZM13.2323 17.4543C13.7275 17.321 13.937 17.1342 13.8682 16.9031C13.8039 16.6877 13.5355 16.5301 13.2308 16.5301C12.9261 16.5301 12.6561 16.6899 12.5987 16.9048C12.5321 17.1504 12.7189 17.3166 13.2323 17.4543Z" fill="#00FF38"/>
</svg>
