<svg width="27" height="25" viewBox="0 0 27 25" fill="none" xmlns="http://www.w3.org/2000/svg">
<path d="M26.9987 12.2996C26.9987 11.8759 27.0004 11.4523 26.9978 11.0287C26.9928 10.1745 26.414 9.64455 25.4724 9.63607C24.924 9.63145 24.3747 9.65071 23.828 9.62375C23.6938 9.61759 23.5065 9.50051 23.4483 9.38882C23.207 8.92822 22.9927 8.45452 22.7986 7.97542C22.7547 7.86682 22.7834 7.67426 22.8653 7.59261C23.2424 7.21288 23.6542 6.86165 24.0465 6.49424C24.7189 5.86572 24.724 5.15555 24.0507 4.5278C23.3816 3.90467 22.7067 3.28616 22.0224 2.6769C21.3542 2.0815 20.5695 2.08766 19.8979 2.6846C19.4946 3.04277 19.0938 3.40247 18.7074 3.77604C18.553 3.92547 18.4324 3.9247 18.2349 3.84074C17.7405 3.63046 17.2368 3.43482 16.723 3.26768C16.5095 3.19836 16.4378 3.11209 16.4429 2.91413C16.4547 2.40115 16.453 1.8874 16.4454 1.37364C16.4327 0.537926 15.848 0.00645575 14.9377 0.00337472C13.9674 -0.000476556 12.9971 -0.0020171 12.0276 0.00414482C11.1687 0.00876625 10.5756 0.540236 10.5554 1.3282C10.5419 1.85428 10.5461 2.38035 10.5554 2.9072C10.5587 3.10053 10.4988 3.19373 10.2803 3.2646C9.76647 3.4302 9.26108 3.6243 8.77003 3.83997C8.54813 3.93779 8.4241 3.90775 8.26549 3.75447C7.88918 3.39092 7.4977 3.04045 7.10537 2.68999C6.43714 2.09305 5.64572 2.0815 4.98087 2.67382C4.28648 3.29233 3.59969 3.91776 2.92387 4.55245C2.28939 5.14785 2.29108 5.86957 2.91881 6.46574C3.30861 6.83546 3.706 7.19901 4.1152 7.55102C4.28564 7.69813 4.30842 7.81213 4.20295 8.01239C3.97177 8.44912 3.76084 8.89741 3.59125 9.35647C3.50519 9.58909 3.38117 9.64531 3.13733 9.63992C2.60325 9.62683 2.06918 9.63222 1.53425 9.63684C0.590128 9.64454 0.0071148 10.1729 0.00289753 11.0248C-0.000478608 11.8975 -0.00132179 12.7702 0.00289714 13.6429C0.00711416 14.4701 0.593504 15.0039 1.50894 15.0147C2.05736 15.0209 2.60579 15.0224 3.1542 15.0124C3.37695 15.0085 3.49844 15.0532 3.58113 15.2735C3.75915 15.7441 3.97768 16.2024 4.2097 16.653C4.3042 16.8363 4.2907 16.9449 4.13123 17.0836C3.72372 17.4371 3.32801 17.8022 2.93652 18.1704C2.29782 18.7704 2.2801 19.4891 2.90784 20.0821C3.58197 20.7184 4.27804 21.3361 4.9623 21.9639C5.17323 22.1572 5.41285 22.272 5.65584 22.0455C5.89546 21.8214 5.77059 21.6088 5.55629 21.4147C4.90662 20.8285 4.26201 20.2377 3.6191 19.6454C3.18795 19.2487 3.18795 19.0354 3.61488 18.641C4.07892 18.212 4.5396 17.7791 5.01968 17.3647C5.28629 17.1344 5.3116 16.9288 5.15214 16.6199C4.82393 15.9868 4.53032 15.3359 4.27045 14.6766C4.14474 14.3577 3.97008 14.2267 3.59969 14.2383C2.9399 14.2583 2.27842 14.246 1.61778 14.2429C1.04743 14.2398 0.848306 14.0634 0.845775 13.5574C0.842402 12.7363 0.842402 11.9145 0.845776 11.0934C0.847464 10.5858 1.04659 10.4094 1.61525 10.4063C2.29023 10.4032 2.96521 10.3971 3.64019 10.4086C3.9684 10.414 4.13546 10.3023 4.25358 10.0096C4.53369 9.31642 4.85093 8.63398 5.18589 7.96079C5.31161 7.70815 5.2863 7.52945 5.07874 7.34305C4.57757 6.89323 4.07977 6.44032 3.58788 5.98202C3.19639 5.61693 3.19639 5.39664 3.58872 5.03385C4.2308 4.44076 4.87625 3.84998 5.52591 3.2646C5.9039 2.92415 6.15702 2.92184 6.53501 3.2592C7.01762 3.689 7.5036 4.11803 7.96343 4.56785C8.22836 4.82743 8.46376 4.84745 8.81475 4.69571C9.49479 4.40071 10.1942 4.13497 10.9038 3.90467C11.2691 3.78605 11.421 3.62353 11.4058 3.26768C11.3805 2.67844 11.3965 2.08689 11.3999 1.49688C11.4024 0.950007 11.5898 0.77285 12.1702 0.77131C13.0696 0.768999 13.9699 0.768229 14.8693 0.77208C15.4009 0.774391 15.5991 0.95771 15.6025 1.45298C15.6076 2.06917 15.6152 2.68537 15.5991 3.3008C15.5907 3.6166 15.7164 3.77835 16.0539 3.89004C16.8014 4.13806 17.538 4.4192 18.2602 4.72344C18.553 4.84668 18.7547 4.82666 18.9715 4.62408C19.4524 4.17426 19.9418 3.73137 20.432 3.28925C20.8479 2.91491 21.0876 2.91414 21.5018 3.28925C22.1405 3.86693 22.7767 4.4477 23.4095 5.03077C23.8052 5.39587 23.8077 5.61693 23.4196 5.97894C22.9471 6.41875 22.4746 6.85934 21.9861 7.28374C21.7229 7.5125 21.6874 7.71662 21.8494 8.0278C22.1785 8.66017 22.4704 9.3118 22.732 9.97036C22.8577 10.2869 23.0273 10.424 23.4002 10.4125C24.0743 10.3925 24.7502 10.4032 25.4243 10.4086C25.9592 10.4125 26.1558 10.5966 26.1575 11.0888C26.1609 11.9229 26.1617 12.7571 26.1566 13.5913C26.1541 14.0527 25.9482 14.2391 25.4344 14.2429C24.7459 14.2491 24.0566 14.2529 23.3681 14.2414C23.0425 14.236 22.8703 14.3415 22.7514 14.6365C22.4713 15.3297 22.1549 16.0122 21.8207 16.6854C21.6959 16.9372 21.7144 17.1167 21.922 17.3039C22.4223 17.7545 22.9201 18.2074 23.4129 18.6649C23.8069 19.0308 23.8086 19.2518 23.4179 19.6131C22.7758 20.2062 22.1287 20.7954 21.4799 21.3823C21.263 21.5787 21.0867 21.7959 21.3457 22.0417C21.6064 22.2897 21.8503 22.1387 22.068 21.9392C22.732 21.3292 23.4053 20.7284 24.0634 20.113C24.7316 19.4883 24.7181 18.7774 24.0397 18.1465C23.6558 17.7891 23.2719 17.4317 22.8746 17.0867C22.7176 16.9503 22.694 16.8433 22.7902 16.6569C23.0231 16.207 23.2407 15.7472 23.4196 15.2774C23.5023 15.0601 23.6162 15.0062 23.8432 15.0116C24.3629 15.0232 24.8835 15.017 25.404 15.0147C26.4342 15.0108 26.9978 14.5002 27.0004 13.5697C26.9995 13.1469 26.9987 12.7232 26.9987 12.2996Z" fill="#B7F239"/>
<path d="M14.8018 19.7018C14.6997 19.2235 14.6086 18.8623 14.5529 18.4956C14.5335 18.3685 14.5723 18.2168 14.6364 18.0997C14.8491 17.7108 15.0887 17.3341 15.3114 16.949C15.5679 16.5053 15.4093 16.2519 14.871 16.2488C13.9572 16.2442 13.0435 16.2442 12.1297 16.2488C11.5914 16.2519 11.437 16.5045 11.6893 16.9498C11.7669 17.0861 11.826 17.2363 11.9298 17.3541C12.5389 18.0466 12.5398 18.7976 12.166 19.6225C12.0715 19.4176 11.9779 19.2297 11.8977 19.0371C11.5687 18.2484 11.2312 17.4627 10.9232 16.6678C10.7815 16.3035 10.5469 16.2111 10.1478 16.2858C8.25451 16.6378 7.01171 17.6384 6.47763 19.3406C6.38651 19.6317 6.34011 19.9445 6.33673 20.2479C6.3207 21.5312 6.32745 22.8152 6.32914 24.0984C6.32998 24.5351 6.45063 24.6476 6.92227 24.6476C11.3088 24.6491 15.6953 24.6491 20.0818 24.6476C20.5408 24.6476 20.6716 24.5359 20.6733 24.1361C20.6767 22.8144 20.7062 21.4911 20.6648 20.1701C20.6058 18.3015 19.0635 16.5615 16.6892 16.2596C16.3711 16.2188 16.2032 16.3698 16.0969 16.6332C15.7392 17.5213 15.3679 18.404 15.0001 19.2882C14.9545 19.393 14.9014 19.4939 14.8018 19.7018ZM14.0399 23.8627C14.0366 23.8203 14.0247 23.7926 14.034 23.7718C14.9241 21.6228 15.8193 19.4754 16.7044 17.3241C16.7964 17.0999 16.9297 17.0761 17.1524 17.14C18.3412 17.4781 19.1757 18.1706 19.6009 19.2366C19.7367 19.5778 19.811 19.9576 19.8194 20.3211C19.8464 21.4957 19.8296 22.6711 19.8296 23.8627C17.8696 23.8627 15.9543 23.8627 14.0399 23.8627ZM7.17539 23.8619C7.17539 22.591 7.13911 21.3602 7.18552 20.1316C7.23698 18.7683 8.37095 17.5359 9.80528 17.15C10.1048 17.0691 10.2212 17.1392 10.3225 17.3957C10.6971 18.3439 11.092 19.2859 11.4843 20.2279C11.9855 21.4303 12.4908 22.6311 13.0072 23.8619C11.0472 23.8619 9.13199 23.8619 7.17539 23.8619ZM12.7322 17.046C13.2713 17.046 13.7539 17.046 14.2787 17.046C14.1648 17.2501 14.0965 17.4358 13.9733 17.5829C13.6333 17.9888 13.6307 18.4263 13.7573 18.8931C13.8442 19.215 13.9176 19.5401 13.9792 19.8674C14.0619 20.3049 14.2466 20.7632 14.1707 21.1799C14.0711 21.7284 13.7615 22.2452 13.5413 22.7759C13.2198 22.0003 12.5879 21.3201 12.9026 20.4259C13.0131 20.1124 13.0266 19.7712 13.1236 19.4523C13.3649 18.6597 13.4164 17.8979 12.8115 17.207C12.7794 17.17 12.7676 17.12 12.7322 17.046Z" fill="#B7F239"/>
<path d="M20.734 12.3281C20.6674 9.15393 18.1851 6.41417 14.7419 5.87345C10.7688 5.24955 7.26396 7.64117 6.4987 10.9386C6.076 12.7587 6.44133 14.444 7.5618 15.9953C7.61579 16.07 7.67486 16.1424 7.73392 16.214C7.90266 16.4174 8.12034 16.4874 8.3549 16.3342C8.59536 16.177 8.54558 15.9752 8.41733 15.7565C8.08828 15.195 7.69848 14.6496 7.47658 14.0527C6.32996 10.9694 8.4823 7.47634 11.9559 6.72072C15.5257 5.94432 18.9985 7.94542 19.7182 11.2398C20.059 12.801 19.6979 14.2668 18.7192 15.5955C18.6719 15.6594 18.5791 15.7203 18.5791 15.7827C18.5791 15.966 18.542 16.2102 18.6517 16.3188C18.8382 16.5036 19.0913 16.4274 19.2609 16.2209C19.8068 15.5593 20.2143 14.8306 20.4201 14.025C20.5619 13.4681 20.6319 12.895 20.734 12.3281Z" fill="#B7F239"/>
<path d="M9.61965 12.3728C9.6188 14.3238 11.3535 15.9475 13.4856 15.9306C15.8615 15.9121 17.4081 14.1413 17.3861 12.362C17.3625 10.4056 15.6396 8.82351 13.4949 8.82813C11.3467 8.83276 9.61965 10.4118 9.61965 12.3728ZM16.5356 12.3551C16.5407 13.8948 15.1713 15.1634 13.5025 15.1657C11.8538 15.168 10.4693 13.9071 10.4642 12.3982C10.4592 10.8431 11.8032 9.60531 13.4982 9.60377C15.1747 9.60223 16.5306 10.8308 16.5356 12.3551Z" fill="#B7F239"/>
</svg>
