<svg width="37" height="27" viewBox="0 0 37 27" fill="none" xmlns="http://www.w3.org/2000/svg">
<path d="M8.12518 2.27909C7.32033 2.55539 6.56752 2.81658 5.81239 3.07238C5.27236 3.25586 4.8919 3.12958 4.71266 2.71729C4.53458 2.30823 4.73116 1.96609 5.28392 1.77182C6.23563 1.43723 7.19081 1.11128 8.14947 0.792887C8.80861 0.573788 9.10696 0.707622 9.35327 1.31419C9.65278 2.05028 9.94535 2.78852 10.2449 3.52461C10.2564 3.55375 10.3015 3.56994 10.3721 3.62498C11.9089 3.09396 13.4689 2.55431 15.0312 2.01574C16.723 1.43183 18.4148 0.844693 20.1089 0.267266C20.8305 0.0211842 21.1173 0.145304 21.3879 0.824186C22.3199 3.15656 23.2439 5.49218 24.1725 7.82671C24.1979 7.89039 24.2384 7.94867 24.2893 8.04257C25.5995 7.5925 26.8912 7.14999 28.1828 6.70639C29.0016 6.4247 29.2745 6.54342 29.5786 7.3108C30.8032 10.4019 32.0279 13.4931 33.2536 16.5842C33.3057 16.7159 33.3716 16.8432 33.4491 17.0116C34.2088 16.7515 34.9408 16.5011 35.674 16.2507C36.3805 16.01 36.7598 16.0996 36.9448 16.5475C37.1241 16.9792 36.8674 17.3192 36.2001 17.5512C31.2207 19.276 26.2424 21.0018 21.2641 22.7276C21.1381 22.7708 21.0144 22.8193 20.8594 22.8755C20.9033 23.7767 20.6917 24.6131 20.0534 25.3255C18.7444 26.7868 16.5449 26.9412 15.0959 25.6698C13.5972 24.3552 13.5695 22.2246 15.067 20.9381C15.348 20.6974 15.3792 20.5107 15.259 20.2063C12.9566 14.4191 10.6612 8.62971 8.3634 2.84033C8.29633 2.67411 8.22347 2.51006 8.12518 2.27909ZM14.0355 13.0894C14.956 15.4077 15.843 17.6549 16.7496 19.8944C16.7912 19.998 17.004 20.1103 17.1312 20.106C18.4645 20.0509 19.5249 20.5193 20.3263 21.5393C24.2303 20.1901 28.1192 18.8464 32.0232 17.4984C30.7732 14.3511 29.5428 11.2535 28.3066 8.13971C26.6749 8.70958 25.1184 9.25355 23.5318 9.80723C23.6116 10.0382 23.6625 10.2098 23.7284 10.3749C24.2245 11.6356 24.7113 12.8994 25.2294 14.1525C25.367 14.486 25.3566 14.7979 25.0687 14.9739C24.8466 15.1099 24.487 15.1595 24.2245 15.1023C23.7261 14.9944 23.2531 14.7839 22.7351 14.6037C22.5049 15.0008 22.2818 15.3732 22.0736 15.7531C21.8967 16.0748 21.6781 16.3489 21.2491 16.3198C20.8247 16.2917 20.6408 16.0024 20.5067 15.6603C20.0002 14.3651 19.4844 13.0743 18.9687 11.7834C18.9248 11.6734 18.8496 11.5741 18.7779 11.4521C17.2006 11.9961 15.6579 12.5282 14.0355 13.0894ZM13.5105 11.7608C16.6571 10.6718 19.7365 9.6054 22.8542 8.5261C21.9406 6.22502 21.0571 3.9995 20.1563 1.73188C19.2069 2.06215 18.3176 2.37083 17.3879 2.69462C17.773 3.67031 18.1257 4.59635 18.5073 5.51268C18.6414 5.83647 18.6576 6.16674 18.3604 6.33943C18.1211 6.47866 17.7591 6.49593 17.4619 6.46895C17.1717 6.44304 16.8941 6.29194 16.5923 6.18941C16.5079 6.33295 16.4466 6.44304 16.3795 6.54882C16.1425 6.92441 16.0199 7.43061 15.3908 7.38744C14.7652 7.34426 14.7108 6.83483 14.5432 6.42578C14.2182 5.63033 13.8979 4.8338 13.5625 4.00382C12.6085 4.34056 11.7262 4.6514 10.815 4.97303C11.725 7.26655 12.6027 9.47805 13.5105 11.7608ZM17.3474 25.1021C18.461 25.1053 19.3341 24.3465 19.348 23.3644C19.363 22.3056 18.5455 21.5091 17.4295 21.4961C16.3194 21.4831 15.4683 22.2764 15.4718 23.3223C15.4752 24.3282 16.287 25.0988 17.3474 25.1021ZM22.1037 10.3005C21.4422 10.5336 20.8582 10.7387 20.2373 10.9578C20.6316 11.9475 21.0086 12.893 21.3694 13.7974C21.6504 13.5405 21.8655 13.207 22.1684 13.1067C22.4645 13.0085 22.8507 13.1488 23.2497 13.1898C22.8681 12.2292 22.4992 11.2967 22.1037 10.3005ZM16.5125 4.51649C16.3402 4.08692 16.161 3.64117 15.9725 3.17275C15.6186 3.30443 15.3226 3.41452 14.9849 3.54079C15.1792 4.02324 15.3561 4.4636 15.5215 4.87374C15.8649 4.74962 16.1587 4.64384 16.5125 4.51649Z" fill="#F2DF39"/>
<path d="M3.89276 13.0172C2.91099 13.0172 1.92805 13.0205 0.946271 13.0161C0.332225 13.0129 -0.0123802 12.7485 0.000340118 12.3081C0.0119041 11.8969 0.366917 11.6174 0.923143 11.6163C2.90636 11.6109 4.89073 11.6098 6.87395 11.6163C7.4533 11.6184 7.77362 11.8785 7.78056 12.3124C7.78866 12.7668 7.46718 13.0129 6.83926 13.0161C5.85632 13.0205 4.87454 13.0172 3.89276 13.0172Z" fill="#F2DF39"/>
<path d="M5.17994 10.089C4.6214 10.089 4.06402 10.0966 3.50664 10.0869C2.95041 10.0772 2.65553 9.84188 2.6405 9.41879C2.62431 8.97304 2.93307 8.70213 3.50895 8.69674C4.64453 8.68702 5.77895 8.68702 6.91453 8.69674C7.48463 8.70106 7.79686 8.97628 7.78067 9.41987C7.76448 9.84296 7.4696 10.0772 6.91222 10.0858C6.33518 10.0955 5.75698 10.089 5.17994 10.089Z" fill="#F2DF39"/>
<path d="M5.17645 15.9311C4.57975 15.9322 3.98421 15.9311 3.38751 15.9322C2.95386 15.9322 2.70061 15.7206 2.64857 15.331C2.59538 14.9306 2.82087 14.6834 3.22792 14.5863C3.37479 14.5507 3.5309 14.5399 3.68239 14.5399C4.70233 14.5356 5.72111 14.5345 6.74105 14.541C6.91104 14.542 7.08566 14.5647 7.24987 14.6057C7.64651 14.705 7.81419 14.9727 7.76793 15.3375C7.72052 15.7012 7.48808 15.9236 7.07987 15.93C6.44617 15.9376 5.81131 15.9311 5.17645 15.9311Z" fill="#F2DF39"/>
</svg>
