<svg width="33" height="29" viewBox="0 0 33 29" fill="none" xmlns="http://www.w3.org/2000/svg">
<path d="M2.16219 23.6164C3.02411 23.6164 3.83602 23.6164 4.68092 23.6164C4.94588 22.5462 5.20446 21.4985 5.47581 20.4046C4.34573 20.4046 3.28482 20.4046 2.18134 20.4046C2.18134 20.0464 2.18134 19.7184 2.18134 19.3516C7.81152 19.3516 13.4555 19.3516 19.1336 19.3516C19.1336 21.1156 19.1336 22.8775 19.1336 24.6673C16.999 24.6673 14.8804 24.6673 12.7713 24.6673C12.1488 22.5204 10.7633 21.392 8.86817 21.4705C7.15071 21.5415 5.7546 22.7989 5.37046 24.6834C4.45639 24.6834 3.51998 24.7405 2.59421 24.6619C2.04088 24.6168 2.12707 24.0929 2.16219 23.6164Z" fill="#39F2D1"/>
<path d="M31.9241 19.3257C31.1963 19.3257 30.5291 19.3257 29.8076 19.3257C29.8076 20.112 29.7959 20.8596 29.8204 21.605C29.8246 21.7201 29.9747 21.8696 30.0949 21.9341C30.577 22.1966 31.0686 22.4407 31.5645 22.6742C31.8347 22.8011 31.9443 22.9667 31.9433 23.2873C31.9401 24.6953 31.9529 24.6953 30.5855 24.6953C30.3226 24.6953 30.0598 24.6953 29.946 24.6953C29.5416 23.9681 29.183 23.3454 28.8521 22.7075C28.768 22.5462 28.7435 22.3386 28.7435 22.1514C28.7361 20.2163 28.8042 18.2791 28.7158 16.3484C28.6584 15.091 28.3998 13.8411 28.1859 12.5955C28.0976 12.0814 27.7018 11.7996 27.1867 11.7953C25.5746 11.7802 23.9614 11.777 22.3483 11.7953C21.6821 11.8028 21.2959 12.2707 21.2948 13.0107C21.2916 15.9128 21.2937 18.8148 21.2937 21.7168C21.2937 22.6828 21.2937 23.6487 21.2937 24.6555C20.9447 24.6555 20.6201 24.6555 20.2509 24.6555C20.2435 24.4909 20.2286 24.3177 20.2286 24.1445C20.2275 20.2927 20.2264 16.4409 20.2275 12.5891C20.2275 11.337 20.8479 10.711 22.0875 10.71C23.7007 10.7089 25.3128 10.71 26.926 10.71C28.4615 10.71 28.9223 11.1208 29.1617 12.6665C29.3639 13.9713 29.5693 15.276 29.8098 16.5743C29.8502 16.7915 30.0449 17.0174 30.2279 17.1605C30.461 17.3433 30.7557 17.4445 31.0218 17.5843C31.6943 17.9371 31.9656 18.5083 31.9241 19.3257Z" fill="#39F2D1"/>
<path d="M22.3823 18.262C24.1594 18.262 25.8885 18.262 27.6486 18.262C27.6486 19.4387 27.6486 20.5939 27.6486 21.7502C24.7106 21.2038 23.1176 22.0385 22.3823 24.5824C22.3823 22.4289 22.3823 20.368 22.3823 18.262Z" fill="#39F2D1"/>
<path d="M19.1411 17.2002C19.1411 17.5541 19.1411 17.8703 19.1411 18.2134C13.131 18.2134 7.14543 18.2134 1.11621 18.2134C1.11621 17.894 1.11621 17.5659 1.11621 17.2002C7.10073 17.2002 13.1002 17.2002 19.1411 17.2002Z" fill="#39F2D1"/>
<path d="M8.5437 5.29735C8.5437 3.86999 8.5437 2.48028 8.5437 1.06045C8.88954 1.06045 9.21409 1.06045 9.57695 1.06045C9.57695 1.75639 9.57695 2.4308 9.57695 3.14179C10.6474 3.14179 11.6807 3.14179 12.7714 3.14179C12.7714 2.45447 12.7714 1.76822 12.7714 1.05615C13.1406 1.05615 13.4535 1.05615 13.8057 1.05615C13.8057 2.45447 13.8057 3.85709 13.8057 5.29735C12.0733 5.29735 10.3314 5.29735 8.5437 5.29735Z" fill="#39F2D1"/>
<path d="M5.36194 6.41699C5.71203 6.41699 6.01211 6.41699 6.36965 6.41699C6.36965 7.1097 6.36965 7.7981 6.36965 8.522C7.45822 8.522 8.49147 8.522 9.58218 8.522C9.58218 7.83037 9.58218 7.14304 9.58218 6.43313C9.95142 6.43313 10.2643 6.43313 10.6144 6.43313C10.6144 7.83575 10.6144 9.23836 10.6144 10.6776C8.87667 10.6776 7.1358 10.6776 5.36194 10.6776C5.36194 9.27063 5.36194 7.86801 5.36194 6.41699Z" fill="#39F2D1"/>
<path d="M11.752 6.43115C12.0999 6.43115 12.4128 6.43115 12.7629 6.43115C12.7629 7.12708 12.7629 7.8015 12.7629 8.51679C13.8333 8.51679 14.8655 8.51679 15.9573 8.51679C15.9573 7.84022 15.9573 7.15397 15.9573 6.43761C16.3255 6.43761 16.6383 6.43761 16.9937 6.43761C16.9937 7.82624 16.9937 9.22886 16.9937 10.6713C15.272 10.6713 13.5301 10.6713 11.752 10.6713C11.752 9.28049 11.752 7.87895 11.752 6.43115Z" fill="#39F2D1"/>
<path d="M2.15906 16.0536C2.15906 14.6251 2.15906 13.2354 2.15906 11.8156C2.49212 11.8156 2.8039 11.8156 3.17421 11.8156C3.17421 12.4868 3.17421 13.173 3.17421 13.898C4.26386 13.898 5.29604 13.898 6.38674 13.898C6.38674 13.2107 6.38674 12.5233 6.38674 11.8113C6.75599 11.8113 7.06883 11.8113 7.41999 11.8113C7.41999 13.2107 7.41999 14.6133 7.41999 16.0525C5.68763 16.0536 3.94675 16.0536 2.15906 16.0536Z" fill="#39F2D1"/>
<path d="M12.7809 13.8938C12.7809 13.1957 12.7809 12.5213 12.7809 11.8179C13.1437 11.8179 13.4683 11.8179 13.8184 11.8179C13.8184 13.228 13.8184 14.6177 13.8184 16.0494C12.0818 16.0494 10.3398 16.0494 8.55957 16.0494C8.55957 14.6618 8.55957 13.2603 8.55957 11.8222C8.8788 11.8222 9.20335 11.8222 9.56728 11.8222C9.56728 12.503 9.56728 13.1775 9.56728 13.8949C10.6388 13.8938 11.671 13.8938 12.7809 13.8938Z" fill="#39F2D1"/>
<path d="M27.5656 15.0147C26.9665 15.0147 26.4185 15.0147 25.8716 15.0147C24.7117 15.0157 24.2658 15.6192 24.5936 16.7486C24.6276 16.8658 24.6766 16.9788 24.733 17.1336C23.9466 17.1336 23.1943 17.1336 22.3983 17.1336C22.3983 15.745 22.3983 14.3413 22.3983 12.8613C22.7463 12.8613 23.1113 12.8613 23.4752 12.8613C24.5733 12.8613 25.6726 12.8699 26.7707 12.8559C27.0729 12.8516 27.2113 12.9312 27.2528 13.2582C27.3241 13.8218 27.4496 14.379 27.5656 15.0147Z" fill="#39F2D1"/>
<path d="M6.39526 25.2062C6.40909 23.7315 7.63388 22.5225 9.09383 22.543C10.5527 22.5634 11.7424 23.809 11.7147 25.2848C11.687 26.7379 10.4814 27.9276 9.04275 27.9211C7.58386 27.9147 6.38143 26.682 6.39526 25.2062ZM9.04701 26.8433C9.91532 26.8476 10.6378 26.1302 10.6485 25.2525C10.6602 24.3737 9.95788 23.639 9.08851 23.6208C8.19679 23.6014 7.45724 24.3361 7.46043 25.2374C7.46362 26.1173 8.17763 26.8401 9.04701 26.8433Z" fill="#39F2D1"/>
<path d="M23.4209 25.2299C23.422 23.7542 24.635 22.5344 26.0961 22.543C27.5549 22.5505 28.7563 23.7854 28.7414 25.26C28.7265 26.7132 27.5315 27.9147 26.0929 27.9212C24.6329 27.9276 23.4198 26.7057 23.4209 25.2299ZM26.0875 26.8434C26.9569 26.8391 27.6709 26.1163 27.6752 25.2375C27.6784 24.3576 26.9707 23.6305 26.1003 23.6208C25.2086 23.61 24.4754 24.3522 24.4871 25.2525C24.4978 26.1324 25.2182 26.8477 26.0875 26.8434Z" fill="#39F2D1"/>
<path d="M19.1443 13.9077C19.1443 14.68 19.1443 15.3534 19.1443 16.059C17.7471 16.059 16.3713 16.059 14.9507 16.059C14.9507 14.6703 14.9507 13.2666 14.9507 11.8242C15.2593 11.8242 15.5838 11.8242 15.9499 11.8242C15.9499 12.4986 15.9499 13.1731 15.9499 13.9077C17.0225 13.9077 18.0568 13.9077 19.1443 13.9077Z" fill="#39F2D1"/>
<path d="M17.0671 11.8037C17.7854 11.8037 18.4505 11.8037 19.1453 11.8037C19.1453 12.1468 19.1453 12.4728 19.1453 12.8309C18.4515 12.8309 17.7758 12.8309 17.0671 12.8309C17.0671 12.4964 17.0671 12.1705 17.0671 11.8037Z" fill="#39F2D1"/>
<path d="M25.5619 16.1042C26.2621 16.1042 26.9293 16.1042 27.638 16.1042C27.638 16.4388 27.638 16.7658 27.638 17.096C26.41 17.3735 25.7609 17.0841 25.5619 16.1042Z" fill="#39F2D1"/>
<path d="M4.04032 21.4985C4.04777 21.5545 4.05947 21.59 4.05522 21.6244C3.94136 22.5451 3.94136 22.5451 3.04325 22.5451C2.76446 22.5451 2.48566 22.5451 2.17175 22.5451C2.17175 22.1848 2.17175 21.8578 2.17175 21.4985C2.79851 21.4985 3.42101 21.4985 4.04032 21.4985Z" fill="#39F2D1"/>
<path d="M11.6827 2.09739C11.3348 2.09739 11.0358 2.09739 10.6931 2.09739C10.6931 1.76395 10.6931 1.43588 10.6931 1.06909C10.9996 1.06909 11.3231 1.06909 11.6827 1.06909C11.6827 1.39178 11.6827 1.71985 11.6827 2.09739Z" fill="#39F2D1"/>
<path d="M8.48083 7.47454C8.13818 7.47454 7.83811 7.47454 7.49866 7.47454C7.49866 7.1368 7.49866 6.80981 7.49866 6.44409C7.81257 6.44409 8.13606 6.44409 8.48083 6.44409C8.48083 6.78937 8.48083 7.12927 8.48083 7.47454Z" fill="#39F2D1"/>
<path d="M13.8535 7.44105C13.8535 7.09469 13.8535 6.79137 13.8535 6.44824C14.1876 6.44824 14.5122 6.44824 14.8729 6.44824C14.8729 6.76555 14.8729 7.09254 14.8729 7.44105C14.5314 7.44105 14.194 7.44105 13.8535 7.44105Z" fill="#39F2D1"/>
<path d="M5.30772 11.822C5.30772 12.1791 5.30772 12.4943 5.30772 12.8363C4.97253 12.8363 4.65968 12.8363 4.3064 12.8363C4.3064 12.5158 4.3064 12.1877 4.3064 11.822C4.61924 11.822 4.94379 11.822 5.30772 11.822Z" fill="#39F2D1"/>
<path d="M10.675 12.8344C10.675 12.4956 10.675 12.1804 10.675 11.8254C10.9996 11.8254 11.3231 11.8254 11.6828 11.8254C11.6828 12.1481 11.6828 12.4762 11.6828 12.8344C11.3614 12.8344 11.0496 12.8344 10.675 12.8344Z" fill="#39F2D1"/>
<path d="M31.9167 20.4272C31.9167 20.8263 31.9167 21.1952 31.9167 21.5663C31.0324 21.3942 30.8462 21.1931 30.8888 20.4272C31.2112 20.4272 31.5358 20.4272 31.9167 20.4272Z" fill="#39F2D1"/>
<path d="M9.6631 25.348C9.45773 25.4868 9.2332 25.7557 9.05018 25.7299C8.85545 25.7019 8.59474 25.4104 8.56388 25.2039C8.5426 25.063 8.86077 24.7424 9.03954 24.7328C9.23959 24.722 9.45347 24.9715 9.66097 25.1071C9.66204 25.1877 9.66204 25.2673 9.6631 25.348Z" fill="#39F2D1"/>
<path d="M26.6909 25.3373C26.4876 25.4804 26.2684 25.7525 26.0854 25.7299C25.8907 25.7052 25.6236 25.4191 25.5906 25.2136C25.5672 25.0716 25.88 24.7457 26.0567 24.7339C26.2578 24.721 26.4759 24.9662 26.6866 25.0996C26.6877 25.1781 26.6888 25.2577 26.6909 25.3373Z" fill="#39F2D1"/>
</svg>
