<svg width="32" height="33" viewBox="0 0 32 33" fill="none" xmlns="http://www.w3.org/2000/svg">
<g clip-path="url(#clip0_1_540)">
<path d="M15.6388 16.4917C16.826 15.6492 18.1784 15.4985 19.6171 15.59C19.6882 14.714 20.2266 14.2064 20.8615 13.7401C21.8049 13.0496 22.7128 12.3102 23.6448 11.603C24.667 10.83 25.6384 10.9202 26.4231 11.9224C28.1619 14.1399 29.8825 16.3727 31.5848 18.6211C32.2375 19.4829 32.1143 20.507 31.2699 21.1975C30.1335 22.1263 28.9627 23.0126 27.792 23.9027C27.546 24.0924 27.255 24.2129 26.9485 24.2521C26.6419 24.2912 26.3306 24.2476 26.046 24.1256C25.9088 24.0741 25.7743 24.0187 25.6803 23.9826L23.8086 25.9149C24.1502 26.55 24.3661 27.2637 23.9915 28.0031C23.6169 28.7425 22.935 29.0028 22.1033 28.959C21.7503 29.7757 21.1929 30.3399 20.1986 30.3283C19.8418 31.3821 19.1688 31.9759 17.9727 31.7737C17.8787 31.9102 17.7758 32.07 17.6654 32.2233C17.5197 32.4354 17.3319 32.6143 17.114 32.7483C16.8961 32.8823 16.6529 32.9686 16.4002 33.0015C16.1474 33.0343 15.8906 33.0132 15.6464 32.9393C15.4022 32.8654 15.176 32.7404 14.9823 32.5724C14.7055 32.3444 14.4477 32.0893 14.1912 31.8561C13.0624 32.3933 12.077 32.4049 11.3418 30.8835C10.4352 30.7753 9.89806 30.1944 9.60601 29.3248C8.7108 29.196 8.18005 28.6343 7.90958 27.8189C6.28425 27.4247 5.93504 26.103 6.34011 25.0042C6.22583 24.8341 6.09885 24.6422 5.95917 24.4258C5.09063 24.6834 4.39351 24.3755 3.73322 23.8319C2.84437 23.1015 1.92124 22.4149 1.01334 21.7154C0.860346 21.6005 0.714475 21.4762 0.57654 21.3431C-0.0583556 20.7093 -0.185351 19.8127 0.306058 19.0527C0.602285 18.6081 0.923224 18.181 1.2673 17.7735C1.37035 17.635 1.52182 17.542 1.69049 17.5134C1.85916 17.4849 2.03218 17.5231 2.17392 17.6202C2.452 17.8211 2.52057 18.1934 2.30089 18.5335C2.08122 18.8736 1.78284 19.2124 1.53143 19.5641C1.2216 19.9905 1.23428 20.2288 1.64061 20.5496C2.70808 21.3929 3.78489 22.2251 4.87098 23.0461C5.27604 23.3527 5.51222 23.2844 5.87919 22.8091C6.96359 21.4075 8.04461 20.0038 9.12224 18.5979L10.7234 16.5175C11.2009 15.8991 11.1882 15.7136 10.5964 15.2537C9.60601 14.4808 8.61134 13.7165 7.61244 12.9607C7.10452 12.5743 6.90262 12.6013 6.49756 13.1076C6.15091 13.5417 5.82711 13.9926 5.48173 14.4241C5.17317 14.8029 4.79096 14.8686 4.49256 14.6186C4.19415 14.3687 4.18275 14.0106 4.4583 13.6396C4.85193 13.1076 5.25063 12.5781 5.67982 12.0757C6.38456 11.2551 7.36739 11.1443 8.23466 11.7923C9.32287 12.609 10.3933 13.449 11.4675 14.2876C12.1151 14.7938 12.2624 15.0772 12.3729 15.9867L15.6388 16.4917ZM16.7727 30.9814C16.5899 30.8011 16.4362 30.6233 16.2572 30.4752C16.1809 30.4164 16.1174 30.3423 16.0706 30.2575C16.0238 30.1727 15.9947 30.0791 15.9852 29.9823C15.9756 29.8856 15.9858 29.788 16.0152 29.6955C16.0445 29.6029 16.0923 29.5176 16.1556 29.4446C16.4197 29.1792 16.7524 29.187 17.1156 29.4884C17.2959 29.6379 17.4584 29.8079 17.6311 29.9651C17.766 30.1016 17.9108 30.2277 18.0641 30.3425C18.2863 30.4919 18.5263 30.5705 18.7498 30.3309C18.9733 30.0913 18.9631 29.8427 18.7498 29.5812C18.6164 29.4163 18.4577 29.272 18.3079 29.12C17.8914 28.6936 17.461 28.2788 17.0584 27.8318C17.0001 27.7765 16.9531 27.71 16.9204 27.6362C16.8876 27.5623 16.8698 27.4826 16.8677 27.4016C16.8657 27.3207 16.8796 27.2401 16.9087 27.1647C16.9377 27.0892 16.9813 27.0204 17.0368 26.9622C17.2667 26.7046 17.6451 26.6814 17.9498 26.9197C18.0475 27.0022 18.1395 27.0913 18.2254 27.1864C18.7193 27.6875 19.2094 28.1912 19.7059 28.6884C20.0589 29.0427 20.3777 29.0916 20.6418 28.8469C20.9059 28.6021 20.8754 28.2839 20.5249 27.9039C20.4246 27.7944 20.3154 27.6914 20.21 27.587C19.6361 27.0151 19.0584 26.4482 18.4895 25.8711C18.3546 25.7369 18.2365 25.5863 18.1378 25.4228C17.9841 25.1652 18.0705 24.9076 18.2647 24.7208C18.459 24.534 18.6977 24.427 18.9542 24.5855C19.1334 24.697 19.2991 24.8293 19.4482 24.9797C20.1897 25.714 20.9249 26.456 21.6614 27.1967C21.9776 27.5162 22.3166 27.7403 22.7598 27.5059C22.9744 27.149 22.8766 26.8515 22.676 26.5822C22.5446 26.414 22.397 26.2595 22.2354 26.121C20.9249 24.9342 19.6128 23.7507 18.299 22.5707C17.8432 22.1585 17.3899 21.7437 16.9023 21.3019C16.4286 21.5389 15.9854 21.7862 15.522 21.9846C15.1563 22.1418 14.7715 22.3105 14.3792 22.3466C13.5525 22.4226 12.8249 22.1456 12.3399 21.4255C11.8675 20.7247 11.8383 19.9531 12.2726 19.2433C12.5545 18.7808 12.9773 18.4034 13.3544 18.0053C13.5445 17.8348 13.7465 17.6785 13.9589 17.5377L11.7799 17.2195C10.1292 19.358 8.53812 21.4345 6.92041 23.5317L7.30897 23.9878L7.86767 23.488C8.26511 23.1337 8.64604 22.7575 9.06253 22.429C10.1203 21.5943 11.5526 21.9872 11.9742 23.2213C12.0382 23.4569 12.0866 23.6966 12.1189 23.9388C12.8808 24.2158 13.3252 24.8032 13.4967 25.5993C13.7533 25.6415 13.9987 25.7371 14.2172 25.8801C14.4357 26.0231 14.6227 26.2104 14.7665 26.4302C15.1245 26.9751 15.0826 27.56 14.9137 28.1384C15.3798 28.4991 15.6756 28.9177 15.7442 29.4897C15.8128 30.0617 15.4674 30.4919 15.1728 30.9737L15.6223 31.3744C16.1658 31.8793 16.5061 31.775 16.7727 30.9814ZM30.7404 19.7831C30.6587 19.6042 30.5636 19.4319 30.456 19.2678C28.8104 17.1208 27.1596 14.9738 25.5038 12.8267C25.0937 12.2973 24.9032 12.2844 24.3419 12.7108C23.3625 13.4571 22.389 14.2077 21.4214 14.9626C20.8183 15.4315 20.803 15.6067 21.2767 16.2225L23.8708 19.6208C24.6251 20.5998 25.3756 21.5814 26.1349 22.5566C26.4765 22.9958 26.719 23.0654 27.0961 22.7807C28.1983 21.9511 29.2878 21.1061 30.3734 20.2507C30.5195 20.1399 30.6007 19.9518 30.7341 19.7831H30.7404ZM24.6949 22.8748C24.6833 22.838 24.6688 22.8023 24.6518 22.7678C23.2258 20.9025 21.8036 19.032 20.3688 17.1796C20.2678 17.0444 20.1205 16.9525 19.9561 16.922C18.8133 16.8292 17.6603 16.7687 16.628 17.4102C15.7628 17.9469 14.9163 18.5112 14.0884 19.1029C13.8147 19.3038 13.587 19.5622 13.4205 19.8604C13.1119 20.4143 13.4129 20.9759 14.0389 21.0197C14.3312 21.0291 14.6218 20.9705 14.8883 20.8484C15.4506 20.6025 15.9991 20.3256 16.5315 20.0188C16.9556 19.7753 17.2933 19.8423 17.6146 20.1747C17.6882 20.252 17.7721 20.3177 17.8508 20.3898C19.2696 21.678 20.6875 22.9662 22.1046 24.2544C22.3509 24.4786 22.6061 24.6924 22.8461 24.8985C23.6169 24.3188 24.2886 23.7366 24.6886 22.8786L24.6949 22.8748ZM10.7767 23.9053C10.811 23.5575 10.5647 23.287 10.2688 23.3282C10.0821 23.3545 9.9062 23.433 9.76092 23.5549C9.05407 24.169 8.35653 24.7946 7.6683 25.4319C7.40673 25.6727 7.41437 25.9716 7.62642 26.228C7.83848 26.4843 8.0467 26.4933 8.33622 26.2344C9.08158 25.5671 9.81681 24.8882 10.5508 24.2068C10.6346 24.1171 10.7083 24.0181 10.7704 23.9118L10.7767 23.9053ZM12.2192 25.8595C11.9196 25.1794 11.6174 25.0531 11.1856 25.4203C10.5241 25.9819 9.90061 26.5874 9.26571 27.1799C9.21928 27.2427 9.18521 27.314 9.16539 27.3899C9.51078 28.0946 9.69616 28.1371 10.2422 27.654C10.5596 27.3732 10.8771 27.0936 11.1907 26.8089C11.5272 26.5036 11.8637 26.188 12.2129 25.866L12.2192 25.8595ZM11.3723 29.567C11.4928 29.5335 11.6085 29.4841 11.7164 29.4201C12.3513 28.8546 12.9862 28.2865 13.6046 27.7081C13.6842 27.6343 13.7332 27.5326 13.7417 27.4235C13.7501 27.3145 13.7175 27.2063 13.6503 27.1207C13.5921 27.0287 13.503 26.9614 13.3994 26.9313C13.2959 26.9012 13.1851 26.9104 13.0878 26.9571C12.9324 27.0229 12.79 27.1168 12.6675 27.2341C12.1862 27.6514 11.7113 28.0765 11.2352 28.5016C11.1564 28.5712 11.0523 28.6434 11.0257 28.7348C10.9812 28.8855 10.9317 29.0813 10.9914 29.2063C11.0561 29.3635 11.239 29.4588 11.3659 29.5734L11.3723 29.567ZM14.5315 29.6765C14.129 29.205 14.0731 29.1612 13.8027 29.3609C13.4297 29.6383 13.0817 29.9487 12.7627 30.2884C12.5608 30.5048 12.7335 30.8256 13.0306 30.823C13.1567 30.8251 13.2801 30.7857 13.3824 30.7109C13.7582 30.3863 14.1239 30.0475 14.5252 29.6829L14.5315 29.6765Z" fill="#3970F2"/>
<path d="M8.61564 6.98596C8.57501 3.29911 11.6022 0.00516691 15.5258 1.40853e-05C16.8975 -0.00277201 18.2391 0.407823 19.3804 1.17971C20.5218 1.9516 21.4114 3.04999 21.9364 4.33557C22.4615 5.62116 22.5984 7.03599 22.3297 8.40061C22.061 9.76523 21.3989 11.0181 20.4272 12.0004C19.4556 12.9827 18.2183 13.6501 16.8723 13.9179C15.5262 14.1857 14.1321 14.0419 12.8668 13.5047C11.6014 12.9675 10.5218 12.0611 9.76496 10.9006C9.0081 9.73999 8.6081 8.37751 8.61564 6.98596ZM9.89557 7.01172C9.89051 7.76501 10.033 8.51181 10.3148 9.20877C10.5966 9.90572 11.012 10.5389 11.537 11.0717C12.062 11.6044 12.6861 12.026 13.373 12.312C14.0599 12.598 14.796 12.7428 15.5385 12.7378C18.5479 12.7378 21.1408 10.3598 21.1408 7.03749C21.1408 3.65723 18.501 1.31141 15.5004 1.30368C12.4288 1.29724 9.90319 3.88782 9.89557 7.01172Z" fill="#3970F2"/>
<path d="M3.96564 16.0872C3.9715 16.1719 3.96041 16.257 3.93303 16.3372C3.90565 16.4175 3.86255 16.4913 3.80633 16.5543C3.7501 16.6172 3.6819 16.6679 3.60585 16.7035C3.52979 16.739 3.44745 16.7585 3.36376 16.7609C3.19538 16.7676 3.03129 16.7061 2.90759 16.59C2.78388 16.4739 2.71066 16.3128 2.7041 16.1419C2.69753 15.9711 2.75813 15.8046 2.87255 15.6791C2.98698 15.5536 3.14587 15.4794 3.31425 15.4727C3.39755 15.4663 3.48124 15.4775 3.56009 15.5055C3.63894 15.5335 3.7112 15.5777 3.77238 15.6354C3.83356 15.6931 3.88232 15.7631 3.91557 15.8408C3.94883 15.9185 3.96588 16.0024 3.96564 16.0872Z" fill="#3970F2"/>
<path d="M16.0668 9.83039C16.0668 10.1022 16.0833 10.3379 16.0668 10.5698C16.0287 11.0374 15.8268 11.2513 15.4636 11.2345C15.1208 11.2204 14.9646 11.0284 14.9417 10.5711C14.929 10.3367 14.9417 10.1022 14.9417 9.85358C14.7422 9.76611 14.5481 9.66674 14.3602 9.556C14.1428 9.42636 13.9444 9.26634 13.771 9.08065C13.3443 8.5731 13.4954 8.12738 14.2002 7.86974C14.3634 7.98093 14.5168 8.10636 14.6586 8.24461C14.8985 8.51127 15.2008 8.5615 15.5246 8.54862C16.0325 8.52801 16.1353 8.38116 16.0794 7.73576C15.6147 7.5786 15.1157 7.42531 14.6293 7.23981C13.8891 6.95898 13.5259 6.37928 13.5869 5.59476C13.6019 5.32567 13.6828 5.06461 13.8222 4.83519C13.9617 4.60577 14.1553 4.41523 14.3856 4.28079C14.5443 4.18289 14.7221 4.11333 14.9239 4.01542C14.9354 3.76937 14.9367 3.51431 14.962 3.26311C14.9963 2.93849 15.2046 2.7298 15.4788 2.71691C15.7531 2.70403 15.9779 2.89726 16.0439 3.21931C16.0633 3.36799 16.0743 3.51767 16.0769 3.66761C16.0871 3.79643 16.101 3.91752 16.115 4.05407C16.2978 4.11768 16.4746 4.19787 16.6433 4.29368C16.8335 4.42343 17.0045 4.58001 17.1512 4.75872C17.3366 4.99188 17.2781 5.2521 17.0965 5.46465C16.915 5.67721 16.6788 5.74677 16.421 5.569C16.1176 5.35902 15.795 5.21346 15.4141 5.25983C15.1868 5.28817 15.0027 5.36804 14.9582 5.62568C14.91 5.91037 15.0585 6.08429 15.3011 6.16287C15.6426 6.27108 15.9931 6.35095 16.341 6.43726C16.9988 6.60344 17.4305 6.98989 17.513 7.69712C17.6045 8.47004 17.3518 9.09096 16.694 9.51478C16.5163 9.62299 16.3194 9.70286 16.0668 9.83039Z" fill="#3970F2"/>
</g>
<defs>
<clipPath id="clip0_1_540">
<rect width="32" height="33" fill="white"/>
</clipPath>
</defs>
</svg>
