<svg width="18" height="19" viewBox="0 0 18 19" fill="none" xmlns="http://www.w3.org/2000/svg">
<g clip-path="url(#clip0_1_755)">
<path d="M12.6849 3.5818C12.6849 7.55358 12.6849 11.4669 12.6849 15.4451C12.414 15.1964 12.1828 14.9864 11.9539 14.7732C11.7322 14.5672 11.5231 14.3453 11.2887 14.1543C10.8215 13.7722 10.1793 13.8235 9.79598 14.2561C9.42141 14.6793 9.43804 15.2927 9.86092 15.715C10.2616 16.1153 10.6837 16.4935 11.0963 16.8819C11.7005 17.4511 12.3 18.025 12.9082 18.5895C13.4847 19.1239 14.0121 19.1429 14.5854 18.6163C15.6133 17.6713 16.6317 16.7153 17.6382 15.7474C18.2258 15.1822 18.0753 14.2964 17.3492 13.9917C16.9445 13.8219 16.5486 13.8677 16.2112 14.178C15.8525 14.508 15.4977 14.8419 15.1405 15.1735C15.0645 15.2437 14.9869 15.3124 14.8713 15.4182C14.8713 11.463 14.8713 7.55753 14.8713 3.60153C15.31 4.00889 15.7266 4.38626 16.1328 4.77625C16.3743 5.00757 16.6452 5.11098 16.9841 5.11809C17.6398 5.13151 18.2971 4.32863 17.8497 3.54153C17.78 3.41838 17.677 3.30943 17.5725 3.21075C16.6254 2.31392 15.6743 1.42104 14.7248 0.527365C14.6765 0.482365 14.6282 0.437366 14.5783 0.394735C14.0018 -0.101048 13.4855 -0.103416 12.928 0.414471C11.9246 1.34683 10.9324 2.2926 9.93219 3.22812C9.61939 3.52022 9.46576 3.86679 9.55524 4.28915C9.71521 5.04546 10.6085 5.37782 11.2349 4.90809C11.4867 4.71941 11.7005 4.48178 11.9333 4.26784C12.1725 4.046 12.4132 3.82811 12.6849 3.5818Z" fill="black"/>
<path d="M0.00274658 14.785C0.0352147 15.3344 0.0217523 15.891 0.10807 16.4326C0.334555 17.8513 1.65941 18.9573 3.10939 18.9747C3.86091 18.9841 4.61322 18.981 5.36473 18.9754C7.06258 18.9644 8.32567 17.5986 8.45 16.2486C8.54186 15.2523 8.56957 14.2545 8.44287 13.2621C8.28528 12.0305 7.56861 11.2032 6.43064 10.7548C6.07191 10.6135 5.66487 10.555 5.27604 10.5353C4.6053 10.5006 3.93139 10.5148 3.25827 10.5282C1.61427 10.5598 0.509566 11.5995 0.161128 12.8271C0.0866885 13.0892 0.0526366 13.3671 0.0375904 13.6395C0.0170009 14.02 0.0320471 14.4021 0.0320471 14.7834C0.0225442 14.7842 0.0130413 14.785 0.00274658 14.785ZM4.26399 16.8392C3.90763 16.8392 3.55127 16.8478 3.19492 16.8376C2.58277 16.8202 2.1892 16.4279 2.1789 15.8121C2.16781 15.115 2.16861 14.4179 2.17811 13.7208C2.18682 13.0971 2.59307 12.6787 3.2163 12.6653C3.91555 12.6503 4.6148 12.6495 5.31405 12.6661C5.91115 12.6795 6.34432 13.0955 6.36095 13.6837C6.38154 14.4068 6.38392 15.1308 6.35937 15.8539C6.33957 16.435 5.91748 16.821 5.33227 16.8376C4.9767 16.8471 4.62034 16.8392 4.26399 16.8392Z" fill="black"/>
<path d="M4.24744 0.000165939C3.69628 0.031744 3.13798 0.0191126 2.59474 0.104374C1.18277 0.327003 0.0661847 1.62804 0.0368843 3.04907C0.0202543 3.85116 0.00837568 4.65405 0.03926 5.45535C0.104196 7.12901 1.45598 8.28084 2.72065 8.41584C3.78497 8.52952 4.858 8.56899 5.91203 8.39689C7.06346 8.209 7.86091 7.50085 8.27745 6.4185C8.42078 6.04745 8.47859 5.62903 8.50076 5.22878C8.5364 4.57352 8.51977 3.91432 8.50868 3.2567C8.47938 1.61225 7.43407 0.505423 6.21058 0.162006C5.94766 0.0885859 5.6697 0.049902 5.3965 0.0349026C5.01559 0.013587 4.63152 0.029376 4.24903 0.029376C4.24823 0.0199022 4.24744 0.00963974 4.24744 0.000165939ZM4.27833 2.16645C4.62122 2.16645 4.96491 2.15935 5.3078 2.16803C5.91836 2.18303 6.34362 2.56829 6.36183 3.1667C6.384 3.88985 6.384 4.61379 6.36104 5.33693C6.34282 5.90693 5.9144 6.32376 5.34106 6.33955C4.62914 6.3585 3.91563 6.35771 3.20371 6.34113C2.59949 6.32692 2.19007 5.91087 2.18057 5.31246C2.16869 4.60273 2.1679 3.89143 2.18057 3.1817C2.19087 2.57224 2.59157 2.1854 3.21005 2.16961C3.56561 2.15935 3.92197 2.16724 4.27833 2.16645Z" fill="black"/>
</g>
<defs>
<clipPath id="clip0_1_755">
<rect width="18" height="19" fill="white" transform="matrix(1 0 0 -1 0 19)"/>
</clipPath>
</defs>
</svg>
