<svg width="20" height="19" viewBox="0 0 20 19" fill="none" xmlns="http://www.w3.org/2000/svg">
<g clip-path="url(#clip0_57_632)">
<path d="M9.94731 15.5507C9.13278 16.0188 8.34342 16.4732 7.55406 16.9271C6.74629 17.3917 5.93851 17.8562 5.13012 18.3214C4.78086 18.5226 4.41687 18.564 4.04859 18.3835C3.60542 18.1663 3.41698 17.7325 3.54035 17.1976C3.83682 15.9087 4.14373 14.6222 4.44572 13.3345C4.55621 12.8646 4.66485 12.3947 4.7778 11.9112C4.15969 11.3881 3.55386 10.875 2.94741 10.362C2.16419 9.6974 1.38342 9.03047 0.595288 8.37182C0.209815 8.04989 0.026899 7.66465 0.210428 7.19004C0.392116 6.71958 0.788024 6.55507 1.29503 6.5166C2.71048 6.4089 4.12347 6.26924 5.53769 6.1426C5.9336 6.10709 6.32951 6.07277 6.73954 6.03667C6.80951 5.89287 6.87826 5.76268 6.9378 5.62835C7.6093 4.11517 8.28266 2.60259 8.94925 1.08706C9.12787 0.680505 9.41207 0.415981 9.88163 0.381066C10.3672 0.344968 10.7342 0.588188 10.9601 1.09593C11.6328 2.60851 12.3013 4.12346 12.9728 5.63663C13.0286 5.76268 13.0925 5.88518 13.1631 6.03135C13.6615 6.0781 14.1568 6.12721 14.6534 6.17041C16.0369 6.29173 17.4217 6.40712 18.8046 6.53376C19.2392 6.57341 19.5541 6.80125 19.7014 7.19833C19.8591 7.62263 19.7413 7.99841 19.3939 8.29548C18.3989 9.14586 17.3996 9.99033 16.4015 10.8372C15.9872 11.1881 15.5717 11.5372 15.1309 11.9089C15.2414 12.3864 15.3513 12.8646 15.4636 13.3427C15.7632 14.621 16.0633 15.8986 16.3635 17.1769C16.4697 17.6284 16.3874 18.0302 15.9798 18.3095C15.576 18.5859 15.1549 18.5421 14.7418 18.3036C13.303 17.4733 11.863 16.6443 10.423 15.8152C10.2751 15.7294 10.1241 15.6483 9.94731 15.5507Z" fill="#FE8253"/>
</g>
<defs>
<clipPath id="clip0_57_632">
<rect width="19.6321" height="18.122" fill="white" transform="translate(0.138672 0.376953)"/>
</clipPath>
</defs>
</svg>
