<svg width="33" height="33" viewBox="0 0 33 33" fill="none" xmlns="http://www.w3.org/2000/svg">
<circle cx="16.5" cy="16.5" r="16.5" fill="#FFDD00"/>
<g clip-path="url(#clip0_57_749)">
<path d="M17.7386 20.1233C17.7386 22.2552 17.7386 24.3871 17.7386 26.5191C17.7485 26.7394 17.7276 26.9601 17.6763 27.175C17.5201 27.7109 16.9333 28.0618 16.3627 27.9948C16.0786 27.9634 15.8148 27.8369 15.6175 27.6374C15.4202 27.4378 15.3019 27.1779 15.2831 26.9028C15.2717 26.7468 15.2742 26.5908 15.2742 26.4348C15.2742 22.1466 15.2742 17.8567 15.2742 13.5653C15.2813 13.4226 15.2729 13.2797 15.2491 13.1387C15.1681 12.7807 14.8209 12.652 14.5029 12.8563C14.3946 12.9334 14.2943 13.0204 14.2034 13.1161C12.8664 14.4009 11.5297 15.6855 10.1932 16.9699C9.83465 17.3131 9.41703 17.4699 8.90716 17.3248C8.6899 17.272 8.49256 17.1611 8.3379 17.0049C8.18324 16.8487 8.07756 16.6535 8.03307 16.4418C7.91653 15.9676 8.11401 15.5839 8.46283 15.2524C10.2434 13.5333 12.0239 11.8114 13.8044 10.0867C14.375 9.53443 14.9415 8.97753 15.5162 8.42844C16.1102 7.86218 16.8556 7.85048 17.4464 8.4183C19.8339 10.7124 22.2166 13.0113 24.5944 15.3148C25.127 15.8304 25.1342 16.5362 24.6438 17.0198C24.1533 17.5034 23.3829 17.5213 22.839 17.0034C21.4866 15.7149 20.1496 14.4116 18.8061 13.1153C18.716 13.0192 18.6162 12.9319 18.5083 12.8548C18.1845 12.6504 17.8495 12.783 17.7701 13.1449C17.746 13.2856 17.7367 13.4283 17.7426 13.5708C17.7388 15.7557 17.7375 17.9399 17.7386 20.1233Z" fill="#E5E1E1"/>
</g>
<defs>
<clipPath id="clip0_57_749">
<rect width="17" height="20" fill="white" transform="translate(8 8)"/>
</clipPath>
</defs>
</svg>
